%TF.GenerationSoftware,KiCad,Pcbnew,10.0.0*%
%TF.CreationDate,2026-09-01T17:34:48-04:00*%
%TF.ProjectId,MPP1,4d505031-2e6b-4696-9361-645f70636258,rev?*%
%TF.SameCoordinates,Original*%
%TF.FileFunction,Legend,Top*%
%TF.FilePolarity,Positive*%
%FSLAX46Y46*%
G04 Gerber Fmt 4.6, Leading zero omitted, Abs format (unit mm)*
G04 Created by KiCad (PCBNEW 10.0.0) date 2026-09-01 17:34:48*
%MOMM*%
%LPD*%
G01*
G04 APERTURE LIST*
%ADD10C,0.120000*%
%ADD11C,0.150000*%
%ADD12C,0.100000*%
%ADD13C,0.300000*%
G04 APERTURE END LIST*
D10*
X143485713Y-54863855D02*
X143028570Y-54863855D01*
X143257142Y-54863855D02*
X143257142Y-54063855D01*
X143257142Y-54063855D02*
X143180951Y-54178140D01*
X143180951Y-54178140D02*
X143104761Y-54254331D01*
X143104761Y-54254331D02*
X143028570Y-54292426D01*
X143980952Y-54063855D02*
X144057142Y-54063855D01*
X144057142Y-54063855D02*
X144133333Y-54101950D01*
X144133333Y-54101950D02*
X144171428Y-54140045D01*
X144171428Y-54140045D02*
X144209523Y-54216236D01*
X144209523Y-54216236D02*
X144247618Y-54368617D01*
X144247618Y-54368617D02*
X144247618Y-54559093D01*
X144247618Y-54559093D02*
X144209523Y-54711474D01*
X144209523Y-54711474D02*
X144171428Y-54787664D01*
X144171428Y-54787664D02*
X144133333Y-54825760D01*
X144133333Y-54825760D02*
X144057142Y-54863855D01*
X144057142Y-54863855D02*
X143980952Y-54863855D01*
X143980952Y-54863855D02*
X143904761Y-54825760D01*
X143904761Y-54825760D02*
X143866666Y-54787664D01*
X143866666Y-54787664D02*
X143828571Y-54711474D01*
X143828571Y-54711474D02*
X143790475Y-54559093D01*
X143790475Y-54559093D02*
X143790475Y-54368617D01*
X143790475Y-54368617D02*
X143828571Y-54216236D01*
X143828571Y-54216236D02*
X143866666Y-54140045D01*
X143866666Y-54140045D02*
X143904761Y-54101950D01*
X143904761Y-54101950D02*
X143980952Y-54063855D01*
X144933333Y-54330521D02*
X144933333Y-54863855D01*
X144590476Y-54330521D02*
X144590476Y-54749569D01*
X144590476Y-54749569D02*
X144628571Y-54825760D01*
X144628571Y-54825760D02*
X144704761Y-54863855D01*
X144704761Y-54863855D02*
X144819047Y-54863855D01*
X144819047Y-54863855D02*
X144895238Y-54825760D01*
X144895238Y-54825760D02*
X144933333Y-54787664D01*
X143485713Y-59863855D02*
X143028570Y-59863855D01*
X143257142Y-59863855D02*
X143257142Y-59063855D01*
X143257142Y-59063855D02*
X143180951Y-59178140D01*
X143180951Y-59178140D02*
X143104761Y-59254331D01*
X143104761Y-59254331D02*
X143028570Y-59292426D01*
X143980952Y-59063855D02*
X144057142Y-59063855D01*
X144057142Y-59063855D02*
X144133333Y-59101950D01*
X144133333Y-59101950D02*
X144171428Y-59140045D01*
X144171428Y-59140045D02*
X144209523Y-59216236D01*
X144209523Y-59216236D02*
X144247618Y-59368617D01*
X144247618Y-59368617D02*
X144247618Y-59559093D01*
X144247618Y-59559093D02*
X144209523Y-59711474D01*
X144209523Y-59711474D02*
X144171428Y-59787664D01*
X144171428Y-59787664D02*
X144133333Y-59825760D01*
X144133333Y-59825760D02*
X144057142Y-59863855D01*
X144057142Y-59863855D02*
X143980952Y-59863855D01*
X143980952Y-59863855D02*
X143904761Y-59825760D01*
X143904761Y-59825760D02*
X143866666Y-59787664D01*
X143866666Y-59787664D02*
X143828571Y-59711474D01*
X143828571Y-59711474D02*
X143790475Y-59559093D01*
X143790475Y-59559093D02*
X143790475Y-59368617D01*
X143790475Y-59368617D02*
X143828571Y-59216236D01*
X143828571Y-59216236D02*
X143866666Y-59140045D01*
X143866666Y-59140045D02*
X143904761Y-59101950D01*
X143904761Y-59101950D02*
X143980952Y-59063855D01*
X144933333Y-59330521D02*
X144933333Y-59863855D01*
X144590476Y-59330521D02*
X144590476Y-59749569D01*
X144590476Y-59749569D02*
X144628571Y-59825760D01*
X144628571Y-59825760D02*
X144704761Y-59863855D01*
X144704761Y-59863855D02*
X144819047Y-59863855D01*
X144819047Y-59863855D02*
X144895238Y-59825760D01*
X144895238Y-59825760D02*
X144933333Y-59787664D01*
X143295238Y-63563855D02*
X142914286Y-63563855D01*
X142914286Y-63563855D02*
X142876190Y-63944807D01*
X142876190Y-63944807D02*
X142914286Y-63906712D01*
X142914286Y-63906712D02*
X142990476Y-63868617D01*
X142990476Y-63868617D02*
X143180952Y-63868617D01*
X143180952Y-63868617D02*
X143257143Y-63906712D01*
X143257143Y-63906712D02*
X143295238Y-63944807D01*
X143295238Y-63944807D02*
X143333333Y-64020998D01*
X143333333Y-64020998D02*
X143333333Y-64211474D01*
X143333333Y-64211474D02*
X143295238Y-64287664D01*
X143295238Y-64287664D02*
X143257143Y-64325760D01*
X143257143Y-64325760D02*
X143180952Y-64363855D01*
X143180952Y-64363855D02*
X142990476Y-64363855D01*
X142990476Y-64363855D02*
X142914286Y-64325760D01*
X142914286Y-64325760D02*
X142876190Y-64287664D01*
X143676191Y-64287664D02*
X143714286Y-64325760D01*
X143714286Y-64325760D02*
X143676191Y-64363855D01*
X143676191Y-64363855D02*
X143638095Y-64325760D01*
X143638095Y-64325760D02*
X143676191Y-64287664D01*
X143676191Y-64287664D02*
X143676191Y-64363855D01*
X144476190Y-64363855D02*
X144019047Y-64363855D01*
X144247619Y-64363855D02*
X144247619Y-63563855D01*
X144247619Y-63563855D02*
X144171428Y-63678140D01*
X144171428Y-63678140D02*
X144095238Y-63754331D01*
X144095238Y-63754331D02*
X144019047Y-63792426D01*
X144819048Y-64363855D02*
X144819048Y-63563855D01*
X144895238Y-64059093D02*
X145123810Y-64363855D01*
X145123810Y-63830521D02*
X144819048Y-64135283D01*
X147028571Y-97563855D02*
X147104761Y-97563855D01*
X147104761Y-97563855D02*
X147180952Y-97601950D01*
X147180952Y-97601950D02*
X147219047Y-97640045D01*
X147219047Y-97640045D02*
X147257142Y-97716236D01*
X147257142Y-97716236D02*
X147295237Y-97868617D01*
X147295237Y-97868617D02*
X147295237Y-98059093D01*
X147295237Y-98059093D02*
X147257142Y-98211474D01*
X147257142Y-98211474D02*
X147219047Y-98287664D01*
X147219047Y-98287664D02*
X147180952Y-98325760D01*
X147180952Y-98325760D02*
X147104761Y-98363855D01*
X147104761Y-98363855D02*
X147028571Y-98363855D01*
X147028571Y-98363855D02*
X146952380Y-98325760D01*
X146952380Y-98325760D02*
X146914285Y-98287664D01*
X146914285Y-98287664D02*
X146876190Y-98211474D01*
X146876190Y-98211474D02*
X146838094Y-98059093D01*
X146838094Y-98059093D02*
X146838094Y-97868617D01*
X146838094Y-97868617D02*
X146876190Y-97716236D01*
X146876190Y-97716236D02*
X146914285Y-97640045D01*
X146914285Y-97640045D02*
X146952380Y-97601950D01*
X146952380Y-97601950D02*
X147028571Y-97563855D01*
X147638095Y-98287664D02*
X147676190Y-98325760D01*
X147676190Y-98325760D02*
X147638095Y-98363855D01*
X147638095Y-98363855D02*
X147599999Y-98325760D01*
X147599999Y-98325760D02*
X147638095Y-98287664D01*
X147638095Y-98287664D02*
X147638095Y-98363855D01*
X148438094Y-98363855D02*
X147980951Y-98363855D01*
X148209523Y-98363855D02*
X148209523Y-97563855D01*
X148209523Y-97563855D02*
X148133332Y-97678140D01*
X148133332Y-97678140D02*
X148057142Y-97754331D01*
X148057142Y-97754331D02*
X147980951Y-97792426D01*
X149123809Y-97830521D02*
X149123809Y-98363855D01*
X148780952Y-97830521D02*
X148780952Y-98249569D01*
X148780952Y-98249569D02*
X148819047Y-98325760D01*
X148819047Y-98325760D02*
X148895237Y-98363855D01*
X148895237Y-98363855D02*
X149009523Y-98363855D01*
X149009523Y-98363855D02*
X149085714Y-98325760D01*
X149085714Y-98325760D02*
X149123809Y-98287664D01*
X176528571Y-94063855D02*
X176604761Y-94063855D01*
X176604761Y-94063855D02*
X176680952Y-94101950D01*
X176680952Y-94101950D02*
X176719047Y-94140045D01*
X176719047Y-94140045D02*
X176757142Y-94216236D01*
X176757142Y-94216236D02*
X176795237Y-94368617D01*
X176795237Y-94368617D02*
X176795237Y-94559093D01*
X176795237Y-94559093D02*
X176757142Y-94711474D01*
X176757142Y-94711474D02*
X176719047Y-94787664D01*
X176719047Y-94787664D02*
X176680952Y-94825760D01*
X176680952Y-94825760D02*
X176604761Y-94863855D01*
X176604761Y-94863855D02*
X176528571Y-94863855D01*
X176528571Y-94863855D02*
X176452380Y-94825760D01*
X176452380Y-94825760D02*
X176414285Y-94787664D01*
X176414285Y-94787664D02*
X176376190Y-94711474D01*
X176376190Y-94711474D02*
X176338094Y-94559093D01*
X176338094Y-94559093D02*
X176338094Y-94368617D01*
X176338094Y-94368617D02*
X176376190Y-94216236D01*
X176376190Y-94216236D02*
X176414285Y-94140045D01*
X176414285Y-94140045D02*
X176452380Y-94101950D01*
X176452380Y-94101950D02*
X176528571Y-94063855D01*
X177138095Y-94787664D02*
X177176190Y-94825760D01*
X177176190Y-94825760D02*
X177138095Y-94863855D01*
X177138095Y-94863855D02*
X177099999Y-94825760D01*
X177099999Y-94825760D02*
X177138095Y-94787664D01*
X177138095Y-94787664D02*
X177138095Y-94863855D01*
X177938094Y-94863855D02*
X177480951Y-94863855D01*
X177709523Y-94863855D02*
X177709523Y-94063855D01*
X177709523Y-94063855D02*
X177633332Y-94178140D01*
X177633332Y-94178140D02*
X177557142Y-94254331D01*
X177557142Y-94254331D02*
X177480951Y-94292426D01*
X178623809Y-94330521D02*
X178623809Y-94863855D01*
X178280952Y-94330521D02*
X178280952Y-94749569D01*
X178280952Y-94749569D02*
X178319047Y-94825760D01*
X178319047Y-94825760D02*
X178395237Y-94863855D01*
X178395237Y-94863855D02*
X178509523Y-94863855D01*
X178509523Y-94863855D02*
X178585714Y-94825760D01*
X178585714Y-94825760D02*
X178623809Y-94787664D01*
X117063855Y-48754761D02*
X117063855Y-49135713D01*
X117063855Y-49135713D02*
X117444807Y-49173809D01*
X117444807Y-49173809D02*
X117406712Y-49135713D01*
X117406712Y-49135713D02*
X117368617Y-49059523D01*
X117368617Y-49059523D02*
X117368617Y-48869047D01*
X117368617Y-48869047D02*
X117406712Y-48792856D01*
X117406712Y-48792856D02*
X117444807Y-48754761D01*
X117444807Y-48754761D02*
X117520998Y-48716666D01*
X117520998Y-48716666D02*
X117711474Y-48716666D01*
X117711474Y-48716666D02*
X117787664Y-48754761D01*
X117787664Y-48754761D02*
X117825760Y-48792856D01*
X117825760Y-48792856D02*
X117863855Y-48869047D01*
X117863855Y-48869047D02*
X117863855Y-49059523D01*
X117863855Y-49059523D02*
X117825760Y-49135713D01*
X117825760Y-49135713D02*
X117787664Y-49173809D01*
X117787664Y-48373808D02*
X117825760Y-48335713D01*
X117825760Y-48335713D02*
X117863855Y-48373808D01*
X117863855Y-48373808D02*
X117825760Y-48411904D01*
X117825760Y-48411904D02*
X117787664Y-48373808D01*
X117787664Y-48373808D02*
X117863855Y-48373808D01*
X117863855Y-47573809D02*
X117863855Y-48030952D01*
X117863855Y-47802380D02*
X117063855Y-47802380D01*
X117063855Y-47802380D02*
X117178140Y-47878571D01*
X117178140Y-47878571D02*
X117254331Y-47954761D01*
X117254331Y-47954761D02*
X117292426Y-48030952D01*
X117863855Y-47230951D02*
X117063855Y-47230951D01*
X117559093Y-47154761D02*
X117863855Y-46926189D01*
X117330521Y-46926189D02*
X117635283Y-47230951D01*
X124563855Y-49704761D02*
X124563855Y-50085713D01*
X124563855Y-50085713D02*
X124944807Y-50123809D01*
X124944807Y-50123809D02*
X124906712Y-50085713D01*
X124906712Y-50085713D02*
X124868617Y-50009523D01*
X124868617Y-50009523D02*
X124868617Y-49819047D01*
X124868617Y-49819047D02*
X124906712Y-49742856D01*
X124906712Y-49742856D02*
X124944807Y-49704761D01*
X124944807Y-49704761D02*
X125020998Y-49666666D01*
X125020998Y-49666666D02*
X125211474Y-49666666D01*
X125211474Y-49666666D02*
X125287664Y-49704761D01*
X125287664Y-49704761D02*
X125325760Y-49742856D01*
X125325760Y-49742856D02*
X125363855Y-49819047D01*
X125363855Y-49819047D02*
X125363855Y-50009523D01*
X125363855Y-50009523D02*
X125325760Y-50085713D01*
X125325760Y-50085713D02*
X125287664Y-50123809D01*
X125287664Y-49323808D02*
X125325760Y-49285713D01*
X125325760Y-49285713D02*
X125363855Y-49323808D01*
X125363855Y-49323808D02*
X125325760Y-49361904D01*
X125325760Y-49361904D02*
X125287664Y-49323808D01*
X125287664Y-49323808D02*
X125363855Y-49323808D01*
X125363855Y-48523809D02*
X125363855Y-48980952D01*
X125363855Y-48752380D02*
X124563855Y-48752380D01*
X124563855Y-48752380D02*
X124678140Y-48828571D01*
X124678140Y-48828571D02*
X124754331Y-48904761D01*
X124754331Y-48904761D02*
X124792426Y-48980952D01*
X125363855Y-48180951D02*
X124563855Y-48180951D01*
X125059093Y-48104761D02*
X125363855Y-47876189D01*
X124830521Y-47876189D02*
X125135283Y-48180951D01*
X132563855Y-49704761D02*
X132563855Y-50085713D01*
X132563855Y-50085713D02*
X132944807Y-50123809D01*
X132944807Y-50123809D02*
X132906712Y-50085713D01*
X132906712Y-50085713D02*
X132868617Y-50009523D01*
X132868617Y-50009523D02*
X132868617Y-49819047D01*
X132868617Y-49819047D02*
X132906712Y-49742856D01*
X132906712Y-49742856D02*
X132944807Y-49704761D01*
X132944807Y-49704761D02*
X133020998Y-49666666D01*
X133020998Y-49666666D02*
X133211474Y-49666666D01*
X133211474Y-49666666D02*
X133287664Y-49704761D01*
X133287664Y-49704761D02*
X133325760Y-49742856D01*
X133325760Y-49742856D02*
X133363855Y-49819047D01*
X133363855Y-49819047D02*
X133363855Y-50009523D01*
X133363855Y-50009523D02*
X133325760Y-50085713D01*
X133325760Y-50085713D02*
X133287664Y-50123809D01*
X133287664Y-49323808D02*
X133325760Y-49285713D01*
X133325760Y-49285713D02*
X133363855Y-49323808D01*
X133363855Y-49323808D02*
X133325760Y-49361904D01*
X133325760Y-49361904D02*
X133287664Y-49323808D01*
X133287664Y-49323808D02*
X133363855Y-49323808D01*
X133363855Y-48523809D02*
X133363855Y-48980952D01*
X133363855Y-48752380D02*
X132563855Y-48752380D01*
X132563855Y-48752380D02*
X132678140Y-48828571D01*
X132678140Y-48828571D02*
X132754331Y-48904761D01*
X132754331Y-48904761D02*
X132792426Y-48980952D01*
X133363855Y-48180951D02*
X132563855Y-48180951D01*
X133059093Y-48104761D02*
X133363855Y-47876189D01*
X132830521Y-47876189D02*
X133135283Y-48180951D01*
X136963855Y-49971428D02*
X136963855Y-49895238D01*
X136963855Y-49895238D02*
X137001950Y-49819047D01*
X137001950Y-49819047D02*
X137040045Y-49780952D01*
X137040045Y-49780952D02*
X137116236Y-49742857D01*
X137116236Y-49742857D02*
X137268617Y-49704762D01*
X137268617Y-49704762D02*
X137459093Y-49704762D01*
X137459093Y-49704762D02*
X137611474Y-49742857D01*
X137611474Y-49742857D02*
X137687664Y-49780952D01*
X137687664Y-49780952D02*
X137725760Y-49819047D01*
X137725760Y-49819047D02*
X137763855Y-49895238D01*
X137763855Y-49895238D02*
X137763855Y-49971428D01*
X137763855Y-49971428D02*
X137725760Y-50047619D01*
X137725760Y-50047619D02*
X137687664Y-50085714D01*
X137687664Y-50085714D02*
X137611474Y-50123809D01*
X137611474Y-50123809D02*
X137459093Y-50161905D01*
X137459093Y-50161905D02*
X137268617Y-50161905D01*
X137268617Y-50161905D02*
X137116236Y-50123809D01*
X137116236Y-50123809D02*
X137040045Y-50085714D01*
X137040045Y-50085714D02*
X137001950Y-50047619D01*
X137001950Y-50047619D02*
X136963855Y-49971428D01*
X137687664Y-49361904D02*
X137725760Y-49323809D01*
X137725760Y-49323809D02*
X137763855Y-49361904D01*
X137763855Y-49361904D02*
X137725760Y-49400000D01*
X137725760Y-49400000D02*
X137687664Y-49361904D01*
X137687664Y-49361904D02*
X137763855Y-49361904D01*
X137763855Y-48561905D02*
X137763855Y-49019048D01*
X137763855Y-48790476D02*
X136963855Y-48790476D01*
X136963855Y-48790476D02*
X137078140Y-48866667D01*
X137078140Y-48866667D02*
X137154331Y-48942857D01*
X137154331Y-48942857D02*
X137192426Y-49019048D01*
X137230521Y-47876190D02*
X137763855Y-47876190D01*
X137230521Y-48219047D02*
X137649569Y-48219047D01*
X137649569Y-48219047D02*
X137725760Y-48180952D01*
X137725760Y-48180952D02*
X137763855Y-48104762D01*
X137763855Y-48104762D02*
X137763855Y-47990476D01*
X137763855Y-47990476D02*
X137725760Y-47914285D01*
X137725760Y-47914285D02*
X137687664Y-47876190D01*
X157363855Y-79276190D02*
X157363855Y-79733333D01*
X157363855Y-79504761D02*
X156563855Y-79504761D01*
X156563855Y-79504761D02*
X156678140Y-79580952D01*
X156678140Y-79580952D02*
X156754331Y-79657142D01*
X156754331Y-79657142D02*
X156792426Y-79733333D01*
X156563855Y-78780951D02*
X156563855Y-78704761D01*
X156563855Y-78704761D02*
X156601950Y-78628570D01*
X156601950Y-78628570D02*
X156640045Y-78590475D01*
X156640045Y-78590475D02*
X156716236Y-78552380D01*
X156716236Y-78552380D02*
X156868617Y-78514285D01*
X156868617Y-78514285D02*
X157059093Y-78514285D01*
X157059093Y-78514285D02*
X157211474Y-78552380D01*
X157211474Y-78552380D02*
X157287664Y-78590475D01*
X157287664Y-78590475D02*
X157325760Y-78628570D01*
X157325760Y-78628570D02*
X157363855Y-78704761D01*
X157363855Y-78704761D02*
X157363855Y-78780951D01*
X157363855Y-78780951D02*
X157325760Y-78857142D01*
X157325760Y-78857142D02*
X157287664Y-78895237D01*
X157287664Y-78895237D02*
X157211474Y-78933332D01*
X157211474Y-78933332D02*
X157059093Y-78971428D01*
X157059093Y-78971428D02*
X156868617Y-78971428D01*
X156868617Y-78971428D02*
X156716236Y-78933332D01*
X156716236Y-78933332D02*
X156640045Y-78895237D01*
X156640045Y-78895237D02*
X156601950Y-78857142D01*
X156601950Y-78857142D02*
X156563855Y-78780951D01*
X157363855Y-78171427D02*
X156563855Y-78171427D01*
X157059093Y-78095237D02*
X157363855Y-77866665D01*
X156830521Y-77866665D02*
X157135283Y-78171427D01*
X157563855Y-101204761D02*
X157563855Y-101585713D01*
X157563855Y-101585713D02*
X157944807Y-101623809D01*
X157944807Y-101623809D02*
X157906712Y-101585713D01*
X157906712Y-101585713D02*
X157868617Y-101509523D01*
X157868617Y-101509523D02*
X157868617Y-101319047D01*
X157868617Y-101319047D02*
X157906712Y-101242856D01*
X157906712Y-101242856D02*
X157944807Y-101204761D01*
X157944807Y-101204761D02*
X158020998Y-101166666D01*
X158020998Y-101166666D02*
X158211474Y-101166666D01*
X158211474Y-101166666D02*
X158287664Y-101204761D01*
X158287664Y-101204761D02*
X158325760Y-101242856D01*
X158325760Y-101242856D02*
X158363855Y-101319047D01*
X158363855Y-101319047D02*
X158363855Y-101509523D01*
X158363855Y-101509523D02*
X158325760Y-101585713D01*
X158325760Y-101585713D02*
X158287664Y-101623809D01*
X158287664Y-100823808D02*
X158325760Y-100785713D01*
X158325760Y-100785713D02*
X158363855Y-100823808D01*
X158363855Y-100823808D02*
X158325760Y-100861904D01*
X158325760Y-100861904D02*
X158287664Y-100823808D01*
X158287664Y-100823808D02*
X158363855Y-100823808D01*
X158363855Y-100023809D02*
X158363855Y-100480952D01*
X158363855Y-100252380D02*
X157563855Y-100252380D01*
X157563855Y-100252380D02*
X157678140Y-100328571D01*
X157678140Y-100328571D02*
X157754331Y-100404761D01*
X157754331Y-100404761D02*
X157792426Y-100480952D01*
X158363855Y-99680951D02*
X157563855Y-99680951D01*
X158059093Y-99604761D02*
X158363855Y-99376189D01*
X157830521Y-99376189D02*
X158135283Y-99680951D01*
X170863855Y-98014286D02*
X170863855Y-98471429D01*
X170863855Y-98242857D02*
X170063855Y-98242857D01*
X170063855Y-98242857D02*
X170178140Y-98319048D01*
X170178140Y-98319048D02*
X170254331Y-98395238D01*
X170254331Y-98395238D02*
X170292426Y-98471429D01*
X170063855Y-97519047D02*
X170063855Y-97442857D01*
X170063855Y-97442857D02*
X170101950Y-97366666D01*
X170101950Y-97366666D02*
X170140045Y-97328571D01*
X170140045Y-97328571D02*
X170216236Y-97290476D01*
X170216236Y-97290476D02*
X170368617Y-97252381D01*
X170368617Y-97252381D02*
X170559093Y-97252381D01*
X170559093Y-97252381D02*
X170711474Y-97290476D01*
X170711474Y-97290476D02*
X170787664Y-97328571D01*
X170787664Y-97328571D02*
X170825760Y-97366666D01*
X170825760Y-97366666D02*
X170863855Y-97442857D01*
X170863855Y-97442857D02*
X170863855Y-97519047D01*
X170863855Y-97519047D02*
X170825760Y-97595238D01*
X170825760Y-97595238D02*
X170787664Y-97633333D01*
X170787664Y-97633333D02*
X170711474Y-97671428D01*
X170711474Y-97671428D02*
X170559093Y-97709524D01*
X170559093Y-97709524D02*
X170368617Y-97709524D01*
X170368617Y-97709524D02*
X170216236Y-97671428D01*
X170216236Y-97671428D02*
X170140045Y-97633333D01*
X170140045Y-97633333D02*
X170101950Y-97595238D01*
X170101950Y-97595238D02*
X170063855Y-97519047D01*
X170330521Y-96566666D02*
X170863855Y-96566666D01*
X170330521Y-96909523D02*
X170749569Y-96909523D01*
X170749569Y-96909523D02*
X170825760Y-96871428D01*
X170825760Y-96871428D02*
X170863855Y-96795238D01*
X170863855Y-96795238D02*
X170863855Y-96680952D01*
X170863855Y-96680952D02*
X170825760Y-96604761D01*
X170825760Y-96604761D02*
X170787664Y-96566666D01*
X140936144Y-98795238D02*
X140936144Y-98414286D01*
X140936144Y-98414286D02*
X140555192Y-98376190D01*
X140555192Y-98376190D02*
X140593287Y-98414286D01*
X140593287Y-98414286D02*
X140631382Y-98490476D01*
X140631382Y-98490476D02*
X140631382Y-98680952D01*
X140631382Y-98680952D02*
X140593287Y-98757143D01*
X140593287Y-98757143D02*
X140555192Y-98795238D01*
X140555192Y-98795238D02*
X140479001Y-98833333D01*
X140479001Y-98833333D02*
X140288525Y-98833333D01*
X140288525Y-98833333D02*
X140212335Y-98795238D01*
X140212335Y-98795238D02*
X140174240Y-98757143D01*
X140174240Y-98757143D02*
X140136144Y-98680952D01*
X140136144Y-98680952D02*
X140136144Y-98490476D01*
X140136144Y-98490476D02*
X140174240Y-98414286D01*
X140174240Y-98414286D02*
X140212335Y-98376190D01*
X140212335Y-99176191D02*
X140174240Y-99214286D01*
X140174240Y-99214286D02*
X140136144Y-99176191D01*
X140136144Y-99176191D02*
X140174240Y-99138095D01*
X140174240Y-99138095D02*
X140212335Y-99176191D01*
X140212335Y-99176191D02*
X140136144Y-99176191D01*
X140136144Y-99976190D02*
X140136144Y-99519047D01*
X140136144Y-99747619D02*
X140936144Y-99747619D01*
X140936144Y-99747619D02*
X140821859Y-99671428D01*
X140821859Y-99671428D02*
X140745668Y-99595238D01*
X140745668Y-99595238D02*
X140707573Y-99519047D01*
X140136144Y-100319048D02*
X140936144Y-100319048D01*
X140440906Y-100395238D02*
X140136144Y-100623810D01*
X140669478Y-100623810D02*
X140364716Y-100319048D01*
D11*
X159504761Y-68443247D02*
X159771427Y-68443247D01*
X159885713Y-68862295D02*
X159504761Y-68862295D01*
X159504761Y-68862295D02*
X159504761Y-68062295D01*
X159504761Y-68062295D02*
X159885713Y-68062295D01*
X160190475Y-68824200D02*
X160304761Y-68862295D01*
X160304761Y-68862295D02*
X160495237Y-68862295D01*
X160495237Y-68862295D02*
X160571428Y-68824200D01*
X160571428Y-68824200D02*
X160609523Y-68786104D01*
X160609523Y-68786104D02*
X160647618Y-68709914D01*
X160647618Y-68709914D02*
X160647618Y-68633723D01*
X160647618Y-68633723D02*
X160609523Y-68557533D01*
X160609523Y-68557533D02*
X160571428Y-68519438D01*
X160571428Y-68519438D02*
X160495237Y-68481342D01*
X160495237Y-68481342D02*
X160342856Y-68443247D01*
X160342856Y-68443247D02*
X160266666Y-68405152D01*
X160266666Y-68405152D02*
X160228571Y-68367057D01*
X160228571Y-68367057D02*
X160190475Y-68290866D01*
X160190475Y-68290866D02*
X160190475Y-68214676D01*
X160190475Y-68214676D02*
X160228571Y-68138485D01*
X160228571Y-68138485D02*
X160266666Y-68100390D01*
X160266666Y-68100390D02*
X160342856Y-68062295D01*
X160342856Y-68062295D02*
X160533333Y-68062295D01*
X160533333Y-68062295D02*
X160647618Y-68100390D01*
X160990476Y-68862295D02*
X160990476Y-68062295D01*
X160990476Y-68062295D02*
X161295238Y-68062295D01*
X161295238Y-68062295D02*
X161371428Y-68100390D01*
X161371428Y-68100390D02*
X161409523Y-68138485D01*
X161409523Y-68138485D02*
X161447619Y-68214676D01*
X161447619Y-68214676D02*
X161447619Y-68328961D01*
X161447619Y-68328961D02*
X161409523Y-68405152D01*
X161409523Y-68405152D02*
X161371428Y-68443247D01*
X161371428Y-68443247D02*
X161295238Y-68481342D01*
X161295238Y-68481342D02*
X160990476Y-68481342D01*
X161714285Y-68062295D02*
X162209523Y-68062295D01*
X162209523Y-68062295D02*
X161942857Y-68367057D01*
X161942857Y-68367057D02*
X162057142Y-68367057D01*
X162057142Y-68367057D02*
X162133333Y-68405152D01*
X162133333Y-68405152D02*
X162171428Y-68443247D01*
X162171428Y-68443247D02*
X162209523Y-68519438D01*
X162209523Y-68519438D02*
X162209523Y-68709914D01*
X162209523Y-68709914D02*
X162171428Y-68786104D01*
X162171428Y-68786104D02*
X162133333Y-68824200D01*
X162133333Y-68824200D02*
X162057142Y-68862295D01*
X162057142Y-68862295D02*
X161828571Y-68862295D01*
X161828571Y-68862295D02*
X161752380Y-68824200D01*
X161752380Y-68824200D02*
X161714285Y-68786104D01*
X162514285Y-68138485D02*
X162552381Y-68100390D01*
X162552381Y-68100390D02*
X162628571Y-68062295D01*
X162628571Y-68062295D02*
X162819047Y-68062295D01*
X162819047Y-68062295D02*
X162895238Y-68100390D01*
X162895238Y-68100390D02*
X162933333Y-68138485D01*
X162933333Y-68138485D02*
X162971428Y-68214676D01*
X162971428Y-68214676D02*
X162971428Y-68290866D01*
X162971428Y-68290866D02*
X162933333Y-68405152D01*
X162933333Y-68405152D02*
X162476190Y-68862295D01*
X162476190Y-68862295D02*
X162971428Y-68862295D01*
X163314286Y-68557533D02*
X163923810Y-68557533D01*
X164266666Y-68824200D02*
X164380952Y-68862295D01*
X164380952Y-68862295D02*
X164571428Y-68862295D01*
X164571428Y-68862295D02*
X164647619Y-68824200D01*
X164647619Y-68824200D02*
X164685714Y-68786104D01*
X164685714Y-68786104D02*
X164723809Y-68709914D01*
X164723809Y-68709914D02*
X164723809Y-68633723D01*
X164723809Y-68633723D02*
X164685714Y-68557533D01*
X164685714Y-68557533D02*
X164647619Y-68519438D01*
X164647619Y-68519438D02*
X164571428Y-68481342D01*
X164571428Y-68481342D02*
X164419047Y-68443247D01*
X164419047Y-68443247D02*
X164342857Y-68405152D01*
X164342857Y-68405152D02*
X164304762Y-68367057D01*
X164304762Y-68367057D02*
X164266666Y-68290866D01*
X164266666Y-68290866D02*
X164266666Y-68214676D01*
X164266666Y-68214676D02*
X164304762Y-68138485D01*
X164304762Y-68138485D02*
X164342857Y-68100390D01*
X164342857Y-68100390D02*
X164419047Y-68062295D01*
X164419047Y-68062295D02*
X164609524Y-68062295D01*
X164609524Y-68062295D02*
X164723809Y-68100390D01*
X164990476Y-68062295D02*
X165485714Y-68062295D01*
X165485714Y-68062295D02*
X165219048Y-68367057D01*
X165219048Y-68367057D02*
X165333333Y-68367057D01*
X165333333Y-68367057D02*
X165409524Y-68405152D01*
X165409524Y-68405152D02*
X165447619Y-68443247D01*
X165447619Y-68443247D02*
X165485714Y-68519438D01*
X165485714Y-68519438D02*
X165485714Y-68709914D01*
X165485714Y-68709914D02*
X165447619Y-68786104D01*
X165447619Y-68786104D02*
X165409524Y-68824200D01*
X165409524Y-68824200D02*
X165333333Y-68862295D01*
X165333333Y-68862295D02*
X165104762Y-68862295D01*
X165104762Y-68862295D02*
X165028571Y-68824200D01*
X165028571Y-68824200D02*
X164990476Y-68786104D01*
X165828572Y-68557533D02*
X166438096Y-68557533D01*
X166742857Y-68062295D02*
X166933333Y-68862295D01*
X166933333Y-68862295D02*
X167085714Y-68290866D01*
X167085714Y-68290866D02*
X167238095Y-68862295D01*
X167238095Y-68862295D02*
X167428572Y-68062295D01*
X168190477Y-68862295D02*
X167923810Y-68481342D01*
X167733334Y-68862295D02*
X167733334Y-68062295D01*
X167733334Y-68062295D02*
X168038096Y-68062295D01*
X168038096Y-68062295D02*
X168114286Y-68100390D01*
X168114286Y-68100390D02*
X168152381Y-68138485D01*
X168152381Y-68138485D02*
X168190477Y-68214676D01*
X168190477Y-68214676D02*
X168190477Y-68328961D01*
X168190477Y-68328961D02*
X168152381Y-68405152D01*
X168152381Y-68405152D02*
X168114286Y-68443247D01*
X168114286Y-68443247D02*
X168038096Y-68481342D01*
X168038096Y-68481342D02*
X167733334Y-68481342D01*
X168685715Y-68062295D02*
X168838096Y-68062295D01*
X168838096Y-68062295D02*
X168914286Y-68100390D01*
X168914286Y-68100390D02*
X168990477Y-68176580D01*
X168990477Y-68176580D02*
X169028572Y-68328961D01*
X169028572Y-68328961D02*
X169028572Y-68595628D01*
X169028572Y-68595628D02*
X168990477Y-68748009D01*
X168990477Y-68748009D02*
X168914286Y-68824200D01*
X168914286Y-68824200D02*
X168838096Y-68862295D01*
X168838096Y-68862295D02*
X168685715Y-68862295D01*
X168685715Y-68862295D02*
X168609524Y-68824200D01*
X168609524Y-68824200D02*
X168533334Y-68748009D01*
X168533334Y-68748009D02*
X168495238Y-68595628D01*
X168495238Y-68595628D02*
X168495238Y-68328961D01*
X168495238Y-68328961D02*
X168533334Y-68176580D01*
X168533334Y-68176580D02*
X168609524Y-68100390D01*
X168609524Y-68100390D02*
X168685715Y-68062295D01*
X169523810Y-68062295D02*
X169676191Y-68062295D01*
X169676191Y-68062295D02*
X169752381Y-68100390D01*
X169752381Y-68100390D02*
X169828572Y-68176580D01*
X169828572Y-68176580D02*
X169866667Y-68328961D01*
X169866667Y-68328961D02*
X169866667Y-68595628D01*
X169866667Y-68595628D02*
X169828572Y-68748009D01*
X169828572Y-68748009D02*
X169752381Y-68824200D01*
X169752381Y-68824200D02*
X169676191Y-68862295D01*
X169676191Y-68862295D02*
X169523810Y-68862295D01*
X169523810Y-68862295D02*
X169447619Y-68824200D01*
X169447619Y-68824200D02*
X169371429Y-68748009D01*
X169371429Y-68748009D02*
X169333333Y-68595628D01*
X169333333Y-68595628D02*
X169333333Y-68328961D01*
X169333333Y-68328961D02*
X169371429Y-68176580D01*
X169371429Y-68176580D02*
X169447619Y-68100390D01*
X169447619Y-68100390D02*
X169523810Y-68062295D01*
X170209524Y-68862295D02*
X170209524Y-68062295D01*
X170209524Y-68062295D02*
X170476190Y-68633723D01*
X170476190Y-68633723D02*
X170742857Y-68062295D01*
X170742857Y-68062295D02*
X170742857Y-68862295D01*
X171123810Y-68557533D02*
X171733334Y-68557533D01*
X172533333Y-68862295D02*
X172076190Y-68862295D01*
X172304762Y-68862295D02*
X172304762Y-68062295D01*
X172304762Y-68062295D02*
X172228571Y-68176580D01*
X172228571Y-68176580D02*
X172152381Y-68252771D01*
X172152381Y-68252771D02*
X172076190Y-68290866D01*
D12*
X116327693Y-55420038D02*
X116232455Y-55372419D01*
X116232455Y-55372419D02*
X116089598Y-55372419D01*
X116089598Y-55372419D02*
X115946741Y-55420038D01*
X115946741Y-55420038D02*
X115851503Y-55515276D01*
X115851503Y-55515276D02*
X115803884Y-55610514D01*
X115803884Y-55610514D02*
X115756265Y-55800990D01*
X115756265Y-55800990D02*
X115756265Y-55943847D01*
X115756265Y-55943847D02*
X115803884Y-56134323D01*
X115803884Y-56134323D02*
X115851503Y-56229561D01*
X115851503Y-56229561D02*
X115946741Y-56324800D01*
X115946741Y-56324800D02*
X116089598Y-56372419D01*
X116089598Y-56372419D02*
X116184836Y-56372419D01*
X116184836Y-56372419D02*
X116327693Y-56324800D01*
X116327693Y-56324800D02*
X116375312Y-56277180D01*
X116375312Y-56277180D02*
X116375312Y-55943847D01*
X116375312Y-55943847D02*
X116184836Y-55943847D01*
X116803884Y-56372419D02*
X116803884Y-55372419D01*
X116803884Y-55372419D02*
X117375312Y-56372419D01*
X117375312Y-56372419D02*
X117375312Y-55372419D01*
X117851503Y-56372419D02*
X117851503Y-55372419D01*
X117851503Y-55372419D02*
X118089598Y-55372419D01*
X118089598Y-55372419D02*
X118232455Y-55420038D01*
X118232455Y-55420038D02*
X118327693Y-55515276D01*
X118327693Y-55515276D02*
X118375312Y-55610514D01*
X118375312Y-55610514D02*
X118422931Y-55800990D01*
X118422931Y-55800990D02*
X118422931Y-55943847D01*
X118422931Y-55943847D02*
X118375312Y-56134323D01*
X118375312Y-56134323D02*
X118327693Y-56229561D01*
X118327693Y-56229561D02*
X118232455Y-56324800D01*
X118232455Y-56324800D02*
X118089598Y-56372419D01*
X118089598Y-56372419D02*
X117851503Y-56372419D01*
X115708646Y-57372419D02*
X116327693Y-57372419D01*
X116327693Y-57372419D02*
X115994360Y-57753371D01*
X115994360Y-57753371D02*
X116137217Y-57753371D01*
X116137217Y-57753371D02*
X116232455Y-57800990D01*
X116232455Y-57800990D02*
X116280074Y-57848609D01*
X116280074Y-57848609D02*
X116327693Y-57943847D01*
X116327693Y-57943847D02*
X116327693Y-58181942D01*
X116327693Y-58181942D02*
X116280074Y-58277180D01*
X116280074Y-58277180D02*
X116232455Y-58324800D01*
X116232455Y-58324800D02*
X116137217Y-58372419D01*
X116137217Y-58372419D02*
X115851503Y-58372419D01*
X115851503Y-58372419D02*
X115756265Y-58324800D01*
X115756265Y-58324800D02*
X115708646Y-58277180D01*
X116613408Y-57372419D02*
X116946741Y-58372419D01*
X116946741Y-58372419D02*
X117280074Y-57372419D01*
X117518170Y-57372419D02*
X118137217Y-57372419D01*
X118137217Y-57372419D02*
X117803884Y-57753371D01*
X117803884Y-57753371D02*
X117946741Y-57753371D01*
X117946741Y-57753371D02*
X118041979Y-57800990D01*
X118041979Y-57800990D02*
X118089598Y-57848609D01*
X118089598Y-57848609D02*
X118137217Y-57943847D01*
X118137217Y-57943847D02*
X118137217Y-58181942D01*
X118137217Y-58181942D02*
X118089598Y-58277180D01*
X118089598Y-58277180D02*
X118041979Y-58324800D01*
X118041979Y-58324800D02*
X117946741Y-58372419D01*
X117946741Y-58372419D02*
X117661027Y-58372419D01*
X117661027Y-58372419D02*
X117565789Y-58324800D01*
X117565789Y-58324800D02*
X117518170Y-58277180D01*
X115803884Y-60348609D02*
X116137217Y-60348609D01*
X116280074Y-60872419D02*
X115803884Y-60872419D01*
X115803884Y-60872419D02*
X115803884Y-59872419D01*
X115803884Y-59872419D02*
X116280074Y-59872419D01*
X116708646Y-60872419D02*
X116708646Y-59872419D01*
X116708646Y-59872419D02*
X117280074Y-60872419D01*
X117280074Y-60872419D02*
X117280074Y-59872419D01*
X116232455Y-62705752D02*
X116232455Y-63372419D01*
X115994360Y-62324800D02*
X115756265Y-63039085D01*
X115756265Y-63039085D02*
X116375312Y-63039085D01*
X116280074Y-64872419D02*
X115803884Y-64872419D01*
X115803884Y-64872419D02*
X115756265Y-65348609D01*
X115756265Y-65348609D02*
X115803884Y-65300990D01*
X115803884Y-65300990D02*
X115899122Y-65253371D01*
X115899122Y-65253371D02*
X116137217Y-65253371D01*
X116137217Y-65253371D02*
X116232455Y-65300990D01*
X116232455Y-65300990D02*
X116280074Y-65348609D01*
X116280074Y-65348609D02*
X116327693Y-65443847D01*
X116327693Y-65443847D02*
X116327693Y-65681942D01*
X116327693Y-65681942D02*
X116280074Y-65777180D01*
X116280074Y-65777180D02*
X116232455Y-65824800D01*
X116232455Y-65824800D02*
X116137217Y-65872419D01*
X116137217Y-65872419D02*
X115899122Y-65872419D01*
X115899122Y-65872419D02*
X115803884Y-65824800D01*
X115803884Y-65824800D02*
X115756265Y-65777180D01*
X116232455Y-67372419D02*
X116041979Y-67372419D01*
X116041979Y-67372419D02*
X115946741Y-67420038D01*
X115946741Y-67420038D02*
X115899122Y-67467657D01*
X115899122Y-67467657D02*
X115803884Y-67610514D01*
X115803884Y-67610514D02*
X115756265Y-67800990D01*
X115756265Y-67800990D02*
X115756265Y-68181942D01*
X115756265Y-68181942D02*
X115803884Y-68277180D01*
X115803884Y-68277180D02*
X115851503Y-68324800D01*
X115851503Y-68324800D02*
X115946741Y-68372419D01*
X115946741Y-68372419D02*
X116137217Y-68372419D01*
X116137217Y-68372419D02*
X116232455Y-68324800D01*
X116232455Y-68324800D02*
X116280074Y-68277180D01*
X116280074Y-68277180D02*
X116327693Y-68181942D01*
X116327693Y-68181942D02*
X116327693Y-67943847D01*
X116327693Y-67943847D02*
X116280074Y-67848609D01*
X116280074Y-67848609D02*
X116232455Y-67800990D01*
X116232455Y-67800990D02*
X116137217Y-67753371D01*
X116137217Y-67753371D02*
X115946741Y-67753371D01*
X115946741Y-67753371D02*
X115851503Y-67800990D01*
X115851503Y-67800990D02*
X115803884Y-67848609D01*
X115803884Y-67848609D02*
X115756265Y-67943847D01*
X115708646Y-69872419D02*
X116375312Y-69872419D01*
X116375312Y-69872419D02*
X115946741Y-70872419D01*
X116327693Y-73372419D02*
X115756265Y-73372419D01*
X116041979Y-73372419D02*
X116041979Y-72372419D01*
X116041979Y-72372419D02*
X115946741Y-72515276D01*
X115946741Y-72515276D02*
X115851503Y-72610514D01*
X115851503Y-72610514D02*
X115756265Y-72658133D01*
X117232455Y-72372419D02*
X116756265Y-72372419D01*
X116756265Y-72372419D02*
X116708646Y-72848609D01*
X116708646Y-72848609D02*
X116756265Y-72800990D01*
X116756265Y-72800990D02*
X116851503Y-72753371D01*
X116851503Y-72753371D02*
X117089598Y-72753371D01*
X117089598Y-72753371D02*
X117184836Y-72800990D01*
X117184836Y-72800990D02*
X117232455Y-72848609D01*
X117232455Y-72848609D02*
X117280074Y-72943847D01*
X117280074Y-72943847D02*
X117280074Y-73181942D01*
X117280074Y-73181942D02*
X117232455Y-73277180D01*
X117232455Y-73277180D02*
X117184836Y-73324800D01*
X117184836Y-73324800D02*
X117089598Y-73372419D01*
X117089598Y-73372419D02*
X116851503Y-73372419D01*
X116851503Y-73372419D02*
X116756265Y-73324800D01*
X116756265Y-73324800D02*
X116708646Y-73277180D01*
X116327693Y-75872419D02*
X115756265Y-75872419D01*
X116041979Y-75872419D02*
X116041979Y-74872419D01*
X116041979Y-74872419D02*
X115946741Y-75015276D01*
X115946741Y-75015276D02*
X115851503Y-75110514D01*
X115851503Y-75110514D02*
X115756265Y-75158133D01*
X117184836Y-74872419D02*
X116994360Y-74872419D01*
X116994360Y-74872419D02*
X116899122Y-74920038D01*
X116899122Y-74920038D02*
X116851503Y-74967657D01*
X116851503Y-74967657D02*
X116756265Y-75110514D01*
X116756265Y-75110514D02*
X116708646Y-75300990D01*
X116708646Y-75300990D02*
X116708646Y-75681942D01*
X116708646Y-75681942D02*
X116756265Y-75777180D01*
X116756265Y-75777180D02*
X116803884Y-75824800D01*
X116803884Y-75824800D02*
X116899122Y-75872419D01*
X116899122Y-75872419D02*
X117089598Y-75872419D01*
X117089598Y-75872419D02*
X117184836Y-75824800D01*
X117184836Y-75824800D02*
X117232455Y-75777180D01*
X117232455Y-75777180D02*
X117280074Y-75681942D01*
X117280074Y-75681942D02*
X117280074Y-75443847D01*
X117280074Y-75443847D02*
X117232455Y-75348609D01*
X117232455Y-75348609D02*
X117184836Y-75300990D01*
X117184836Y-75300990D02*
X117089598Y-75253371D01*
X117089598Y-75253371D02*
X116899122Y-75253371D01*
X116899122Y-75253371D02*
X116803884Y-75300990D01*
X116803884Y-75300990D02*
X116756265Y-75348609D01*
X116756265Y-75348609D02*
X116708646Y-75443847D01*
X116327693Y-78372419D02*
X115756265Y-78372419D01*
X116041979Y-78372419D02*
X116041979Y-77372419D01*
X116041979Y-77372419D02*
X115946741Y-77515276D01*
X115946741Y-77515276D02*
X115851503Y-77610514D01*
X115851503Y-77610514D02*
X115756265Y-77658133D01*
X116661027Y-77372419D02*
X117327693Y-77372419D01*
X117327693Y-77372419D02*
X116899122Y-78372419D01*
X116327693Y-81372419D02*
X115756265Y-81372419D01*
X116041979Y-81372419D02*
X116041979Y-80372419D01*
X116041979Y-80372419D02*
X115946741Y-80515276D01*
X115946741Y-80515276D02*
X115851503Y-80610514D01*
X115851503Y-80610514D02*
X115756265Y-80658133D01*
X116899122Y-80800990D02*
X116803884Y-80753371D01*
X116803884Y-80753371D02*
X116756265Y-80705752D01*
X116756265Y-80705752D02*
X116708646Y-80610514D01*
X116708646Y-80610514D02*
X116708646Y-80562895D01*
X116708646Y-80562895D02*
X116756265Y-80467657D01*
X116756265Y-80467657D02*
X116803884Y-80420038D01*
X116803884Y-80420038D02*
X116899122Y-80372419D01*
X116899122Y-80372419D02*
X117089598Y-80372419D01*
X117089598Y-80372419D02*
X117184836Y-80420038D01*
X117184836Y-80420038D02*
X117232455Y-80467657D01*
X117232455Y-80467657D02*
X117280074Y-80562895D01*
X117280074Y-80562895D02*
X117280074Y-80610514D01*
X117280074Y-80610514D02*
X117232455Y-80705752D01*
X117232455Y-80705752D02*
X117184836Y-80753371D01*
X117184836Y-80753371D02*
X117089598Y-80800990D01*
X117089598Y-80800990D02*
X116899122Y-80800990D01*
X116899122Y-80800990D02*
X116803884Y-80848609D01*
X116803884Y-80848609D02*
X116756265Y-80896228D01*
X116756265Y-80896228D02*
X116708646Y-80991466D01*
X116708646Y-80991466D02*
X116708646Y-81181942D01*
X116708646Y-81181942D02*
X116756265Y-81277180D01*
X116756265Y-81277180D02*
X116803884Y-81324800D01*
X116803884Y-81324800D02*
X116899122Y-81372419D01*
X116899122Y-81372419D02*
X117089598Y-81372419D01*
X117089598Y-81372419D02*
X117184836Y-81324800D01*
X117184836Y-81324800D02*
X117232455Y-81277180D01*
X117232455Y-81277180D02*
X117280074Y-81181942D01*
X117280074Y-81181942D02*
X117280074Y-80991466D01*
X117280074Y-80991466D02*
X117232455Y-80896228D01*
X117232455Y-80896228D02*
X117184836Y-80848609D01*
X117184836Y-80848609D02*
X117089598Y-80800990D01*
X115946741Y-83300990D02*
X115851503Y-83253371D01*
X115851503Y-83253371D02*
X115803884Y-83205752D01*
X115803884Y-83205752D02*
X115756265Y-83110514D01*
X115756265Y-83110514D02*
X115756265Y-83062895D01*
X115756265Y-83062895D02*
X115803884Y-82967657D01*
X115803884Y-82967657D02*
X115851503Y-82920038D01*
X115851503Y-82920038D02*
X115946741Y-82872419D01*
X115946741Y-82872419D02*
X116137217Y-82872419D01*
X116137217Y-82872419D02*
X116232455Y-82920038D01*
X116232455Y-82920038D02*
X116280074Y-82967657D01*
X116280074Y-82967657D02*
X116327693Y-83062895D01*
X116327693Y-83062895D02*
X116327693Y-83110514D01*
X116327693Y-83110514D02*
X116280074Y-83205752D01*
X116280074Y-83205752D02*
X116232455Y-83253371D01*
X116232455Y-83253371D02*
X116137217Y-83300990D01*
X116137217Y-83300990D02*
X115946741Y-83300990D01*
X115946741Y-83300990D02*
X115851503Y-83348609D01*
X115851503Y-83348609D02*
X115803884Y-83396228D01*
X115803884Y-83396228D02*
X115756265Y-83491466D01*
X115756265Y-83491466D02*
X115756265Y-83681942D01*
X115756265Y-83681942D02*
X115803884Y-83777180D01*
X115803884Y-83777180D02*
X115851503Y-83824800D01*
X115851503Y-83824800D02*
X115946741Y-83872419D01*
X115946741Y-83872419D02*
X116137217Y-83872419D01*
X116137217Y-83872419D02*
X116232455Y-83824800D01*
X116232455Y-83824800D02*
X116280074Y-83777180D01*
X116280074Y-83777180D02*
X116327693Y-83681942D01*
X116327693Y-83681942D02*
X116327693Y-83491466D01*
X116327693Y-83491466D02*
X116280074Y-83396228D01*
X116280074Y-83396228D02*
X116232455Y-83348609D01*
X116232455Y-83348609D02*
X116137217Y-83300990D01*
X116232455Y-85705752D02*
X116232455Y-86372419D01*
X115994360Y-85324800D02*
X115756265Y-86039085D01*
X115756265Y-86039085D02*
X116375312Y-86039085D01*
X117184836Y-85372419D02*
X116994360Y-85372419D01*
X116994360Y-85372419D02*
X116899122Y-85420038D01*
X116899122Y-85420038D02*
X116851503Y-85467657D01*
X116851503Y-85467657D02*
X116756265Y-85610514D01*
X116756265Y-85610514D02*
X116708646Y-85800990D01*
X116708646Y-85800990D02*
X116708646Y-86181942D01*
X116708646Y-86181942D02*
X116756265Y-86277180D01*
X116756265Y-86277180D02*
X116803884Y-86324800D01*
X116803884Y-86324800D02*
X116899122Y-86372419D01*
X116899122Y-86372419D02*
X117089598Y-86372419D01*
X117089598Y-86372419D02*
X117184836Y-86324800D01*
X117184836Y-86324800D02*
X117232455Y-86277180D01*
X117232455Y-86277180D02*
X117280074Y-86181942D01*
X117280074Y-86181942D02*
X117280074Y-85943847D01*
X117280074Y-85943847D02*
X117232455Y-85848609D01*
X117232455Y-85848609D02*
X117184836Y-85800990D01*
X117184836Y-85800990D02*
X117089598Y-85753371D01*
X117089598Y-85753371D02*
X116899122Y-85753371D01*
X116899122Y-85753371D02*
X116803884Y-85800990D01*
X116803884Y-85800990D02*
X116756265Y-85848609D01*
X116756265Y-85848609D02*
X116708646Y-85943847D01*
X115851503Y-88872419D02*
X116041979Y-88872419D01*
X116041979Y-88872419D02*
X116137217Y-88824800D01*
X116137217Y-88824800D02*
X116184836Y-88777180D01*
X116184836Y-88777180D02*
X116280074Y-88634323D01*
X116280074Y-88634323D02*
X116327693Y-88443847D01*
X116327693Y-88443847D02*
X116327693Y-88062895D01*
X116327693Y-88062895D02*
X116280074Y-87967657D01*
X116280074Y-87967657D02*
X116232455Y-87920038D01*
X116232455Y-87920038D02*
X116137217Y-87872419D01*
X116137217Y-87872419D02*
X115946741Y-87872419D01*
X115946741Y-87872419D02*
X115851503Y-87920038D01*
X115851503Y-87920038D02*
X115803884Y-87967657D01*
X115803884Y-87967657D02*
X115756265Y-88062895D01*
X115756265Y-88062895D02*
X115756265Y-88300990D01*
X115756265Y-88300990D02*
X115803884Y-88396228D01*
X115803884Y-88396228D02*
X115851503Y-88443847D01*
X115851503Y-88443847D02*
X115946741Y-88491466D01*
X115946741Y-88491466D02*
X116137217Y-88491466D01*
X116137217Y-88491466D02*
X116232455Y-88443847D01*
X116232455Y-88443847D02*
X116280074Y-88396228D01*
X116280074Y-88396228D02*
X116327693Y-88300990D01*
X116327693Y-91372419D02*
X115756265Y-91372419D01*
X116041979Y-91372419D02*
X116041979Y-90372419D01*
X116041979Y-90372419D02*
X115946741Y-90515276D01*
X115946741Y-90515276D02*
X115851503Y-90610514D01*
X115851503Y-90610514D02*
X115756265Y-90658133D01*
X116946741Y-90372419D02*
X117041979Y-90372419D01*
X117041979Y-90372419D02*
X117137217Y-90420038D01*
X117137217Y-90420038D02*
X117184836Y-90467657D01*
X117184836Y-90467657D02*
X117232455Y-90562895D01*
X117232455Y-90562895D02*
X117280074Y-90753371D01*
X117280074Y-90753371D02*
X117280074Y-90991466D01*
X117280074Y-90991466D02*
X117232455Y-91181942D01*
X117232455Y-91181942D02*
X117184836Y-91277180D01*
X117184836Y-91277180D02*
X117137217Y-91324800D01*
X117137217Y-91324800D02*
X117041979Y-91372419D01*
X117041979Y-91372419D02*
X116946741Y-91372419D01*
X116946741Y-91372419D02*
X116851503Y-91324800D01*
X116851503Y-91324800D02*
X116803884Y-91277180D01*
X116803884Y-91277180D02*
X116756265Y-91181942D01*
X116756265Y-91181942D02*
X116708646Y-90991466D01*
X116708646Y-90991466D02*
X116708646Y-90753371D01*
X116708646Y-90753371D02*
X116756265Y-90562895D01*
X116756265Y-90562895D02*
X116803884Y-90467657D01*
X116803884Y-90467657D02*
X116851503Y-90420038D01*
X116851503Y-90420038D02*
X116946741Y-90372419D01*
X116327693Y-93872419D02*
X115756265Y-93872419D01*
X116041979Y-93872419D02*
X116041979Y-92872419D01*
X116041979Y-92872419D02*
X115946741Y-93015276D01*
X115946741Y-93015276D02*
X115851503Y-93110514D01*
X115851503Y-93110514D02*
X115756265Y-93158133D01*
X117280074Y-93872419D02*
X116708646Y-93872419D01*
X116994360Y-93872419D02*
X116994360Y-92872419D01*
X116994360Y-92872419D02*
X116899122Y-93015276D01*
X116899122Y-93015276D02*
X116803884Y-93110514D01*
X116803884Y-93110514D02*
X116708646Y-93158133D01*
X127137217Y-78348609D02*
X127280074Y-78396228D01*
X127280074Y-78396228D02*
X127327693Y-78443847D01*
X127327693Y-78443847D02*
X127375312Y-78539085D01*
X127375312Y-78539085D02*
X127375312Y-78681942D01*
X127375312Y-78681942D02*
X127327693Y-78777180D01*
X127327693Y-78777180D02*
X127280074Y-78824800D01*
X127280074Y-78824800D02*
X127184836Y-78872419D01*
X127184836Y-78872419D02*
X126803884Y-78872419D01*
X126803884Y-78872419D02*
X126803884Y-77872419D01*
X126803884Y-77872419D02*
X127137217Y-77872419D01*
X127137217Y-77872419D02*
X127232455Y-77920038D01*
X127232455Y-77920038D02*
X127280074Y-77967657D01*
X127280074Y-77967657D02*
X127327693Y-78062895D01*
X127327693Y-78062895D02*
X127327693Y-78158133D01*
X127327693Y-78158133D02*
X127280074Y-78253371D01*
X127280074Y-78253371D02*
X127232455Y-78300990D01*
X127232455Y-78300990D02*
X127137217Y-78348609D01*
X127137217Y-78348609D02*
X126803884Y-78348609D01*
X128232455Y-78872419D02*
X128232455Y-78348609D01*
X128232455Y-78348609D02*
X128184836Y-78253371D01*
X128184836Y-78253371D02*
X128089598Y-78205752D01*
X128089598Y-78205752D02*
X127899122Y-78205752D01*
X127899122Y-78205752D02*
X127803884Y-78253371D01*
X128232455Y-78824800D02*
X128137217Y-78872419D01*
X128137217Y-78872419D02*
X127899122Y-78872419D01*
X127899122Y-78872419D02*
X127803884Y-78824800D01*
X127803884Y-78824800D02*
X127756265Y-78729561D01*
X127756265Y-78729561D02*
X127756265Y-78634323D01*
X127756265Y-78634323D02*
X127803884Y-78539085D01*
X127803884Y-78539085D02*
X127899122Y-78491466D01*
X127899122Y-78491466D02*
X128137217Y-78491466D01*
X128137217Y-78491466D02*
X128232455Y-78443847D01*
X128661027Y-78824800D02*
X128756265Y-78872419D01*
X128756265Y-78872419D02*
X128946741Y-78872419D01*
X128946741Y-78872419D02*
X129041979Y-78824800D01*
X129041979Y-78824800D02*
X129089598Y-78729561D01*
X129089598Y-78729561D02*
X129089598Y-78681942D01*
X129089598Y-78681942D02*
X129041979Y-78586704D01*
X129041979Y-78586704D02*
X128946741Y-78539085D01*
X128946741Y-78539085D02*
X128803884Y-78539085D01*
X128803884Y-78539085D02*
X128708646Y-78491466D01*
X128708646Y-78491466D02*
X128661027Y-78396228D01*
X128661027Y-78396228D02*
X128661027Y-78348609D01*
X128661027Y-78348609D02*
X128708646Y-78253371D01*
X128708646Y-78253371D02*
X128803884Y-78205752D01*
X128803884Y-78205752D02*
X128946741Y-78205752D01*
X128946741Y-78205752D02*
X129041979Y-78253371D01*
X129518170Y-78872419D02*
X129518170Y-78205752D01*
X129518170Y-77872419D02*
X129470551Y-77920038D01*
X129470551Y-77920038D02*
X129518170Y-77967657D01*
X129518170Y-77967657D02*
X129565789Y-77920038D01*
X129565789Y-77920038D02*
X129518170Y-77872419D01*
X129518170Y-77872419D02*
X129518170Y-77967657D01*
X129994360Y-78872419D02*
X129994360Y-78205752D01*
X129994360Y-78300990D02*
X130041979Y-78253371D01*
X130041979Y-78253371D02*
X130137217Y-78205752D01*
X130137217Y-78205752D02*
X130280074Y-78205752D01*
X130280074Y-78205752D02*
X130375312Y-78253371D01*
X130375312Y-78253371D02*
X130422931Y-78348609D01*
X130422931Y-78348609D02*
X130422931Y-78872419D01*
X130422931Y-78348609D02*
X130470550Y-78253371D01*
X130470550Y-78253371D02*
X130565788Y-78205752D01*
X130565788Y-78205752D02*
X130708645Y-78205752D01*
X130708645Y-78205752D02*
X130803884Y-78253371D01*
X130803884Y-78253371D02*
X130851503Y-78348609D01*
X130851503Y-78348609D02*
X130851503Y-78872419D01*
X132041979Y-78586704D02*
X132518169Y-78586704D01*
X131946741Y-78872419D02*
X132280074Y-77872419D01*
X132280074Y-77872419D02*
X132613407Y-78872419D01*
X133089598Y-78872419D02*
X132994360Y-78824800D01*
X132994360Y-78824800D02*
X132946741Y-78729561D01*
X132946741Y-78729561D02*
X132946741Y-77872419D01*
X133613408Y-78872419D02*
X133518170Y-78824800D01*
X133518170Y-78824800D02*
X133470551Y-78729561D01*
X133470551Y-78729561D02*
X133470551Y-77872419D01*
X134422932Y-78872419D02*
X134422932Y-78348609D01*
X134422932Y-78348609D02*
X134375313Y-78253371D01*
X134375313Y-78253371D02*
X134280075Y-78205752D01*
X134280075Y-78205752D02*
X134089599Y-78205752D01*
X134089599Y-78205752D02*
X133994361Y-78253371D01*
X134422932Y-78824800D02*
X134327694Y-78872419D01*
X134327694Y-78872419D02*
X134089599Y-78872419D01*
X134089599Y-78872419D02*
X133994361Y-78824800D01*
X133994361Y-78824800D02*
X133946742Y-78729561D01*
X133946742Y-78729561D02*
X133946742Y-78634323D01*
X133946742Y-78634323D02*
X133994361Y-78539085D01*
X133994361Y-78539085D02*
X134089599Y-78491466D01*
X134089599Y-78491466D02*
X134327694Y-78491466D01*
X134327694Y-78491466D02*
X134422932Y-78443847D01*
X134803885Y-78205752D02*
X134994361Y-78872419D01*
X134994361Y-78872419D02*
X135184837Y-78396228D01*
X135184837Y-78396228D02*
X135375313Y-78872419D01*
X135375313Y-78872419D02*
X135565789Y-78205752D01*
X136375313Y-78872419D02*
X136375313Y-78348609D01*
X136375313Y-78348609D02*
X136327694Y-78253371D01*
X136327694Y-78253371D02*
X136232456Y-78205752D01*
X136232456Y-78205752D02*
X136041980Y-78205752D01*
X136041980Y-78205752D02*
X135946742Y-78253371D01*
X136375313Y-78824800D02*
X136280075Y-78872419D01*
X136280075Y-78872419D02*
X136041980Y-78872419D01*
X136041980Y-78872419D02*
X135946742Y-78824800D01*
X135946742Y-78824800D02*
X135899123Y-78729561D01*
X135899123Y-78729561D02*
X135899123Y-78634323D01*
X135899123Y-78634323D02*
X135946742Y-78539085D01*
X135946742Y-78539085D02*
X136041980Y-78491466D01*
X136041980Y-78491466D02*
X136280075Y-78491466D01*
X136280075Y-78491466D02*
X136375313Y-78443847D01*
X136994361Y-78872419D02*
X136899123Y-78824800D01*
X136899123Y-78824800D02*
X136851504Y-78729561D01*
X136851504Y-78729561D02*
X136851504Y-77872419D01*
X137803885Y-78872419D02*
X137803885Y-78348609D01*
X137803885Y-78348609D02*
X137756266Y-78253371D01*
X137756266Y-78253371D02*
X137661028Y-78205752D01*
X137661028Y-78205752D02*
X137470552Y-78205752D01*
X137470552Y-78205752D02*
X137375314Y-78253371D01*
X137803885Y-78824800D02*
X137708647Y-78872419D01*
X137708647Y-78872419D02*
X137470552Y-78872419D01*
X137470552Y-78872419D02*
X137375314Y-78824800D01*
X137375314Y-78824800D02*
X137327695Y-78729561D01*
X137327695Y-78729561D02*
X137327695Y-78634323D01*
X137327695Y-78634323D02*
X137375314Y-78539085D01*
X137375314Y-78539085D02*
X137470552Y-78491466D01*
X137470552Y-78491466D02*
X137708647Y-78491466D01*
X137708647Y-78491466D02*
X137803885Y-78443847D01*
X126756265Y-80824800D02*
X126899122Y-80872419D01*
X126899122Y-80872419D02*
X127137217Y-80872419D01*
X127137217Y-80872419D02*
X127232455Y-80824800D01*
X127232455Y-80824800D02*
X127280074Y-80777180D01*
X127280074Y-80777180D02*
X127327693Y-80681942D01*
X127327693Y-80681942D02*
X127327693Y-80586704D01*
X127327693Y-80586704D02*
X127280074Y-80491466D01*
X127280074Y-80491466D02*
X127232455Y-80443847D01*
X127232455Y-80443847D02*
X127137217Y-80396228D01*
X127137217Y-80396228D02*
X126946741Y-80348609D01*
X126946741Y-80348609D02*
X126851503Y-80300990D01*
X126851503Y-80300990D02*
X126803884Y-80253371D01*
X126803884Y-80253371D02*
X126756265Y-80158133D01*
X126756265Y-80158133D02*
X126756265Y-80062895D01*
X126756265Y-80062895D02*
X126803884Y-79967657D01*
X126803884Y-79967657D02*
X126851503Y-79920038D01*
X126851503Y-79920038D02*
X126946741Y-79872419D01*
X126946741Y-79872419D02*
X127184836Y-79872419D01*
X127184836Y-79872419D02*
X127327693Y-79920038D01*
X128137217Y-80824800D02*
X128041979Y-80872419D01*
X128041979Y-80872419D02*
X127851503Y-80872419D01*
X127851503Y-80872419D02*
X127756265Y-80824800D01*
X127756265Y-80824800D02*
X127708646Y-80729561D01*
X127708646Y-80729561D02*
X127708646Y-80348609D01*
X127708646Y-80348609D02*
X127756265Y-80253371D01*
X127756265Y-80253371D02*
X127851503Y-80205752D01*
X127851503Y-80205752D02*
X128041979Y-80205752D01*
X128041979Y-80205752D02*
X128137217Y-80253371D01*
X128137217Y-80253371D02*
X128184836Y-80348609D01*
X128184836Y-80348609D02*
X128184836Y-80443847D01*
X128184836Y-80443847D02*
X127708646Y-80539085D01*
X128613408Y-80205752D02*
X128613408Y-81205752D01*
X128613408Y-80253371D02*
X128708646Y-80205752D01*
X128708646Y-80205752D02*
X128899122Y-80205752D01*
X128899122Y-80205752D02*
X128994360Y-80253371D01*
X128994360Y-80253371D02*
X129041979Y-80300990D01*
X129041979Y-80300990D02*
X129089598Y-80396228D01*
X129089598Y-80396228D02*
X129089598Y-80681942D01*
X129089598Y-80681942D02*
X129041979Y-80777180D01*
X129041979Y-80777180D02*
X128994360Y-80824800D01*
X128994360Y-80824800D02*
X128899122Y-80872419D01*
X128899122Y-80872419D02*
X128708646Y-80872419D01*
X128708646Y-80872419D02*
X128613408Y-80824800D01*
X129375313Y-80205752D02*
X129756265Y-80205752D01*
X129518170Y-79872419D02*
X129518170Y-80729561D01*
X129518170Y-80729561D02*
X129565789Y-80824800D01*
X129565789Y-80824800D02*
X129661027Y-80872419D01*
X129661027Y-80872419D02*
X129756265Y-80872419D01*
X130470551Y-80824800D02*
X130375313Y-80872419D01*
X130375313Y-80872419D02*
X130184837Y-80872419D01*
X130184837Y-80872419D02*
X130089599Y-80824800D01*
X130089599Y-80824800D02*
X130041980Y-80729561D01*
X130041980Y-80729561D02*
X130041980Y-80348609D01*
X130041980Y-80348609D02*
X130089599Y-80253371D01*
X130089599Y-80253371D02*
X130184837Y-80205752D01*
X130184837Y-80205752D02*
X130375313Y-80205752D01*
X130375313Y-80205752D02*
X130470551Y-80253371D01*
X130470551Y-80253371D02*
X130518170Y-80348609D01*
X130518170Y-80348609D02*
X130518170Y-80443847D01*
X130518170Y-80443847D02*
X130041980Y-80539085D01*
X130946742Y-80872419D02*
X130946742Y-80205752D01*
X130946742Y-80300990D02*
X130994361Y-80253371D01*
X130994361Y-80253371D02*
X131089599Y-80205752D01*
X131089599Y-80205752D02*
X131232456Y-80205752D01*
X131232456Y-80205752D02*
X131327694Y-80253371D01*
X131327694Y-80253371D02*
X131375313Y-80348609D01*
X131375313Y-80348609D02*
X131375313Y-80872419D01*
X131375313Y-80348609D02*
X131422932Y-80253371D01*
X131422932Y-80253371D02*
X131518170Y-80205752D01*
X131518170Y-80205752D02*
X131661027Y-80205752D01*
X131661027Y-80205752D02*
X131756266Y-80253371D01*
X131756266Y-80253371D02*
X131803885Y-80348609D01*
X131803885Y-80348609D02*
X131803885Y-80872419D01*
X132280075Y-80872419D02*
X132280075Y-79872419D01*
X132280075Y-80253371D02*
X132375313Y-80205752D01*
X132375313Y-80205752D02*
X132565789Y-80205752D01*
X132565789Y-80205752D02*
X132661027Y-80253371D01*
X132661027Y-80253371D02*
X132708646Y-80300990D01*
X132708646Y-80300990D02*
X132756265Y-80396228D01*
X132756265Y-80396228D02*
X132756265Y-80681942D01*
X132756265Y-80681942D02*
X132708646Y-80777180D01*
X132708646Y-80777180D02*
X132661027Y-80824800D01*
X132661027Y-80824800D02*
X132565789Y-80872419D01*
X132565789Y-80872419D02*
X132375313Y-80872419D01*
X132375313Y-80872419D02*
X132280075Y-80824800D01*
X133565789Y-80824800D02*
X133470551Y-80872419D01*
X133470551Y-80872419D02*
X133280075Y-80872419D01*
X133280075Y-80872419D02*
X133184837Y-80824800D01*
X133184837Y-80824800D02*
X133137218Y-80729561D01*
X133137218Y-80729561D02*
X133137218Y-80348609D01*
X133137218Y-80348609D02*
X133184837Y-80253371D01*
X133184837Y-80253371D02*
X133280075Y-80205752D01*
X133280075Y-80205752D02*
X133470551Y-80205752D01*
X133470551Y-80205752D02*
X133565789Y-80253371D01*
X133565789Y-80253371D02*
X133613408Y-80348609D01*
X133613408Y-80348609D02*
X133613408Y-80443847D01*
X133613408Y-80443847D02*
X133137218Y-80539085D01*
X134041980Y-80872419D02*
X134041980Y-80205752D01*
X134041980Y-80396228D02*
X134089599Y-80300990D01*
X134089599Y-80300990D02*
X134137218Y-80253371D01*
X134137218Y-80253371D02*
X134232456Y-80205752D01*
X134232456Y-80205752D02*
X134327694Y-80205752D01*
X135375314Y-79967657D02*
X135422933Y-79920038D01*
X135422933Y-79920038D02*
X135518171Y-79872419D01*
X135518171Y-79872419D02*
X135756266Y-79872419D01*
X135756266Y-79872419D02*
X135851504Y-79920038D01*
X135851504Y-79920038D02*
X135899123Y-79967657D01*
X135899123Y-79967657D02*
X135946742Y-80062895D01*
X135946742Y-80062895D02*
X135946742Y-80158133D01*
X135946742Y-80158133D02*
X135899123Y-80300990D01*
X135899123Y-80300990D02*
X135327695Y-80872419D01*
X135327695Y-80872419D02*
X135946742Y-80872419D01*
X136565790Y-79872419D02*
X136661028Y-79872419D01*
X136661028Y-79872419D02*
X136756266Y-79920038D01*
X136756266Y-79920038D02*
X136803885Y-79967657D01*
X136803885Y-79967657D02*
X136851504Y-80062895D01*
X136851504Y-80062895D02*
X136899123Y-80253371D01*
X136899123Y-80253371D02*
X136899123Y-80491466D01*
X136899123Y-80491466D02*
X136851504Y-80681942D01*
X136851504Y-80681942D02*
X136803885Y-80777180D01*
X136803885Y-80777180D02*
X136756266Y-80824800D01*
X136756266Y-80824800D02*
X136661028Y-80872419D01*
X136661028Y-80872419D02*
X136565790Y-80872419D01*
X136565790Y-80872419D02*
X136470552Y-80824800D01*
X136470552Y-80824800D02*
X136422933Y-80777180D01*
X136422933Y-80777180D02*
X136375314Y-80681942D01*
X136375314Y-80681942D02*
X136327695Y-80491466D01*
X136327695Y-80491466D02*
X136327695Y-80253371D01*
X136327695Y-80253371D02*
X136375314Y-80062895D01*
X136375314Y-80062895D02*
X136422933Y-79967657D01*
X136422933Y-79967657D02*
X136470552Y-79920038D01*
X136470552Y-79920038D02*
X136565790Y-79872419D01*
X137280076Y-79967657D02*
X137327695Y-79920038D01*
X137327695Y-79920038D02*
X137422933Y-79872419D01*
X137422933Y-79872419D02*
X137661028Y-79872419D01*
X137661028Y-79872419D02*
X137756266Y-79920038D01*
X137756266Y-79920038D02*
X137803885Y-79967657D01*
X137803885Y-79967657D02*
X137851504Y-80062895D01*
X137851504Y-80062895D02*
X137851504Y-80158133D01*
X137851504Y-80158133D02*
X137803885Y-80300990D01*
X137803885Y-80300990D02*
X137232457Y-80872419D01*
X137232457Y-80872419D02*
X137851504Y-80872419D01*
X138708647Y-79872419D02*
X138518171Y-79872419D01*
X138518171Y-79872419D02*
X138422933Y-79920038D01*
X138422933Y-79920038D02*
X138375314Y-79967657D01*
X138375314Y-79967657D02*
X138280076Y-80110514D01*
X138280076Y-80110514D02*
X138232457Y-80300990D01*
X138232457Y-80300990D02*
X138232457Y-80681942D01*
X138232457Y-80681942D02*
X138280076Y-80777180D01*
X138280076Y-80777180D02*
X138327695Y-80824800D01*
X138327695Y-80824800D02*
X138422933Y-80872419D01*
X138422933Y-80872419D02*
X138613409Y-80872419D01*
X138613409Y-80872419D02*
X138708647Y-80824800D01*
X138708647Y-80824800D02*
X138756266Y-80777180D01*
X138756266Y-80777180D02*
X138803885Y-80681942D01*
X138803885Y-80681942D02*
X138803885Y-80443847D01*
X138803885Y-80443847D02*
X138756266Y-80348609D01*
X138756266Y-80348609D02*
X138708647Y-80300990D01*
X138708647Y-80300990D02*
X138613409Y-80253371D01*
X138613409Y-80253371D02*
X138422933Y-80253371D01*
X138422933Y-80253371D02*
X138327695Y-80300990D01*
X138327695Y-80300990D02*
X138280076Y-80348609D01*
X138280076Y-80348609D02*
X138232457Y-80443847D01*
X182161027Y-60372419D02*
X182732455Y-60372419D01*
X182446741Y-61372419D02*
X182446741Y-60372419D01*
X182970551Y-60372419D02*
X183637217Y-61372419D01*
X183637217Y-60372419D02*
X182970551Y-61372419D01*
X184018170Y-61372419D02*
X184018170Y-60372419D01*
X184018170Y-60372419D02*
X184256265Y-60372419D01*
X184256265Y-60372419D02*
X184399122Y-60420038D01*
X184399122Y-60420038D02*
X184494360Y-60515276D01*
X184494360Y-60515276D02*
X184541979Y-60610514D01*
X184541979Y-60610514D02*
X184589598Y-60800990D01*
X184589598Y-60800990D02*
X184589598Y-60943847D01*
X184589598Y-60943847D02*
X184541979Y-61134323D01*
X184541979Y-61134323D02*
X184494360Y-61229561D01*
X184494360Y-61229561D02*
X184399122Y-61324800D01*
X184399122Y-61324800D02*
X184256265Y-61372419D01*
X184256265Y-61372419D02*
X184018170Y-61372419D01*
X185208646Y-60372419D02*
X185303884Y-60372419D01*
X185303884Y-60372419D02*
X185399122Y-60420038D01*
X185399122Y-60420038D02*
X185446741Y-60467657D01*
X185446741Y-60467657D02*
X185494360Y-60562895D01*
X185494360Y-60562895D02*
X185541979Y-60753371D01*
X185541979Y-60753371D02*
X185541979Y-60991466D01*
X185541979Y-60991466D02*
X185494360Y-61181942D01*
X185494360Y-61181942D02*
X185446741Y-61277180D01*
X185446741Y-61277180D02*
X185399122Y-61324800D01*
X185399122Y-61324800D02*
X185303884Y-61372419D01*
X185303884Y-61372419D02*
X185208646Y-61372419D01*
X185208646Y-61372419D02*
X185113408Y-61324800D01*
X185113408Y-61324800D02*
X185065789Y-61277180D01*
X185065789Y-61277180D02*
X185018170Y-61181942D01*
X185018170Y-61181942D02*
X184970551Y-60991466D01*
X184970551Y-60991466D02*
X184970551Y-60753371D01*
X184970551Y-60753371D02*
X185018170Y-60562895D01*
X185018170Y-60562895D02*
X185065789Y-60467657D01*
X185065789Y-60467657D02*
X185113408Y-60420038D01*
X185113408Y-60420038D02*
X185208646Y-60372419D01*
X182161027Y-62872419D02*
X182732455Y-62872419D01*
X182446741Y-63872419D02*
X182446741Y-62872419D01*
X182970551Y-62872419D02*
X183637217Y-63872419D01*
X183637217Y-62872419D02*
X182970551Y-63872419D01*
X184018170Y-63872419D02*
X184018170Y-62872419D01*
X184018170Y-62872419D02*
X184256265Y-62872419D01*
X184256265Y-62872419D02*
X184399122Y-62920038D01*
X184399122Y-62920038D02*
X184494360Y-63015276D01*
X184494360Y-63015276D02*
X184541979Y-63110514D01*
X184541979Y-63110514D02*
X184589598Y-63300990D01*
X184589598Y-63300990D02*
X184589598Y-63443847D01*
X184589598Y-63443847D02*
X184541979Y-63634323D01*
X184541979Y-63634323D02*
X184494360Y-63729561D01*
X184494360Y-63729561D02*
X184399122Y-63824800D01*
X184399122Y-63824800D02*
X184256265Y-63872419D01*
X184256265Y-63872419D02*
X184018170Y-63872419D01*
X185208646Y-62872419D02*
X185303884Y-62872419D01*
X185303884Y-62872419D02*
X185399122Y-62920038D01*
X185399122Y-62920038D02*
X185446741Y-62967657D01*
X185446741Y-62967657D02*
X185494360Y-63062895D01*
X185494360Y-63062895D02*
X185541979Y-63253371D01*
X185541979Y-63253371D02*
X185541979Y-63491466D01*
X185541979Y-63491466D02*
X185494360Y-63681942D01*
X185494360Y-63681942D02*
X185446741Y-63777180D01*
X185446741Y-63777180D02*
X185399122Y-63824800D01*
X185399122Y-63824800D02*
X185303884Y-63872419D01*
X185303884Y-63872419D02*
X185208646Y-63872419D01*
X185208646Y-63872419D02*
X185113408Y-63824800D01*
X185113408Y-63824800D02*
X185065789Y-63777180D01*
X185065789Y-63777180D02*
X185018170Y-63681942D01*
X185018170Y-63681942D02*
X184970551Y-63491466D01*
X184970551Y-63491466D02*
X184970551Y-63253371D01*
X184970551Y-63253371D02*
X185018170Y-63062895D01*
X185018170Y-63062895D02*
X185065789Y-62967657D01*
X185065789Y-62967657D02*
X185113408Y-62920038D01*
X185113408Y-62920038D02*
X185208646Y-62872419D01*
X184232455Y-65705752D02*
X184232455Y-66372419D01*
X183994360Y-65324800D02*
X183756265Y-66039085D01*
X183756265Y-66039085D02*
X184375312Y-66039085D01*
X184708646Y-65467657D02*
X184756265Y-65420038D01*
X184756265Y-65420038D02*
X184851503Y-65372419D01*
X184851503Y-65372419D02*
X185089598Y-65372419D01*
X185089598Y-65372419D02*
X185184836Y-65420038D01*
X185184836Y-65420038D02*
X185232455Y-65467657D01*
X185232455Y-65467657D02*
X185280074Y-65562895D01*
X185280074Y-65562895D02*
X185280074Y-65658133D01*
X185280074Y-65658133D02*
X185232455Y-65800990D01*
X185232455Y-65800990D02*
X184661027Y-66372419D01*
X184661027Y-66372419D02*
X185280074Y-66372419D01*
X184232455Y-68205752D02*
X184232455Y-68872419D01*
X183994360Y-67824800D02*
X183756265Y-68539085D01*
X183756265Y-68539085D02*
X184375312Y-68539085D01*
X185280074Y-68872419D02*
X184708646Y-68872419D01*
X184994360Y-68872419D02*
X184994360Y-67872419D01*
X184994360Y-67872419D02*
X184899122Y-68015276D01*
X184899122Y-68015276D02*
X184803884Y-68110514D01*
X184803884Y-68110514D02*
X184708646Y-68158133D01*
X184232455Y-70705752D02*
X184232455Y-71372419D01*
X183994360Y-70324800D02*
X183756265Y-71039085D01*
X183756265Y-71039085D02*
X184375312Y-71039085D01*
X184946741Y-70372419D02*
X185041979Y-70372419D01*
X185041979Y-70372419D02*
X185137217Y-70420038D01*
X185137217Y-70420038D02*
X185184836Y-70467657D01*
X185184836Y-70467657D02*
X185232455Y-70562895D01*
X185232455Y-70562895D02*
X185280074Y-70753371D01*
X185280074Y-70753371D02*
X185280074Y-70991466D01*
X185280074Y-70991466D02*
X185232455Y-71181942D01*
X185232455Y-71181942D02*
X185184836Y-71277180D01*
X185184836Y-71277180D02*
X185137217Y-71324800D01*
X185137217Y-71324800D02*
X185041979Y-71372419D01*
X185041979Y-71372419D02*
X184946741Y-71372419D01*
X184946741Y-71372419D02*
X184851503Y-71324800D01*
X184851503Y-71324800D02*
X184803884Y-71277180D01*
X184803884Y-71277180D02*
X184756265Y-71181942D01*
X184756265Y-71181942D02*
X184708646Y-70991466D01*
X184708646Y-70991466D02*
X184708646Y-70753371D01*
X184708646Y-70753371D02*
X184756265Y-70562895D01*
X184756265Y-70562895D02*
X184803884Y-70467657D01*
X184803884Y-70467657D02*
X184851503Y-70420038D01*
X184851503Y-70420038D02*
X184946741Y-70372419D01*
X183708646Y-72872419D02*
X184327693Y-72872419D01*
X184327693Y-72872419D02*
X183994360Y-73253371D01*
X183994360Y-73253371D02*
X184137217Y-73253371D01*
X184137217Y-73253371D02*
X184232455Y-73300990D01*
X184232455Y-73300990D02*
X184280074Y-73348609D01*
X184280074Y-73348609D02*
X184327693Y-73443847D01*
X184327693Y-73443847D02*
X184327693Y-73681942D01*
X184327693Y-73681942D02*
X184280074Y-73777180D01*
X184280074Y-73777180D02*
X184232455Y-73824800D01*
X184232455Y-73824800D02*
X184137217Y-73872419D01*
X184137217Y-73872419D02*
X183851503Y-73872419D01*
X183851503Y-73872419D02*
X183756265Y-73824800D01*
X183756265Y-73824800D02*
X183708646Y-73777180D01*
X184803884Y-73872419D02*
X184994360Y-73872419D01*
X184994360Y-73872419D02*
X185089598Y-73824800D01*
X185089598Y-73824800D02*
X185137217Y-73777180D01*
X185137217Y-73777180D02*
X185232455Y-73634323D01*
X185232455Y-73634323D02*
X185280074Y-73443847D01*
X185280074Y-73443847D02*
X185280074Y-73062895D01*
X185280074Y-73062895D02*
X185232455Y-72967657D01*
X185232455Y-72967657D02*
X185184836Y-72920038D01*
X185184836Y-72920038D02*
X185089598Y-72872419D01*
X185089598Y-72872419D02*
X184899122Y-72872419D01*
X184899122Y-72872419D02*
X184803884Y-72920038D01*
X184803884Y-72920038D02*
X184756265Y-72967657D01*
X184756265Y-72967657D02*
X184708646Y-73062895D01*
X184708646Y-73062895D02*
X184708646Y-73300990D01*
X184708646Y-73300990D02*
X184756265Y-73396228D01*
X184756265Y-73396228D02*
X184803884Y-73443847D01*
X184803884Y-73443847D02*
X184899122Y-73491466D01*
X184899122Y-73491466D02*
X185089598Y-73491466D01*
X185089598Y-73491466D02*
X185184836Y-73443847D01*
X185184836Y-73443847D02*
X185232455Y-73396228D01*
X185232455Y-73396228D02*
X185280074Y-73300990D01*
X183708646Y-75872419D02*
X184327693Y-75872419D01*
X184327693Y-75872419D02*
X183994360Y-76253371D01*
X183994360Y-76253371D02*
X184137217Y-76253371D01*
X184137217Y-76253371D02*
X184232455Y-76300990D01*
X184232455Y-76300990D02*
X184280074Y-76348609D01*
X184280074Y-76348609D02*
X184327693Y-76443847D01*
X184327693Y-76443847D02*
X184327693Y-76681942D01*
X184327693Y-76681942D02*
X184280074Y-76777180D01*
X184280074Y-76777180D02*
X184232455Y-76824800D01*
X184232455Y-76824800D02*
X184137217Y-76872419D01*
X184137217Y-76872419D02*
X183851503Y-76872419D01*
X183851503Y-76872419D02*
X183756265Y-76824800D01*
X183756265Y-76824800D02*
X183708646Y-76777180D01*
X184899122Y-76300990D02*
X184803884Y-76253371D01*
X184803884Y-76253371D02*
X184756265Y-76205752D01*
X184756265Y-76205752D02*
X184708646Y-76110514D01*
X184708646Y-76110514D02*
X184708646Y-76062895D01*
X184708646Y-76062895D02*
X184756265Y-75967657D01*
X184756265Y-75967657D02*
X184803884Y-75920038D01*
X184803884Y-75920038D02*
X184899122Y-75872419D01*
X184899122Y-75872419D02*
X185089598Y-75872419D01*
X185089598Y-75872419D02*
X185184836Y-75920038D01*
X185184836Y-75920038D02*
X185232455Y-75967657D01*
X185232455Y-75967657D02*
X185280074Y-76062895D01*
X185280074Y-76062895D02*
X185280074Y-76110514D01*
X185280074Y-76110514D02*
X185232455Y-76205752D01*
X185232455Y-76205752D02*
X185184836Y-76253371D01*
X185184836Y-76253371D02*
X185089598Y-76300990D01*
X185089598Y-76300990D02*
X184899122Y-76300990D01*
X184899122Y-76300990D02*
X184803884Y-76348609D01*
X184803884Y-76348609D02*
X184756265Y-76396228D01*
X184756265Y-76396228D02*
X184708646Y-76491466D01*
X184708646Y-76491466D02*
X184708646Y-76681942D01*
X184708646Y-76681942D02*
X184756265Y-76777180D01*
X184756265Y-76777180D02*
X184803884Y-76824800D01*
X184803884Y-76824800D02*
X184899122Y-76872419D01*
X184899122Y-76872419D02*
X185089598Y-76872419D01*
X185089598Y-76872419D02*
X185184836Y-76824800D01*
X185184836Y-76824800D02*
X185232455Y-76777180D01*
X185232455Y-76777180D02*
X185280074Y-76681942D01*
X185280074Y-76681942D02*
X185280074Y-76491466D01*
X185280074Y-76491466D02*
X185232455Y-76396228D01*
X185232455Y-76396228D02*
X185184836Y-76348609D01*
X185184836Y-76348609D02*
X185089598Y-76300990D01*
X184232455Y-78705752D02*
X184232455Y-79372419D01*
X183994360Y-78324800D02*
X183756265Y-79039085D01*
X183756265Y-79039085D02*
X184375312Y-79039085D01*
X185232455Y-78372419D02*
X184756265Y-78372419D01*
X184756265Y-78372419D02*
X184708646Y-78848609D01*
X184708646Y-78848609D02*
X184756265Y-78800990D01*
X184756265Y-78800990D02*
X184851503Y-78753371D01*
X184851503Y-78753371D02*
X185089598Y-78753371D01*
X185089598Y-78753371D02*
X185184836Y-78800990D01*
X185184836Y-78800990D02*
X185232455Y-78848609D01*
X185232455Y-78848609D02*
X185280074Y-78943847D01*
X185280074Y-78943847D02*
X185280074Y-79181942D01*
X185280074Y-79181942D02*
X185232455Y-79277180D01*
X185232455Y-79277180D02*
X185184836Y-79324800D01*
X185184836Y-79324800D02*
X185089598Y-79372419D01*
X185089598Y-79372419D02*
X184851503Y-79372419D01*
X184851503Y-79372419D02*
X184756265Y-79324800D01*
X184756265Y-79324800D02*
X184708646Y-79277180D01*
X184232455Y-81205752D02*
X184232455Y-81872419D01*
X183994360Y-80824800D02*
X183756265Y-81539085D01*
X183756265Y-81539085D02*
X184375312Y-81539085D01*
X184899122Y-81300990D02*
X184803884Y-81253371D01*
X184803884Y-81253371D02*
X184756265Y-81205752D01*
X184756265Y-81205752D02*
X184708646Y-81110514D01*
X184708646Y-81110514D02*
X184708646Y-81062895D01*
X184708646Y-81062895D02*
X184756265Y-80967657D01*
X184756265Y-80967657D02*
X184803884Y-80920038D01*
X184803884Y-80920038D02*
X184899122Y-80872419D01*
X184899122Y-80872419D02*
X185089598Y-80872419D01*
X185089598Y-80872419D02*
X185184836Y-80920038D01*
X185184836Y-80920038D02*
X185232455Y-80967657D01*
X185232455Y-80967657D02*
X185280074Y-81062895D01*
X185280074Y-81062895D02*
X185280074Y-81110514D01*
X185280074Y-81110514D02*
X185232455Y-81205752D01*
X185232455Y-81205752D02*
X185184836Y-81253371D01*
X185184836Y-81253371D02*
X185089598Y-81300990D01*
X185089598Y-81300990D02*
X184899122Y-81300990D01*
X184899122Y-81300990D02*
X184803884Y-81348609D01*
X184803884Y-81348609D02*
X184756265Y-81396228D01*
X184756265Y-81396228D02*
X184708646Y-81491466D01*
X184708646Y-81491466D02*
X184708646Y-81681942D01*
X184708646Y-81681942D02*
X184756265Y-81777180D01*
X184756265Y-81777180D02*
X184803884Y-81824800D01*
X184803884Y-81824800D02*
X184899122Y-81872419D01*
X184899122Y-81872419D02*
X185089598Y-81872419D01*
X185089598Y-81872419D02*
X185184836Y-81824800D01*
X185184836Y-81824800D02*
X185232455Y-81777180D01*
X185232455Y-81777180D02*
X185280074Y-81681942D01*
X185280074Y-81681942D02*
X185280074Y-81491466D01*
X185280074Y-81491466D02*
X185232455Y-81396228D01*
X185232455Y-81396228D02*
X185184836Y-81348609D01*
X185184836Y-81348609D02*
X185089598Y-81300990D01*
X184232455Y-83705752D02*
X184232455Y-84372419D01*
X183994360Y-83324800D02*
X183756265Y-84039085D01*
X183756265Y-84039085D02*
X184375312Y-84039085D01*
X184661027Y-83372419D02*
X185327693Y-83372419D01*
X185327693Y-83372419D02*
X184899122Y-84372419D01*
X183756265Y-85967657D02*
X183803884Y-85920038D01*
X183803884Y-85920038D02*
X183899122Y-85872419D01*
X183899122Y-85872419D02*
X184137217Y-85872419D01*
X184137217Y-85872419D02*
X184232455Y-85920038D01*
X184232455Y-85920038D02*
X184280074Y-85967657D01*
X184280074Y-85967657D02*
X184327693Y-86062895D01*
X184327693Y-86062895D02*
X184327693Y-86158133D01*
X184327693Y-86158133D02*
X184280074Y-86300990D01*
X184280074Y-86300990D02*
X183708646Y-86872419D01*
X183708646Y-86872419D02*
X184327693Y-86872419D01*
X185280074Y-86872419D02*
X184708646Y-86872419D01*
X184994360Y-86872419D02*
X184994360Y-85872419D01*
X184994360Y-85872419D02*
X184899122Y-86015276D01*
X184899122Y-86015276D02*
X184803884Y-86110514D01*
X184803884Y-86110514D02*
X184708646Y-86158133D01*
X184327693Y-89372419D02*
X183756265Y-89372419D01*
X184041979Y-89372419D02*
X184041979Y-88372419D01*
X184041979Y-88372419D02*
X183946741Y-88515276D01*
X183946741Y-88515276D02*
X183851503Y-88610514D01*
X183851503Y-88610514D02*
X183756265Y-88658133D01*
X185184836Y-88705752D02*
X185184836Y-89372419D01*
X184946741Y-88324800D02*
X184708646Y-89039085D01*
X184708646Y-89039085D02*
X185327693Y-89039085D01*
X184327693Y-91872419D02*
X183756265Y-91872419D01*
X184041979Y-91872419D02*
X184041979Y-90872419D01*
X184041979Y-90872419D02*
X183946741Y-91015276D01*
X183946741Y-91015276D02*
X183851503Y-91110514D01*
X183851503Y-91110514D02*
X183756265Y-91158133D01*
X184661027Y-90872419D02*
X185280074Y-90872419D01*
X185280074Y-90872419D02*
X184946741Y-91253371D01*
X184946741Y-91253371D02*
X185089598Y-91253371D01*
X185089598Y-91253371D02*
X185184836Y-91300990D01*
X185184836Y-91300990D02*
X185232455Y-91348609D01*
X185232455Y-91348609D02*
X185280074Y-91443847D01*
X185280074Y-91443847D02*
X185280074Y-91681942D01*
X185280074Y-91681942D02*
X185232455Y-91777180D01*
X185232455Y-91777180D02*
X185184836Y-91824800D01*
X185184836Y-91824800D02*
X185089598Y-91872419D01*
X185089598Y-91872419D02*
X184803884Y-91872419D01*
X184803884Y-91872419D02*
X184708646Y-91824800D01*
X184708646Y-91824800D02*
X184661027Y-91777180D01*
X184327693Y-94372419D02*
X183756265Y-94372419D01*
X184041979Y-94372419D02*
X184041979Y-93372419D01*
X184041979Y-93372419D02*
X183946741Y-93515276D01*
X183946741Y-93515276D02*
X183851503Y-93610514D01*
X183851503Y-93610514D02*
X183756265Y-93658133D01*
X184708646Y-93467657D02*
X184756265Y-93420038D01*
X184756265Y-93420038D02*
X184851503Y-93372419D01*
X184851503Y-93372419D02*
X185089598Y-93372419D01*
X185089598Y-93372419D02*
X185184836Y-93420038D01*
X185184836Y-93420038D02*
X185232455Y-93467657D01*
X185232455Y-93467657D02*
X185280074Y-93562895D01*
X185280074Y-93562895D02*
X185280074Y-93658133D01*
X185280074Y-93658133D02*
X185232455Y-93800990D01*
X185232455Y-93800990D02*
X184661027Y-94372419D01*
X184661027Y-94372419D02*
X185280074Y-94372419D01*
X185327693Y-56372419D02*
X184756265Y-56372419D01*
X185041979Y-56372419D02*
X185041979Y-55372419D01*
X185041979Y-55372419D02*
X184946741Y-55515276D01*
X184946741Y-55515276D02*
X184851503Y-55610514D01*
X184851503Y-55610514D02*
X184756265Y-55658133D01*
X184756265Y-57967657D02*
X184803884Y-57920038D01*
X184803884Y-57920038D02*
X184899122Y-57872419D01*
X184899122Y-57872419D02*
X185137217Y-57872419D01*
X185137217Y-57872419D02*
X185232455Y-57920038D01*
X185232455Y-57920038D02*
X185280074Y-57967657D01*
X185280074Y-57967657D02*
X185327693Y-58062895D01*
X185327693Y-58062895D02*
X185327693Y-58158133D01*
X185327693Y-58158133D02*
X185280074Y-58300990D01*
X185280074Y-58300990D02*
X184708646Y-58872419D01*
X184708646Y-58872419D02*
X185327693Y-58872419D01*
D11*
X119282969Y-35869819D02*
X118806779Y-35869819D01*
X118806779Y-35869819D02*
X118759160Y-36346009D01*
X118759160Y-36346009D02*
X118806779Y-36298390D01*
X118806779Y-36298390D02*
X118902017Y-36250771D01*
X118902017Y-36250771D02*
X119140112Y-36250771D01*
X119140112Y-36250771D02*
X119235350Y-36298390D01*
X119235350Y-36298390D02*
X119282969Y-36346009D01*
X119282969Y-36346009D02*
X119330588Y-36441247D01*
X119330588Y-36441247D02*
X119330588Y-36679342D01*
X119330588Y-36679342D02*
X119282969Y-36774580D01*
X119282969Y-36774580D02*
X119235350Y-36822200D01*
X119235350Y-36822200D02*
X119140112Y-36869819D01*
X119140112Y-36869819D02*
X118902017Y-36869819D01*
X118902017Y-36869819D02*
X118806779Y-36822200D01*
X118806779Y-36822200D02*
X118759160Y-36774580D01*
X119616303Y-35869819D02*
X119949636Y-36869819D01*
X119949636Y-36869819D02*
X120282969Y-35869819D01*
X125711541Y-35869819D02*
X126330588Y-35869819D01*
X126330588Y-35869819D02*
X125997255Y-36250771D01*
X125997255Y-36250771D02*
X126140112Y-36250771D01*
X126140112Y-36250771D02*
X126235350Y-36298390D01*
X126235350Y-36298390D02*
X126282969Y-36346009D01*
X126282969Y-36346009D02*
X126330588Y-36441247D01*
X126330588Y-36441247D02*
X126330588Y-36679342D01*
X126330588Y-36679342D02*
X126282969Y-36774580D01*
X126282969Y-36774580D02*
X126235350Y-36822200D01*
X126235350Y-36822200D02*
X126140112Y-36869819D01*
X126140112Y-36869819D02*
X125854398Y-36869819D01*
X125854398Y-36869819D02*
X125759160Y-36822200D01*
X125759160Y-36822200D02*
X125711541Y-36774580D01*
X126759160Y-36774580D02*
X126806779Y-36822200D01*
X126806779Y-36822200D02*
X126759160Y-36869819D01*
X126759160Y-36869819D02*
X126711541Y-36822200D01*
X126711541Y-36822200D02*
X126759160Y-36774580D01*
X126759160Y-36774580D02*
X126759160Y-36869819D01*
X127140112Y-35869819D02*
X127759159Y-35869819D01*
X127759159Y-35869819D02*
X127425826Y-36250771D01*
X127425826Y-36250771D02*
X127568683Y-36250771D01*
X127568683Y-36250771D02*
X127663921Y-36298390D01*
X127663921Y-36298390D02*
X127711540Y-36346009D01*
X127711540Y-36346009D02*
X127759159Y-36441247D01*
X127759159Y-36441247D02*
X127759159Y-36679342D01*
X127759159Y-36679342D02*
X127711540Y-36774580D01*
X127711540Y-36774580D02*
X127663921Y-36822200D01*
X127663921Y-36822200D02*
X127568683Y-36869819D01*
X127568683Y-36869819D02*
X127282969Y-36869819D01*
X127282969Y-36869819D02*
X127187731Y-36822200D01*
X127187731Y-36822200D02*
X127140112Y-36774580D01*
X128044874Y-35869819D02*
X128378207Y-36869819D01*
X128378207Y-36869819D02*
X128711540Y-35869819D01*
X134312969Y-36869819D02*
X133836779Y-36869819D01*
X133836779Y-36869819D02*
X133836779Y-35869819D01*
X134646303Y-36346009D02*
X134979636Y-36346009D01*
X135122493Y-36869819D02*
X134646303Y-36869819D01*
X134646303Y-36869819D02*
X134646303Y-35869819D01*
X134646303Y-35869819D02*
X135122493Y-35869819D01*
X135551065Y-36869819D02*
X135551065Y-35869819D01*
X135551065Y-35869819D02*
X135789160Y-35869819D01*
X135789160Y-35869819D02*
X135932017Y-35917438D01*
X135932017Y-35917438D02*
X136027255Y-36012676D01*
X136027255Y-36012676D02*
X136074874Y-36107914D01*
X136074874Y-36107914D02*
X136122493Y-36298390D01*
X136122493Y-36298390D02*
X136122493Y-36441247D01*
X136122493Y-36441247D02*
X136074874Y-36631723D01*
X136074874Y-36631723D02*
X136027255Y-36726961D01*
X136027255Y-36726961D02*
X135932017Y-36822200D01*
X135932017Y-36822200D02*
X135789160Y-36869819D01*
X135789160Y-36869819D02*
X135551065Y-36869819D01*
D13*
X127173558Y-76739638D02*
X127173558Y-74739638D01*
X127173558Y-74739638D02*
X127840225Y-76168209D01*
X127840225Y-76168209D02*
X128506891Y-74739638D01*
X128506891Y-74739638D02*
X128506891Y-76739638D01*
X129459272Y-76739638D02*
X129459272Y-74739638D01*
X129459272Y-74739638D02*
X130221177Y-74739638D01*
X130221177Y-74739638D02*
X130411653Y-74834876D01*
X130411653Y-74834876D02*
X130506891Y-74930114D01*
X130506891Y-74930114D02*
X130602129Y-75120590D01*
X130602129Y-75120590D02*
X130602129Y-75406304D01*
X130602129Y-75406304D02*
X130506891Y-75596780D01*
X130506891Y-75596780D02*
X130411653Y-75692019D01*
X130411653Y-75692019D02*
X130221177Y-75787257D01*
X130221177Y-75787257D02*
X129459272Y-75787257D01*
X131459272Y-76739638D02*
X131459272Y-74739638D01*
X131459272Y-74739638D02*
X132221177Y-74739638D01*
X132221177Y-74739638D02*
X132411653Y-74834876D01*
X132411653Y-74834876D02*
X132506891Y-74930114D01*
X132506891Y-74930114D02*
X132602129Y-75120590D01*
X132602129Y-75120590D02*
X132602129Y-75406304D01*
X132602129Y-75406304D02*
X132506891Y-75596780D01*
X132506891Y-75596780D02*
X132411653Y-75692019D01*
X132411653Y-75692019D02*
X132221177Y-75787257D01*
X132221177Y-75787257D02*
X131459272Y-75787257D01*
X134506891Y-76739638D02*
X133364034Y-76739638D01*
X133935462Y-76739638D02*
X133935462Y-74739638D01*
X133935462Y-74739638D02*
X133744986Y-75025352D01*
X133744986Y-75025352D02*
X133554510Y-75215828D01*
X133554510Y-75215828D02*
X133364034Y-75311066D01*
D10*
X135363855Y-49133332D02*
X134982902Y-49399999D01*
X135363855Y-49590475D02*
X134563855Y-49590475D01*
X134563855Y-49590475D02*
X134563855Y-49285713D01*
X134563855Y-49285713D02*
X134601950Y-49209523D01*
X134601950Y-49209523D02*
X134640045Y-49171428D01*
X134640045Y-49171428D02*
X134716236Y-49133332D01*
X134716236Y-49133332D02*
X134830521Y-49133332D01*
X134830521Y-49133332D02*
X134906712Y-49171428D01*
X134906712Y-49171428D02*
X134944807Y-49209523D01*
X134944807Y-49209523D02*
X134982902Y-49285713D01*
X134982902Y-49285713D02*
X134982902Y-49590475D01*
X134563855Y-48866666D02*
X134563855Y-48333332D01*
X134563855Y-48333332D02*
X135363855Y-48676190D01*
X172787664Y-97633332D02*
X172825760Y-97671428D01*
X172825760Y-97671428D02*
X172863855Y-97785713D01*
X172863855Y-97785713D02*
X172863855Y-97861904D01*
X172863855Y-97861904D02*
X172825760Y-97976190D01*
X172825760Y-97976190D02*
X172749569Y-98052380D01*
X172749569Y-98052380D02*
X172673379Y-98090475D01*
X172673379Y-98090475D02*
X172520998Y-98128571D01*
X172520998Y-98128571D02*
X172406712Y-98128571D01*
X172406712Y-98128571D02*
X172254331Y-98090475D01*
X172254331Y-98090475D02*
X172178140Y-98052380D01*
X172178140Y-98052380D02*
X172101950Y-97976190D01*
X172101950Y-97976190D02*
X172063855Y-97861904D01*
X172063855Y-97861904D02*
X172063855Y-97785713D01*
X172063855Y-97785713D02*
X172101950Y-97671428D01*
X172101950Y-97671428D02*
X172140045Y-97633332D01*
X172063855Y-96947618D02*
X172063855Y-97099999D01*
X172063855Y-97099999D02*
X172101950Y-97176190D01*
X172101950Y-97176190D02*
X172140045Y-97214285D01*
X172140045Y-97214285D02*
X172254331Y-97290475D01*
X172254331Y-97290475D02*
X172406712Y-97328571D01*
X172406712Y-97328571D02*
X172711474Y-97328571D01*
X172711474Y-97328571D02*
X172787664Y-97290475D01*
X172787664Y-97290475D02*
X172825760Y-97252380D01*
X172825760Y-97252380D02*
X172863855Y-97176190D01*
X172863855Y-97176190D02*
X172863855Y-97023809D01*
X172863855Y-97023809D02*
X172825760Y-96947618D01*
X172825760Y-96947618D02*
X172787664Y-96909523D01*
X172787664Y-96909523D02*
X172711474Y-96871428D01*
X172711474Y-96871428D02*
X172520998Y-96871428D01*
X172520998Y-96871428D02*
X172444807Y-96909523D01*
X172444807Y-96909523D02*
X172406712Y-96947618D01*
X172406712Y-96947618D02*
X172368617Y-97023809D01*
X172368617Y-97023809D02*
X172368617Y-97176190D01*
X172368617Y-97176190D02*
X172406712Y-97252380D01*
X172406712Y-97252380D02*
X172444807Y-97290475D01*
X172444807Y-97290475D02*
X172520998Y-97328571D01*
X148287664Y-100133332D02*
X148325760Y-100171428D01*
X148325760Y-100171428D02*
X148363855Y-100285713D01*
X148363855Y-100285713D02*
X148363855Y-100361904D01*
X148363855Y-100361904D02*
X148325760Y-100476190D01*
X148325760Y-100476190D02*
X148249569Y-100552380D01*
X148249569Y-100552380D02*
X148173379Y-100590475D01*
X148173379Y-100590475D02*
X148020998Y-100628571D01*
X148020998Y-100628571D02*
X147906712Y-100628571D01*
X147906712Y-100628571D02*
X147754331Y-100590475D01*
X147754331Y-100590475D02*
X147678140Y-100552380D01*
X147678140Y-100552380D02*
X147601950Y-100476190D01*
X147601950Y-100476190D02*
X147563855Y-100361904D01*
X147563855Y-100361904D02*
X147563855Y-100285713D01*
X147563855Y-100285713D02*
X147601950Y-100171428D01*
X147601950Y-100171428D02*
X147640045Y-100133332D01*
X147830521Y-99447618D02*
X148363855Y-99447618D01*
X147525760Y-99638094D02*
X148097188Y-99828571D01*
X148097188Y-99828571D02*
X148097188Y-99333332D01*
D11*
X167454819Y-89761904D02*
X168264342Y-89761904D01*
X168264342Y-89761904D02*
X168359580Y-89714285D01*
X168359580Y-89714285D02*
X168407200Y-89666666D01*
X168407200Y-89666666D02*
X168454819Y-89571428D01*
X168454819Y-89571428D02*
X168454819Y-89380952D01*
X168454819Y-89380952D02*
X168407200Y-89285714D01*
X168407200Y-89285714D02*
X168359580Y-89238095D01*
X168359580Y-89238095D02*
X168264342Y-89190476D01*
X168264342Y-89190476D02*
X167454819Y-89190476D01*
X167788152Y-88285714D02*
X168454819Y-88285714D01*
X167407200Y-88523809D02*
X168121485Y-88761904D01*
X168121485Y-88761904D02*
X168121485Y-88142857D01*
D10*
X119863855Y-48183332D02*
X119482902Y-48449999D01*
X119863855Y-48640475D02*
X119063855Y-48640475D01*
X119063855Y-48640475D02*
X119063855Y-48335713D01*
X119063855Y-48335713D02*
X119101950Y-48259523D01*
X119101950Y-48259523D02*
X119140045Y-48221428D01*
X119140045Y-48221428D02*
X119216236Y-48183332D01*
X119216236Y-48183332D02*
X119330521Y-48183332D01*
X119330521Y-48183332D02*
X119406712Y-48221428D01*
X119406712Y-48221428D02*
X119444807Y-48259523D01*
X119444807Y-48259523D02*
X119482902Y-48335713D01*
X119482902Y-48335713D02*
X119482902Y-48640475D01*
X119063855Y-47459523D02*
X119063855Y-47840475D01*
X119063855Y-47840475D02*
X119444807Y-47878571D01*
X119444807Y-47878571D02*
X119406712Y-47840475D01*
X119406712Y-47840475D02*
X119368617Y-47764285D01*
X119368617Y-47764285D02*
X119368617Y-47573809D01*
X119368617Y-47573809D02*
X119406712Y-47497618D01*
X119406712Y-47497618D02*
X119444807Y-47459523D01*
X119444807Y-47459523D02*
X119520998Y-47421428D01*
X119520998Y-47421428D02*
X119711474Y-47421428D01*
X119711474Y-47421428D02*
X119787664Y-47459523D01*
X119787664Y-47459523D02*
X119825760Y-47497618D01*
X119825760Y-47497618D02*
X119863855Y-47573809D01*
X119863855Y-47573809D02*
X119863855Y-47764285D01*
X119863855Y-47764285D02*
X119825760Y-47840475D01*
X119825760Y-47840475D02*
X119787664Y-47878571D01*
X143866667Y-56787664D02*
X143828571Y-56825760D01*
X143828571Y-56825760D02*
X143714286Y-56863855D01*
X143714286Y-56863855D02*
X143638095Y-56863855D01*
X143638095Y-56863855D02*
X143523809Y-56825760D01*
X143523809Y-56825760D02*
X143447619Y-56749569D01*
X143447619Y-56749569D02*
X143409524Y-56673379D01*
X143409524Y-56673379D02*
X143371428Y-56520998D01*
X143371428Y-56520998D02*
X143371428Y-56406712D01*
X143371428Y-56406712D02*
X143409524Y-56254331D01*
X143409524Y-56254331D02*
X143447619Y-56178140D01*
X143447619Y-56178140D02*
X143523809Y-56101950D01*
X143523809Y-56101950D02*
X143638095Y-56063855D01*
X143638095Y-56063855D02*
X143714286Y-56063855D01*
X143714286Y-56063855D02*
X143828571Y-56101950D01*
X143828571Y-56101950D02*
X143866667Y-56140045D01*
X144628571Y-56863855D02*
X144171428Y-56863855D01*
X144400000Y-56863855D02*
X144400000Y-56063855D01*
X144400000Y-56063855D02*
X144323809Y-56178140D01*
X144323809Y-56178140D02*
X144247619Y-56254331D01*
X144247619Y-56254331D02*
X144171428Y-56292426D01*
D11*
X150454819Y-104261904D02*
X151264342Y-104261904D01*
X151264342Y-104261904D02*
X151359580Y-104214285D01*
X151359580Y-104214285D02*
X151407200Y-104166666D01*
X151407200Y-104166666D02*
X151454819Y-104071428D01*
X151454819Y-104071428D02*
X151454819Y-103880952D01*
X151454819Y-103880952D02*
X151407200Y-103785714D01*
X151407200Y-103785714D02*
X151359580Y-103738095D01*
X151359580Y-103738095D02*
X151264342Y-103690476D01*
X151264342Y-103690476D02*
X150454819Y-103690476D01*
X150550057Y-103261904D02*
X150502438Y-103214285D01*
X150502438Y-103214285D02*
X150454819Y-103119047D01*
X150454819Y-103119047D02*
X150454819Y-102880952D01*
X150454819Y-102880952D02*
X150502438Y-102785714D01*
X150502438Y-102785714D02*
X150550057Y-102738095D01*
X150550057Y-102738095D02*
X150645295Y-102690476D01*
X150645295Y-102690476D02*
X150740533Y-102690476D01*
X150740533Y-102690476D02*
X150883390Y-102738095D01*
X150883390Y-102738095D02*
X151454819Y-103309523D01*
X151454819Y-103309523D02*
X151454819Y-102690476D01*
X181047618Y-114704819D02*
X180714285Y-114228628D01*
X180476190Y-114704819D02*
X180476190Y-113704819D01*
X180476190Y-113704819D02*
X180857142Y-113704819D01*
X180857142Y-113704819D02*
X180952380Y-113752438D01*
X180952380Y-113752438D02*
X180999999Y-113800057D01*
X180999999Y-113800057D02*
X181047618Y-113895295D01*
X181047618Y-113895295D02*
X181047618Y-114038152D01*
X181047618Y-114038152D02*
X180999999Y-114133390D01*
X180999999Y-114133390D02*
X180952380Y-114181009D01*
X180952380Y-114181009D02*
X180857142Y-114228628D01*
X180857142Y-114228628D02*
X180476190Y-114228628D01*
X181476190Y-114181009D02*
X181809523Y-114181009D01*
X181952380Y-114704819D02*
X181476190Y-114704819D01*
X181476190Y-114704819D02*
X181476190Y-113704819D01*
X181476190Y-113704819D02*
X181952380Y-113704819D01*
X182333333Y-114657200D02*
X182476190Y-114704819D01*
X182476190Y-114704819D02*
X182714285Y-114704819D01*
X182714285Y-114704819D02*
X182809523Y-114657200D01*
X182809523Y-114657200D02*
X182857142Y-114609580D01*
X182857142Y-114609580D02*
X182904761Y-114514342D01*
X182904761Y-114514342D02*
X182904761Y-114419104D01*
X182904761Y-114419104D02*
X182857142Y-114323866D01*
X182857142Y-114323866D02*
X182809523Y-114276247D01*
X182809523Y-114276247D02*
X182714285Y-114228628D01*
X182714285Y-114228628D02*
X182523809Y-114181009D01*
X182523809Y-114181009D02*
X182428571Y-114133390D01*
X182428571Y-114133390D02*
X182380952Y-114085771D01*
X182380952Y-114085771D02*
X182333333Y-113990533D01*
X182333333Y-113990533D02*
X182333333Y-113895295D01*
X182333333Y-113895295D02*
X182380952Y-113800057D01*
X182380952Y-113800057D02*
X182428571Y-113752438D01*
X182428571Y-113752438D02*
X182523809Y-113704819D01*
X182523809Y-113704819D02*
X182761904Y-113704819D01*
X182761904Y-113704819D02*
X182904761Y-113752438D01*
X183333333Y-114181009D02*
X183666666Y-114181009D01*
X183809523Y-114704819D02*
X183333333Y-114704819D01*
X183333333Y-114704819D02*
X183333333Y-113704819D01*
X183333333Y-113704819D02*
X183809523Y-113704819D01*
X184095238Y-113704819D02*
X184666666Y-113704819D01*
X184380952Y-114704819D02*
X184380952Y-113704819D01*
D10*
X156363855Y-100633332D02*
X155982902Y-100899999D01*
X156363855Y-101090475D02*
X155563855Y-101090475D01*
X155563855Y-101090475D02*
X155563855Y-100785713D01*
X155563855Y-100785713D02*
X155601950Y-100709523D01*
X155601950Y-100709523D02*
X155640045Y-100671428D01*
X155640045Y-100671428D02*
X155716236Y-100633332D01*
X155716236Y-100633332D02*
X155830521Y-100633332D01*
X155830521Y-100633332D02*
X155906712Y-100671428D01*
X155906712Y-100671428D02*
X155944807Y-100709523D01*
X155944807Y-100709523D02*
X155982902Y-100785713D01*
X155982902Y-100785713D02*
X155982902Y-101090475D01*
X155830521Y-99947618D02*
X156363855Y-99947618D01*
X155525760Y-100138094D02*
X156097188Y-100328571D01*
X156097188Y-100328571D02*
X156097188Y-99833332D01*
X177366667Y-96787664D02*
X177328571Y-96825760D01*
X177328571Y-96825760D02*
X177214286Y-96863855D01*
X177214286Y-96863855D02*
X177138095Y-96863855D01*
X177138095Y-96863855D02*
X177023809Y-96825760D01*
X177023809Y-96825760D02*
X176947619Y-96749569D01*
X176947619Y-96749569D02*
X176909524Y-96673379D01*
X176909524Y-96673379D02*
X176871428Y-96520998D01*
X176871428Y-96520998D02*
X176871428Y-96406712D01*
X176871428Y-96406712D02*
X176909524Y-96254331D01*
X176909524Y-96254331D02*
X176947619Y-96178140D01*
X176947619Y-96178140D02*
X177023809Y-96101950D01*
X177023809Y-96101950D02*
X177138095Y-96063855D01*
X177138095Y-96063855D02*
X177214286Y-96063855D01*
X177214286Y-96063855D02*
X177328571Y-96101950D01*
X177328571Y-96101950D02*
X177366667Y-96140045D01*
X178090476Y-96063855D02*
X177709524Y-96063855D01*
X177709524Y-96063855D02*
X177671428Y-96444807D01*
X177671428Y-96444807D02*
X177709524Y-96406712D01*
X177709524Y-96406712D02*
X177785714Y-96368617D01*
X177785714Y-96368617D02*
X177976190Y-96368617D01*
X177976190Y-96368617D02*
X178052381Y-96406712D01*
X178052381Y-96406712D02*
X178090476Y-96444807D01*
X178090476Y-96444807D02*
X178128571Y-96520998D01*
X178128571Y-96520998D02*
X178128571Y-96711474D01*
X178128571Y-96711474D02*
X178090476Y-96787664D01*
X178090476Y-96787664D02*
X178052381Y-96825760D01*
X178052381Y-96825760D02*
X177976190Y-96863855D01*
X177976190Y-96863855D02*
X177785714Y-96863855D01*
X177785714Y-96863855D02*
X177709524Y-96825760D01*
X177709524Y-96825760D02*
X177671428Y-96787664D01*
X142863855Y-99633332D02*
X142482902Y-99899999D01*
X142863855Y-100090475D02*
X142063855Y-100090475D01*
X142063855Y-100090475D02*
X142063855Y-99785713D01*
X142063855Y-99785713D02*
X142101950Y-99709523D01*
X142101950Y-99709523D02*
X142140045Y-99671428D01*
X142140045Y-99671428D02*
X142216236Y-99633332D01*
X142216236Y-99633332D02*
X142330521Y-99633332D01*
X142330521Y-99633332D02*
X142406712Y-99671428D01*
X142406712Y-99671428D02*
X142444807Y-99709523D01*
X142444807Y-99709523D02*
X142482902Y-99785713D01*
X142482902Y-99785713D02*
X142482902Y-100090475D01*
X142063855Y-99366666D02*
X142063855Y-98871428D01*
X142063855Y-98871428D02*
X142368617Y-99138094D01*
X142368617Y-99138094D02*
X142368617Y-99023809D01*
X142368617Y-99023809D02*
X142406712Y-98947618D01*
X142406712Y-98947618D02*
X142444807Y-98909523D01*
X142444807Y-98909523D02*
X142520998Y-98871428D01*
X142520998Y-98871428D02*
X142711474Y-98871428D01*
X142711474Y-98871428D02*
X142787664Y-98909523D01*
X142787664Y-98909523D02*
X142825760Y-98947618D01*
X142825760Y-98947618D02*
X142863855Y-99023809D01*
X142863855Y-99023809D02*
X142863855Y-99252380D01*
X142863855Y-99252380D02*
X142825760Y-99328571D01*
X142825760Y-99328571D02*
X142787664Y-99366666D01*
X159363855Y-78933332D02*
X158982902Y-79199999D01*
X159363855Y-79390475D02*
X158563855Y-79390475D01*
X158563855Y-79390475D02*
X158563855Y-79085713D01*
X158563855Y-79085713D02*
X158601950Y-79009523D01*
X158601950Y-79009523D02*
X158640045Y-78971428D01*
X158640045Y-78971428D02*
X158716236Y-78933332D01*
X158716236Y-78933332D02*
X158830521Y-78933332D01*
X158830521Y-78933332D02*
X158906712Y-78971428D01*
X158906712Y-78971428D02*
X158944807Y-79009523D01*
X158944807Y-79009523D02*
X158982902Y-79085713D01*
X158982902Y-79085713D02*
X158982902Y-79390475D01*
X158640045Y-78628571D02*
X158601950Y-78590475D01*
X158601950Y-78590475D02*
X158563855Y-78514285D01*
X158563855Y-78514285D02*
X158563855Y-78323809D01*
X158563855Y-78323809D02*
X158601950Y-78247618D01*
X158601950Y-78247618D02*
X158640045Y-78209523D01*
X158640045Y-78209523D02*
X158716236Y-78171428D01*
X158716236Y-78171428D02*
X158792426Y-78171428D01*
X158792426Y-78171428D02*
X158906712Y-78209523D01*
X158906712Y-78209523D02*
X159363855Y-78666666D01*
X159363855Y-78666666D02*
X159363855Y-78171428D01*
X143866667Y-61787664D02*
X143828571Y-61825760D01*
X143828571Y-61825760D02*
X143714286Y-61863855D01*
X143714286Y-61863855D02*
X143638095Y-61863855D01*
X143638095Y-61863855D02*
X143523809Y-61825760D01*
X143523809Y-61825760D02*
X143447619Y-61749569D01*
X143447619Y-61749569D02*
X143409524Y-61673379D01*
X143409524Y-61673379D02*
X143371428Y-61520998D01*
X143371428Y-61520998D02*
X143371428Y-61406712D01*
X143371428Y-61406712D02*
X143409524Y-61254331D01*
X143409524Y-61254331D02*
X143447619Y-61178140D01*
X143447619Y-61178140D02*
X143523809Y-61101950D01*
X143523809Y-61101950D02*
X143638095Y-61063855D01*
X143638095Y-61063855D02*
X143714286Y-61063855D01*
X143714286Y-61063855D02*
X143828571Y-61101950D01*
X143828571Y-61101950D02*
X143866667Y-61140045D01*
X144133333Y-61063855D02*
X144628571Y-61063855D01*
X144628571Y-61063855D02*
X144361905Y-61368617D01*
X144361905Y-61368617D02*
X144476190Y-61368617D01*
X144476190Y-61368617D02*
X144552381Y-61406712D01*
X144552381Y-61406712D02*
X144590476Y-61444807D01*
X144590476Y-61444807D02*
X144628571Y-61520998D01*
X144628571Y-61520998D02*
X144628571Y-61711474D01*
X144628571Y-61711474D02*
X144590476Y-61787664D01*
X144590476Y-61787664D02*
X144552381Y-61825760D01*
X144552381Y-61825760D02*
X144476190Y-61863855D01*
X144476190Y-61863855D02*
X144247619Y-61863855D01*
X144247619Y-61863855D02*
X144171428Y-61825760D01*
X144171428Y-61825760D02*
X144133333Y-61787664D01*
X143866667Y-66363855D02*
X143600000Y-65982902D01*
X143409524Y-66363855D02*
X143409524Y-65563855D01*
X143409524Y-65563855D02*
X143714286Y-65563855D01*
X143714286Y-65563855D02*
X143790476Y-65601950D01*
X143790476Y-65601950D02*
X143828571Y-65640045D01*
X143828571Y-65640045D02*
X143866667Y-65716236D01*
X143866667Y-65716236D02*
X143866667Y-65830521D01*
X143866667Y-65830521D02*
X143828571Y-65906712D01*
X143828571Y-65906712D02*
X143790476Y-65944807D01*
X143790476Y-65944807D02*
X143714286Y-65982902D01*
X143714286Y-65982902D02*
X143409524Y-65982902D01*
X144628571Y-66363855D02*
X144171428Y-66363855D01*
X144400000Y-66363855D02*
X144400000Y-65563855D01*
X144400000Y-65563855D02*
X144323809Y-65678140D01*
X144323809Y-65678140D02*
X144247619Y-65754331D01*
X144247619Y-65754331D02*
X144171428Y-65792426D01*
D11*
X160151009Y-101345833D02*
X160151009Y-101679166D01*
X160674819Y-101679166D02*
X159674819Y-101679166D01*
X159674819Y-101679166D02*
X159674819Y-101202976D01*
X160674819Y-100298214D02*
X160674819Y-100869642D01*
X160674819Y-100583928D02*
X159674819Y-100583928D01*
X159674819Y-100583928D02*
X159817676Y-100679166D01*
X159817676Y-100679166D02*
X159912914Y-100774404D01*
X159912914Y-100774404D02*
X159960533Y-100869642D01*
D10*
X127363855Y-49133332D02*
X126982902Y-49399999D01*
X127363855Y-49590475D02*
X126563855Y-49590475D01*
X126563855Y-49590475D02*
X126563855Y-49285713D01*
X126563855Y-49285713D02*
X126601950Y-49209523D01*
X126601950Y-49209523D02*
X126640045Y-49171428D01*
X126640045Y-49171428D02*
X126716236Y-49133332D01*
X126716236Y-49133332D02*
X126830521Y-49133332D01*
X126830521Y-49133332D02*
X126906712Y-49171428D01*
X126906712Y-49171428D02*
X126944807Y-49209523D01*
X126944807Y-49209523D02*
X126982902Y-49285713D01*
X126982902Y-49285713D02*
X126982902Y-49590475D01*
X126563855Y-48447618D02*
X126563855Y-48599999D01*
X126563855Y-48599999D02*
X126601950Y-48676190D01*
X126601950Y-48676190D02*
X126640045Y-48714285D01*
X126640045Y-48714285D02*
X126754331Y-48790475D01*
X126754331Y-48790475D02*
X126906712Y-48828571D01*
X126906712Y-48828571D02*
X127211474Y-48828571D01*
X127211474Y-48828571D02*
X127287664Y-48790475D01*
X127287664Y-48790475D02*
X127325760Y-48752380D01*
X127325760Y-48752380D02*
X127363855Y-48676190D01*
X127363855Y-48676190D02*
X127363855Y-48523809D01*
X127363855Y-48523809D02*
X127325760Y-48447618D01*
X127325760Y-48447618D02*
X127287664Y-48409523D01*
X127287664Y-48409523D02*
X127211474Y-48371428D01*
X127211474Y-48371428D02*
X127020998Y-48371428D01*
X127020998Y-48371428D02*
X126944807Y-48409523D01*
X126944807Y-48409523D02*
X126906712Y-48447618D01*
X126906712Y-48447618D02*
X126868617Y-48523809D01*
X126868617Y-48523809D02*
X126868617Y-48676190D01*
X126868617Y-48676190D02*
X126906712Y-48752380D01*
X126906712Y-48752380D02*
X126944807Y-48790475D01*
X126944807Y-48790475D02*
X127020998Y-48828571D01*
X139787664Y-49070832D02*
X139825760Y-49108928D01*
X139825760Y-49108928D02*
X139863855Y-49223213D01*
X139863855Y-49223213D02*
X139863855Y-49299404D01*
X139863855Y-49299404D02*
X139825760Y-49413690D01*
X139825760Y-49413690D02*
X139749569Y-49489880D01*
X139749569Y-49489880D02*
X139673379Y-49527975D01*
X139673379Y-49527975D02*
X139520998Y-49566071D01*
X139520998Y-49566071D02*
X139406712Y-49566071D01*
X139406712Y-49566071D02*
X139254331Y-49527975D01*
X139254331Y-49527975D02*
X139178140Y-49489880D01*
X139178140Y-49489880D02*
X139101950Y-49413690D01*
X139101950Y-49413690D02*
X139063855Y-49299404D01*
X139063855Y-49299404D02*
X139063855Y-49223213D01*
X139063855Y-49223213D02*
X139101950Y-49108928D01*
X139101950Y-49108928D02*
X139140045Y-49070832D01*
X139140045Y-48766071D02*
X139101950Y-48727975D01*
X139101950Y-48727975D02*
X139063855Y-48651785D01*
X139063855Y-48651785D02*
X139063855Y-48461309D01*
X139063855Y-48461309D02*
X139101950Y-48385118D01*
X139101950Y-48385118D02*
X139140045Y-48347023D01*
X139140045Y-48347023D02*
X139216236Y-48308928D01*
X139216236Y-48308928D02*
X139292426Y-48308928D01*
X139292426Y-48308928D02*
X139406712Y-48347023D01*
X139406712Y-48347023D02*
X139863855Y-48804166D01*
X139863855Y-48804166D02*
X139863855Y-48308928D01*
D11*
X170642857Y-114181009D02*
X170785714Y-114228628D01*
X170785714Y-114228628D02*
X170833333Y-114276247D01*
X170833333Y-114276247D02*
X170880952Y-114371485D01*
X170880952Y-114371485D02*
X170880952Y-114514342D01*
X170880952Y-114514342D02*
X170833333Y-114609580D01*
X170833333Y-114609580D02*
X170785714Y-114657200D01*
X170785714Y-114657200D02*
X170690476Y-114704819D01*
X170690476Y-114704819D02*
X170309524Y-114704819D01*
X170309524Y-114704819D02*
X170309524Y-113704819D01*
X170309524Y-113704819D02*
X170642857Y-113704819D01*
X170642857Y-113704819D02*
X170738095Y-113752438D01*
X170738095Y-113752438D02*
X170785714Y-113800057D01*
X170785714Y-113800057D02*
X170833333Y-113895295D01*
X170833333Y-113895295D02*
X170833333Y-113990533D01*
X170833333Y-113990533D02*
X170785714Y-114085771D01*
X170785714Y-114085771D02*
X170738095Y-114133390D01*
X170738095Y-114133390D02*
X170642857Y-114181009D01*
X170642857Y-114181009D02*
X170309524Y-114181009D01*
X171500000Y-113704819D02*
X171690476Y-113704819D01*
X171690476Y-113704819D02*
X171785714Y-113752438D01*
X171785714Y-113752438D02*
X171880952Y-113847676D01*
X171880952Y-113847676D02*
X171928571Y-114038152D01*
X171928571Y-114038152D02*
X171928571Y-114371485D01*
X171928571Y-114371485D02*
X171880952Y-114561961D01*
X171880952Y-114561961D02*
X171785714Y-114657200D01*
X171785714Y-114657200D02*
X171690476Y-114704819D01*
X171690476Y-114704819D02*
X171500000Y-114704819D01*
X171500000Y-114704819D02*
X171404762Y-114657200D01*
X171404762Y-114657200D02*
X171309524Y-114561961D01*
X171309524Y-114561961D02*
X171261905Y-114371485D01*
X171261905Y-114371485D02*
X171261905Y-114038152D01*
X171261905Y-114038152D02*
X171309524Y-113847676D01*
X171309524Y-113847676D02*
X171404762Y-113752438D01*
X171404762Y-113752438D02*
X171500000Y-113704819D01*
X172547619Y-113704819D02*
X172738095Y-113704819D01*
X172738095Y-113704819D02*
X172833333Y-113752438D01*
X172833333Y-113752438D02*
X172928571Y-113847676D01*
X172928571Y-113847676D02*
X172976190Y-114038152D01*
X172976190Y-114038152D02*
X172976190Y-114371485D01*
X172976190Y-114371485D02*
X172928571Y-114561961D01*
X172928571Y-114561961D02*
X172833333Y-114657200D01*
X172833333Y-114657200D02*
X172738095Y-114704819D01*
X172738095Y-114704819D02*
X172547619Y-114704819D01*
X172547619Y-114704819D02*
X172452381Y-114657200D01*
X172452381Y-114657200D02*
X172357143Y-114561961D01*
X172357143Y-114561961D02*
X172309524Y-114371485D01*
X172309524Y-114371485D02*
X172309524Y-114038152D01*
X172309524Y-114038152D02*
X172357143Y-113847676D01*
X172357143Y-113847676D02*
X172452381Y-113752438D01*
X172452381Y-113752438D02*
X172547619Y-113704819D01*
X173261905Y-113704819D02*
X173833333Y-113704819D01*
X173547619Y-114704819D02*
X173547619Y-113704819D01*
X153166666Y-105559819D02*
X153166666Y-106274104D01*
X153166666Y-106274104D02*
X153119047Y-106416961D01*
X153119047Y-106416961D02*
X153023809Y-106512200D01*
X153023809Y-106512200D02*
X152880952Y-106559819D01*
X152880952Y-106559819D02*
X152785714Y-106559819D01*
X154166666Y-106559819D02*
X153595238Y-106559819D01*
X153880952Y-106559819D02*
X153880952Y-105559819D01*
X153880952Y-105559819D02*
X153785714Y-105702676D01*
X153785714Y-105702676D02*
X153690476Y-105797914D01*
X153690476Y-105797914D02*
X153595238Y-105845533D01*
X160738095Y-73954819D02*
X160738095Y-74764342D01*
X160738095Y-74764342D02*
X160785714Y-74859580D01*
X160785714Y-74859580D02*
X160833333Y-74907200D01*
X160833333Y-74907200D02*
X160928571Y-74954819D01*
X160928571Y-74954819D02*
X161119047Y-74954819D01*
X161119047Y-74954819D02*
X161214285Y-74907200D01*
X161214285Y-74907200D02*
X161261904Y-74859580D01*
X161261904Y-74859580D02*
X161309523Y-74764342D01*
X161309523Y-74764342D02*
X161309523Y-73954819D01*
X162309523Y-74954819D02*
X161738095Y-74954819D01*
X162023809Y-74954819D02*
X162023809Y-73954819D01*
X162023809Y-73954819D02*
X161928571Y-74097676D01*
X161928571Y-74097676D02*
X161833333Y-74192914D01*
X161833333Y-74192914D02*
X161738095Y-74240533D01*
%TO.C,D4*%
D10*
X136545000Y-38700000D02*
X133455000Y-38700000D01*
X135000000Y-44250000D02*
G75*
G02*
X133455170Y-38700000I0J2990000D01*
G01*
X136544830Y-38700000D02*
G75*
G02*
X135000000Y-44250000I-1544830J-2560000D01*
G01*
X137500000Y-41260000D02*
G75*
G02*
X132500000Y-41260000I-2500000J0D01*
G01*
X132500000Y-41260000D02*
G75*
G02*
X137500000Y-41260000I2500000J0D01*
G01*
%TO.C,D3*%
X129045000Y-38700000D02*
X125955000Y-38700000D01*
X127500000Y-44250000D02*
G75*
G02*
X125955170Y-38700000I0J2990000D01*
G01*
X129044830Y-38700000D02*
G75*
G02*
X127500000Y-44250000I-1544830J-2560000D01*
G01*
X130000000Y-41260000D02*
G75*
G02*
X125000000Y-41260000I-2500000J0D01*
G01*
X125000000Y-41260000D02*
G75*
G02*
X130000000Y-41260000I2500000J0D01*
G01*
%TO.C,R7*%
X134090000Y-49727064D02*
X134090000Y-48272936D01*
X135910000Y-49727064D02*
X135910000Y-48272936D01*
%TO.C,C6*%
X171590000Y-96788748D02*
X171590000Y-98211252D01*
X173410000Y-96788748D02*
X173410000Y-98211252D01*
%TO.C,C4*%
X148711252Y-99090000D02*
X147288748Y-99090000D01*
X148711252Y-100910000D02*
X147288748Y-100910000D01*
%TO.C,U4*%
X169090000Y-87090000D02*
X170350000Y-87090000D01*
X169090000Y-90850000D02*
X169090000Y-87090000D01*
X175910000Y-87090000D02*
X174650000Y-87090000D01*
X175910000Y-90850000D02*
X175910000Y-87090000D01*
X169190000Y-92130000D02*
X168860000Y-92370000D01*
X168860000Y-91890000D01*
X169190000Y-92130000D01*
G36*
X169190000Y-92130000D02*
G01*
X168860000Y-92370000D01*
X168860000Y-91890000D01*
X169190000Y-92130000D01*
G37*
%TO.C,R5*%
X118590000Y-48777064D02*
X118590000Y-47322936D01*
X120410000Y-48777064D02*
X120410000Y-47322936D01*
%TO.C,C1*%
X144711252Y-55590000D02*
X143288748Y-55590000D01*
X144711252Y-57410000D02*
X143288748Y-57410000D01*
%TO.C,U2*%
X152010000Y-102850000D02*
X152010000Y-103900000D01*
X153990000Y-102850000D02*
X153990000Y-104150000D01*
X152010000Y-104550000D02*
X151730000Y-104270000D01*
X152010000Y-104270000D01*
X152010000Y-104550000D01*
G36*
X152010000Y-104550000D02*
G01*
X151730000Y-104270000D01*
X152010000Y-104270000D01*
X152010000Y-104550000D01*
G37*
%TO.C,D2*%
X121045000Y-38710000D02*
X117955000Y-38710000D01*
X119500000Y-44260000D02*
G75*
G02*
X117955170Y-38710000I0J2990000D01*
G01*
X121044830Y-38710000D02*
G75*
G02*
X119500000Y-44260000I-1544830J-2560000D01*
G01*
X122000000Y-41270000D02*
G75*
G02*
X117000000Y-41270000I-2500000J0D01*
G01*
X117000000Y-41270000D02*
G75*
G02*
X122000000Y-41270000I2500000J0D01*
G01*
%TO.C,RESET*%
X179000000Y-108500000D02*
X179000000Y-110000000D01*
X180250000Y-112500000D02*
X184750000Y-112500000D01*
X184750000Y-106000000D02*
X180250000Y-106000000D01*
X186000000Y-110000000D02*
X186000000Y-108500000D01*
%TO.C,R4*%
X155090000Y-99772936D02*
X155090000Y-101227064D01*
X156910000Y-99772936D02*
X156910000Y-101227064D01*
%TO.C,C5*%
X176788748Y-95590000D02*
X178211252Y-95590000D01*
X176788748Y-97410000D02*
X178211252Y-97410000D01*
%TO.C,J3*%
X186670000Y-57070000D02*
X186670000Y-95230000D01*
X186670000Y-57070000D02*
X189330000Y-57070000D01*
X186670000Y-95230000D02*
X189330000Y-95230000D01*
X188000000Y-54470000D02*
X189330000Y-54470000D01*
X189330000Y-54470000D02*
X189330000Y-55800000D01*
X189330000Y-57070000D02*
X189330000Y-95230000D01*
%TO.C,R3*%
X141590000Y-98772936D02*
X141590000Y-100227064D01*
X143410000Y-98772936D02*
X143410000Y-100227064D01*
%TO.C,R2*%
X158090000Y-79527064D02*
X158090000Y-78072936D01*
X159910000Y-79527064D02*
X159910000Y-78072936D01*
%TO.C,C3*%
X144711252Y-60590000D02*
X143288748Y-60590000D01*
X144711252Y-62410000D02*
X143288748Y-62410000D01*
%TO.C,R1*%
X143272936Y-65090000D02*
X144727064Y-65090000D01*
X143272936Y-66910000D02*
X144727064Y-66910000D01*
%TO.C,F1*%
X161140000Y-101614564D02*
X161140000Y-100410436D01*
X163860000Y-101614564D02*
X163860000Y-100410436D01*
%TO.C,J2*%
X111670000Y-56730000D02*
X111670000Y-94890000D01*
X111670000Y-56730000D02*
X114330000Y-56730000D01*
X111670000Y-94890000D02*
X114330000Y-94890000D01*
X113000000Y-54130000D02*
X114330000Y-54130000D01*
X114330000Y-54130000D02*
X114330000Y-55460000D01*
X114330000Y-56730000D02*
X114330000Y-94890000D01*
%TO.C,J4*%
X118495000Y-99150000D02*
X118495000Y-102760000D01*
X118495000Y-104460000D02*
X118495000Y-109160000D01*
X118495000Y-110460000D02*
X118495000Y-112260000D01*
X118945000Y-99150000D02*
X118495000Y-99150000D01*
X119525000Y-115420000D02*
X119325000Y-115220000D01*
X119525000Y-115420000D02*
X121385000Y-115420000D01*
X121385000Y-115420000D02*
X121595000Y-115220000D01*
X121595000Y-115070000D02*
X121595000Y-115220000D01*
X121595000Y-115070000D02*
X127965000Y-115070000D01*
X128475000Y-115420000D02*
X127965000Y-115070000D01*
X130545000Y-99150000D02*
X132465000Y-99150000D01*
X130785000Y-115420000D02*
X128475000Y-115420000D01*
X130785000Y-115420000D02*
X130985000Y-115220000D01*
X130985000Y-115220000D02*
X131245000Y-115220000D01*
X132465000Y-99150000D02*
X132465000Y-113160000D01*
%TO.C,R6*%
X126090000Y-49727064D02*
X126090000Y-48272936D01*
X127910000Y-49727064D02*
X127910000Y-48272936D01*
%TO.C,C2*%
X138590000Y-49648752D02*
X138590000Y-48226248D01*
X140410000Y-49648752D02*
X140410000Y-48226248D01*
%TO.C,BOOT*%
X168500000Y-108500000D02*
X168500000Y-110000000D01*
X169750000Y-112500000D02*
X174250000Y-112500000D01*
X174250000Y-106000000D02*
X169750000Y-106000000D01*
X175500000Y-110000000D02*
X175500000Y-108500000D01*
%TO.C,J1*%
X148830000Y-111505000D02*
X148830000Y-109805000D01*
X158170000Y-111505000D02*
X158170000Y-109805000D01*
%TO.C,U1*%
X156550000Y-47050000D02*
X156550000Y-53250000D01*
X156550000Y-47050000D02*
X174950000Y-47050000D01*
X156550000Y-71900000D02*
X156550000Y-72900000D01*
X156550000Y-72900000D02*
X158050000Y-72900000D01*
X174950000Y-47050000D02*
X174950000Y-53250000D01*
X174950000Y-72900000D02*
X173450000Y-72900000D01*
X174950000Y-72900000D02*
X174950000Y-71900000D01*
X156550000Y-53925000D02*
X156050000Y-53925000D01*
X156550000Y-53425000D01*
X156550000Y-53925000D01*
G36*
X156550000Y-53925000D02*
G01*
X156050000Y-53925000D01*
X156550000Y-53425000D01*
X156550000Y-53925000D01*
G37*
%TD*%
M02*
