%TF.GenerationSoftware,KiCad,Pcbnew,10.0.0*%
%TF.CreationDate,2026-09-01T17:34:48-04:00*%
%TF.ProjectId,MPP1,4d505031-2e6b-4696-9361-645f70636258,rev?*%
%TF.SameCoordinates,Original*%
%TF.FileFunction,Soldermask,Bot*%
%TF.FilePolarity,Negative*%
%FSLAX46Y46*%
G04 Gerber Fmt 4.6, Leading zero omitted, Abs format (unit mm)*
G04 Created by KiCad (PCBNEW 10.0.0) date 2026-09-01 17:34:48*
%MOMM*%
%LPD*%
G01*
G04 APERTURE LIST*
G04 APERTURE END LIST*
G36*
X149371342Y-111818060D02*
G01*
X149484381Y-111883323D01*
X149576677Y-111975619D01*
X149641940Y-112088658D01*
X149675722Y-112214737D01*
X149680000Y-112280000D01*
X149680000Y-113080000D01*
X149675722Y-113145263D01*
X149641940Y-113271342D01*
X149576677Y-113384381D01*
X149484381Y-113476677D01*
X149371342Y-113541940D01*
X149245263Y-113575722D01*
X149114737Y-113575722D01*
X148988658Y-113541940D01*
X148875619Y-113476677D01*
X148783323Y-113384381D01*
X148718060Y-113271342D01*
X148684278Y-113145263D01*
X148680000Y-113080000D01*
X148680000Y-112280000D01*
X148684278Y-112214737D01*
X148718060Y-112088658D01*
X148783323Y-111975619D01*
X148875619Y-111883323D01*
X148988658Y-111818060D01*
X149114737Y-111784278D01*
X149245263Y-111784278D01*
X149371342Y-111818060D01*
G37*
G36*
X158011342Y-111818060D02*
G01*
X158124381Y-111883323D01*
X158216677Y-111975619D01*
X158281940Y-112088658D01*
X158315722Y-112214737D01*
X158320000Y-112280000D01*
X158320000Y-113080000D01*
X158315722Y-113145263D01*
X158281940Y-113271342D01*
X158216677Y-113384381D01*
X158124381Y-113476677D01*
X158011342Y-113541940D01*
X157885263Y-113575722D01*
X157754737Y-113575722D01*
X157628658Y-113541940D01*
X157515619Y-113476677D01*
X157423323Y-113384381D01*
X157358060Y-113271342D01*
X157324278Y-113145263D01*
X157320000Y-113080000D01*
X157320000Y-112280000D01*
X157324278Y-112214737D01*
X157358060Y-112088658D01*
X157423323Y-111975619D01*
X157515619Y-111883323D01*
X157628658Y-111818060D01*
X157754737Y-111784278D01*
X157885263Y-111784278D01*
X158011342Y-111818060D01*
G37*
G36*
X169040285Y-110543060D02*
G01*
X169221397Y-110618079D01*
X169384393Y-110726990D01*
X169523010Y-110865607D01*
X169631921Y-111028603D01*
X169706940Y-111209715D01*
X169745185Y-111401983D01*
X169745185Y-111598017D01*
X169706940Y-111790285D01*
X169631921Y-111971397D01*
X169523010Y-112134393D01*
X169384393Y-112273010D01*
X169221397Y-112381921D01*
X169040285Y-112456940D01*
X168848017Y-112495185D01*
X168651983Y-112495185D01*
X168459715Y-112456940D01*
X168278603Y-112381921D01*
X168115607Y-112273010D01*
X167976990Y-112134393D01*
X167868079Y-111971397D01*
X167793060Y-111790285D01*
X167754815Y-111598017D01*
X167754815Y-111401983D01*
X167793060Y-111209715D01*
X167868079Y-111028603D01*
X167976990Y-110865607D01*
X168115607Y-110726990D01*
X168278603Y-110618079D01*
X168459715Y-110543060D01*
X168651983Y-110504815D01*
X168848017Y-110504815D01*
X169040285Y-110543060D01*
G37*
G36*
X175540285Y-110543060D02*
G01*
X175721397Y-110618079D01*
X175884393Y-110726990D01*
X176023010Y-110865607D01*
X176131921Y-111028603D01*
X176206940Y-111209715D01*
X176245185Y-111401983D01*
X176245185Y-111598017D01*
X176206940Y-111790285D01*
X176131921Y-111971397D01*
X176023010Y-112134393D01*
X175884393Y-112273010D01*
X175721397Y-112381921D01*
X175540285Y-112456940D01*
X175348017Y-112495185D01*
X175151983Y-112495185D01*
X174959715Y-112456940D01*
X174778603Y-112381921D01*
X174615607Y-112273010D01*
X174476990Y-112134393D01*
X174368079Y-111971397D01*
X174293060Y-111790285D01*
X174254815Y-111598017D01*
X174254815Y-111401983D01*
X174293060Y-111209715D01*
X174368079Y-111028603D01*
X174476990Y-110865607D01*
X174615607Y-110726990D01*
X174778603Y-110618079D01*
X174959715Y-110543060D01*
X175151983Y-110504815D01*
X175348017Y-110504815D01*
X175540285Y-110543060D01*
G37*
G36*
X179540285Y-110543060D02*
G01*
X179721397Y-110618079D01*
X179884393Y-110726990D01*
X180023010Y-110865607D01*
X180131921Y-111028603D01*
X180206940Y-111209715D01*
X180245185Y-111401983D01*
X180245185Y-111598017D01*
X180206940Y-111790285D01*
X180131921Y-111971397D01*
X180023010Y-112134393D01*
X179884393Y-112273010D01*
X179721397Y-112381921D01*
X179540285Y-112456940D01*
X179348017Y-112495185D01*
X179151983Y-112495185D01*
X178959715Y-112456940D01*
X178778603Y-112381921D01*
X178615607Y-112273010D01*
X178476990Y-112134393D01*
X178368079Y-111971397D01*
X178293060Y-111790285D01*
X178254815Y-111598017D01*
X178254815Y-111401983D01*
X178293060Y-111209715D01*
X178368079Y-111028603D01*
X178476990Y-110865607D01*
X178615607Y-110726990D01*
X178778603Y-110618079D01*
X178959715Y-110543060D01*
X179151983Y-110504815D01*
X179348017Y-110504815D01*
X179540285Y-110543060D01*
G37*
G36*
X186040285Y-110543060D02*
G01*
X186221397Y-110618079D01*
X186384393Y-110726990D01*
X186523010Y-110865607D01*
X186631921Y-111028603D01*
X186706940Y-111209715D01*
X186745185Y-111401983D01*
X186745185Y-111598017D01*
X186706940Y-111790285D01*
X186631921Y-111971397D01*
X186523010Y-112134393D01*
X186384393Y-112273010D01*
X186221397Y-112381921D01*
X186040285Y-112456940D01*
X185848017Y-112495185D01*
X185651983Y-112495185D01*
X185459715Y-112456940D01*
X185278603Y-112381921D01*
X185115607Y-112273010D01*
X184976990Y-112134393D01*
X184868079Y-111971397D01*
X184793060Y-111790285D01*
X184754815Y-111598017D01*
X184754815Y-111401983D01*
X184793060Y-111209715D01*
X184868079Y-111028603D01*
X184976990Y-110865607D01*
X185115607Y-110726990D01*
X185278603Y-110618079D01*
X185459715Y-110543060D01*
X185651983Y-110504815D01*
X185848017Y-110504815D01*
X186040285Y-110543060D01*
G37*
G36*
X149371342Y-107488060D02*
G01*
X149484381Y-107553323D01*
X149576677Y-107645619D01*
X149641940Y-107758658D01*
X149675722Y-107884737D01*
X149680000Y-107950000D01*
X149680000Y-109050000D01*
X149675722Y-109115263D01*
X149641940Y-109241342D01*
X149576677Y-109354381D01*
X149484381Y-109446677D01*
X149371342Y-109511940D01*
X149245263Y-109545722D01*
X149114737Y-109545722D01*
X148988658Y-109511940D01*
X148875619Y-109446677D01*
X148783323Y-109354381D01*
X148718060Y-109241342D01*
X148684278Y-109115263D01*
X148680000Y-109050000D01*
X148680000Y-107950000D01*
X148684278Y-107884737D01*
X148718060Y-107758658D01*
X148783323Y-107645619D01*
X148875619Y-107553323D01*
X148988658Y-107488060D01*
X149114737Y-107454278D01*
X149245263Y-107454278D01*
X149371342Y-107488060D01*
G37*
G36*
X158011342Y-107488060D02*
G01*
X158124381Y-107553323D01*
X158216677Y-107645619D01*
X158281940Y-107758658D01*
X158315722Y-107884737D01*
X158320000Y-107950000D01*
X158320000Y-109050000D01*
X158315722Y-109115263D01*
X158281940Y-109241342D01*
X158216677Y-109354381D01*
X158124381Y-109446677D01*
X158011342Y-109511940D01*
X157885263Y-109545722D01*
X157754737Y-109545722D01*
X157628658Y-109511940D01*
X157515619Y-109446677D01*
X157423323Y-109354381D01*
X157358060Y-109241342D01*
X157324278Y-109115263D01*
X157320000Y-109050000D01*
X157320000Y-107950000D01*
X157324278Y-107884737D01*
X157358060Y-107758658D01*
X157423323Y-107645619D01*
X157515619Y-107553323D01*
X157628658Y-107488060D01*
X157754737Y-107454278D01*
X157885263Y-107454278D01*
X158011342Y-107488060D01*
G37*
G36*
X150734372Y-108699739D02*
G01*
X150807847Y-108742160D01*
X150867840Y-108802153D01*
X150910261Y-108875628D01*
X150932220Y-108957579D01*
X150932220Y-109042421D01*
X150910261Y-109124372D01*
X150867840Y-109197847D01*
X150807847Y-109257840D01*
X150734372Y-109300261D01*
X150652421Y-109322220D01*
X150567579Y-109322220D01*
X150485628Y-109300261D01*
X150412153Y-109257840D01*
X150352160Y-109197847D01*
X150309739Y-109124372D01*
X150287780Y-109042421D01*
X150287780Y-108957579D01*
X150309739Y-108875628D01*
X150352160Y-108802153D01*
X150412153Y-108742160D01*
X150485628Y-108699739D01*
X150567579Y-108677780D01*
X150652421Y-108677780D01*
X150734372Y-108699739D01*
G37*
G36*
X156514372Y-108699739D02*
G01*
X156587847Y-108742160D01*
X156647840Y-108802153D01*
X156690261Y-108875628D01*
X156712220Y-108957579D01*
X156712220Y-109042421D01*
X156690261Y-109124372D01*
X156647840Y-109197847D01*
X156587847Y-109257840D01*
X156514372Y-109300261D01*
X156432421Y-109322220D01*
X156347579Y-109322220D01*
X156265628Y-109300261D01*
X156192153Y-109257840D01*
X156132160Y-109197847D01*
X156089739Y-109124372D01*
X156067780Y-109042421D01*
X156067780Y-108957579D01*
X156089739Y-108875628D01*
X156132160Y-108802153D01*
X156192153Y-108742160D01*
X156265628Y-108699739D01*
X156347579Y-108677780D01*
X156432421Y-108677780D01*
X156514372Y-108699739D01*
G37*
G36*
X169040285Y-106043060D02*
G01*
X169221397Y-106118079D01*
X169384393Y-106226990D01*
X169523010Y-106365607D01*
X169631921Y-106528603D01*
X169706940Y-106709715D01*
X169745185Y-106901983D01*
X169745185Y-107098017D01*
X169706940Y-107290285D01*
X169631921Y-107471397D01*
X169523010Y-107634393D01*
X169384393Y-107773010D01*
X169221397Y-107881921D01*
X169040285Y-107956940D01*
X168848017Y-107995185D01*
X168651983Y-107995185D01*
X168459715Y-107956940D01*
X168278603Y-107881921D01*
X168115607Y-107773010D01*
X167976990Y-107634393D01*
X167868079Y-107471397D01*
X167793060Y-107290285D01*
X167754815Y-107098017D01*
X167754815Y-106901983D01*
X167793060Y-106709715D01*
X167868079Y-106528603D01*
X167976990Y-106365607D01*
X168115607Y-106226990D01*
X168278603Y-106118079D01*
X168459715Y-106043060D01*
X168651983Y-106004815D01*
X168848017Y-106004815D01*
X169040285Y-106043060D01*
G37*
G36*
X175540285Y-106043060D02*
G01*
X175721397Y-106118079D01*
X175884393Y-106226990D01*
X176023010Y-106365607D01*
X176131921Y-106528603D01*
X176206940Y-106709715D01*
X176245185Y-106901983D01*
X176245185Y-107098017D01*
X176206940Y-107290285D01*
X176131921Y-107471397D01*
X176023010Y-107634393D01*
X175884393Y-107773010D01*
X175721397Y-107881921D01*
X175540285Y-107956940D01*
X175348017Y-107995185D01*
X175151983Y-107995185D01*
X174959715Y-107956940D01*
X174778603Y-107881921D01*
X174615607Y-107773010D01*
X174476990Y-107634393D01*
X174368079Y-107471397D01*
X174293060Y-107290285D01*
X174254815Y-107098017D01*
X174254815Y-106901983D01*
X174293060Y-106709715D01*
X174368079Y-106528603D01*
X174476990Y-106365607D01*
X174615607Y-106226990D01*
X174778603Y-106118079D01*
X174959715Y-106043060D01*
X175151983Y-106004815D01*
X175348017Y-106004815D01*
X175540285Y-106043060D01*
G37*
G36*
X179540285Y-106043060D02*
G01*
X179721397Y-106118079D01*
X179884393Y-106226990D01*
X180023010Y-106365607D01*
X180131921Y-106528603D01*
X180206940Y-106709715D01*
X180245185Y-106901983D01*
X180245185Y-107098017D01*
X180206940Y-107290285D01*
X180131921Y-107471397D01*
X180023010Y-107634393D01*
X179884393Y-107773010D01*
X179721397Y-107881921D01*
X179540285Y-107956940D01*
X179348017Y-107995185D01*
X179151983Y-107995185D01*
X178959715Y-107956940D01*
X178778603Y-107881921D01*
X178615607Y-107773010D01*
X178476990Y-107634393D01*
X178368079Y-107471397D01*
X178293060Y-107290285D01*
X178254815Y-107098017D01*
X178254815Y-106901983D01*
X178293060Y-106709715D01*
X178368079Y-106528603D01*
X178476990Y-106365607D01*
X178615607Y-106226990D01*
X178778603Y-106118079D01*
X178959715Y-106043060D01*
X179151983Y-106004815D01*
X179348017Y-106004815D01*
X179540285Y-106043060D01*
G37*
G36*
X186040285Y-106043060D02*
G01*
X186221397Y-106118079D01*
X186384393Y-106226990D01*
X186523010Y-106365607D01*
X186631921Y-106528603D01*
X186706940Y-106709715D01*
X186745185Y-106901983D01*
X186745185Y-107098017D01*
X186706940Y-107290285D01*
X186631921Y-107471397D01*
X186523010Y-107634393D01*
X186384393Y-107773010D01*
X186221397Y-107881921D01*
X186040285Y-107956940D01*
X185848017Y-107995185D01*
X185651983Y-107995185D01*
X185459715Y-107956940D01*
X185278603Y-107881921D01*
X185115607Y-107773010D01*
X184976990Y-107634393D01*
X184868079Y-107471397D01*
X184793060Y-107290285D01*
X184754815Y-107098017D01*
X184754815Y-106901983D01*
X184793060Y-106709715D01*
X184868079Y-106528603D01*
X184976990Y-106365607D01*
X185115607Y-106226990D01*
X185278603Y-106118079D01*
X185459715Y-106043060D01*
X185651983Y-106004815D01*
X185848017Y-106004815D01*
X186040285Y-106043060D01*
G37*
G36*
X188246742Y-93086601D02*
G01*
X188400687Y-93150367D01*
X188539234Y-93242941D01*
X188657059Y-93360766D01*
X188749633Y-93499313D01*
X188813399Y-93653258D01*
X188845907Y-93816685D01*
X188845907Y-93983315D01*
X188813399Y-94146742D01*
X188749633Y-94300687D01*
X188657059Y-94439234D01*
X188539234Y-94557059D01*
X188400687Y-94649633D01*
X188246742Y-94713399D01*
X188083315Y-94745907D01*
X187916685Y-94745907D01*
X187753258Y-94713399D01*
X187599313Y-94649633D01*
X187460766Y-94557059D01*
X187342941Y-94439234D01*
X187250367Y-94300687D01*
X187186601Y-94146742D01*
X187154093Y-93983315D01*
X187154093Y-93816685D01*
X187186601Y-93653258D01*
X187250367Y-93499313D01*
X187342941Y-93360766D01*
X187460766Y-93242941D01*
X187599313Y-93150367D01*
X187753258Y-93086601D01*
X187916685Y-93054093D01*
X188083315Y-93054093D01*
X188246742Y-93086601D01*
G37*
G36*
X113246742Y-92746601D02*
G01*
X113400687Y-92810367D01*
X113539234Y-92902941D01*
X113657059Y-93020766D01*
X113749633Y-93159313D01*
X113813399Y-93313258D01*
X113845907Y-93476685D01*
X113845907Y-93643315D01*
X113813399Y-93806742D01*
X113749633Y-93960687D01*
X113657059Y-94099234D01*
X113539234Y-94217059D01*
X113400687Y-94309633D01*
X113246742Y-94373399D01*
X113083315Y-94405907D01*
X112916685Y-94405907D01*
X112753258Y-94373399D01*
X112599313Y-94309633D01*
X112460766Y-94217059D01*
X112342941Y-94099234D01*
X112250367Y-93960687D01*
X112186601Y-93806742D01*
X112154093Y-93643315D01*
X112154093Y-93476685D01*
X112186601Y-93313258D01*
X112250367Y-93159313D01*
X112342941Y-93020766D01*
X112460766Y-92902941D01*
X112599313Y-92810367D01*
X112753258Y-92746601D01*
X112916685Y-92714093D01*
X113083315Y-92714093D01*
X113246742Y-92746601D01*
G37*
G36*
X188246742Y-90546601D02*
G01*
X188400687Y-90610367D01*
X188539234Y-90702941D01*
X188657059Y-90820766D01*
X188749633Y-90959313D01*
X188813399Y-91113258D01*
X188845907Y-91276685D01*
X188845907Y-91443315D01*
X188813399Y-91606742D01*
X188749633Y-91760687D01*
X188657059Y-91899234D01*
X188539234Y-92017059D01*
X188400687Y-92109633D01*
X188246742Y-92173399D01*
X188083315Y-92205907D01*
X187916685Y-92205907D01*
X187753258Y-92173399D01*
X187599313Y-92109633D01*
X187460766Y-92017059D01*
X187342941Y-91899234D01*
X187250367Y-91760687D01*
X187186601Y-91606742D01*
X187154093Y-91443315D01*
X187154093Y-91276685D01*
X187186601Y-91113258D01*
X187250367Y-90959313D01*
X187342941Y-90820766D01*
X187460766Y-90702941D01*
X187599313Y-90610367D01*
X187753258Y-90546601D01*
X187916685Y-90514093D01*
X188083315Y-90514093D01*
X188246742Y-90546601D01*
G37*
G36*
X113246742Y-90206601D02*
G01*
X113400687Y-90270367D01*
X113539234Y-90362941D01*
X113657059Y-90480766D01*
X113749633Y-90619313D01*
X113813399Y-90773258D01*
X113845907Y-90936685D01*
X113845907Y-91103315D01*
X113813399Y-91266742D01*
X113749633Y-91420687D01*
X113657059Y-91559234D01*
X113539234Y-91677059D01*
X113400687Y-91769633D01*
X113246742Y-91833399D01*
X113083315Y-91865907D01*
X112916685Y-91865907D01*
X112753258Y-91833399D01*
X112599313Y-91769633D01*
X112460766Y-91677059D01*
X112342941Y-91559234D01*
X112250367Y-91420687D01*
X112186601Y-91266742D01*
X112154093Y-91103315D01*
X112154093Y-90936685D01*
X112186601Y-90773258D01*
X112250367Y-90619313D01*
X112342941Y-90480766D01*
X112460766Y-90362941D01*
X112599313Y-90270367D01*
X112753258Y-90206601D01*
X112916685Y-90174093D01*
X113083315Y-90174093D01*
X113246742Y-90206601D01*
G37*
G36*
X188246742Y-88006601D02*
G01*
X188400687Y-88070367D01*
X188539234Y-88162941D01*
X188657059Y-88280766D01*
X188749633Y-88419313D01*
X188813399Y-88573258D01*
X188845907Y-88736685D01*
X188845907Y-88903315D01*
X188813399Y-89066742D01*
X188749633Y-89220687D01*
X188657059Y-89359234D01*
X188539234Y-89477059D01*
X188400687Y-89569633D01*
X188246742Y-89633399D01*
X188083315Y-89665907D01*
X187916685Y-89665907D01*
X187753258Y-89633399D01*
X187599313Y-89569633D01*
X187460766Y-89477059D01*
X187342941Y-89359234D01*
X187250367Y-89220687D01*
X187186601Y-89066742D01*
X187154093Y-88903315D01*
X187154093Y-88736685D01*
X187186601Y-88573258D01*
X187250367Y-88419313D01*
X187342941Y-88280766D01*
X187460766Y-88162941D01*
X187599313Y-88070367D01*
X187753258Y-88006601D01*
X187916685Y-87974093D01*
X188083315Y-87974093D01*
X188246742Y-88006601D01*
G37*
G36*
X113246742Y-87666601D02*
G01*
X113400687Y-87730367D01*
X113539234Y-87822941D01*
X113657059Y-87940766D01*
X113749633Y-88079313D01*
X113813399Y-88233258D01*
X113845907Y-88396685D01*
X113845907Y-88563315D01*
X113813399Y-88726742D01*
X113749633Y-88880687D01*
X113657059Y-89019234D01*
X113539234Y-89137059D01*
X113400687Y-89229633D01*
X113246742Y-89293399D01*
X113083315Y-89325907D01*
X112916685Y-89325907D01*
X112753258Y-89293399D01*
X112599313Y-89229633D01*
X112460766Y-89137059D01*
X112342941Y-89019234D01*
X112250367Y-88880687D01*
X112186601Y-88726742D01*
X112154093Y-88563315D01*
X112154093Y-88396685D01*
X112186601Y-88233258D01*
X112250367Y-88079313D01*
X112342941Y-87940766D01*
X112460766Y-87822941D01*
X112599313Y-87730367D01*
X112753258Y-87666601D01*
X112916685Y-87634093D01*
X113083315Y-87634093D01*
X113246742Y-87666601D01*
G37*
G36*
X188246742Y-85466601D02*
G01*
X188400687Y-85530367D01*
X188539234Y-85622941D01*
X188657059Y-85740766D01*
X188749633Y-85879313D01*
X188813399Y-86033258D01*
X188845907Y-86196685D01*
X188845907Y-86363315D01*
X188813399Y-86526742D01*
X188749633Y-86680687D01*
X188657059Y-86819234D01*
X188539234Y-86937059D01*
X188400687Y-87029633D01*
X188246742Y-87093399D01*
X188083315Y-87125907D01*
X187916685Y-87125907D01*
X187753258Y-87093399D01*
X187599313Y-87029633D01*
X187460766Y-86937059D01*
X187342941Y-86819234D01*
X187250367Y-86680687D01*
X187186601Y-86526742D01*
X187154093Y-86363315D01*
X187154093Y-86196685D01*
X187186601Y-86033258D01*
X187250367Y-85879313D01*
X187342941Y-85740766D01*
X187460766Y-85622941D01*
X187599313Y-85530367D01*
X187753258Y-85466601D01*
X187916685Y-85434093D01*
X188083315Y-85434093D01*
X188246742Y-85466601D01*
G37*
G36*
X113246742Y-85126601D02*
G01*
X113400687Y-85190367D01*
X113539234Y-85282941D01*
X113657059Y-85400766D01*
X113749633Y-85539313D01*
X113813399Y-85693258D01*
X113845907Y-85856685D01*
X113845907Y-86023315D01*
X113813399Y-86186742D01*
X113749633Y-86340687D01*
X113657059Y-86479234D01*
X113539234Y-86597059D01*
X113400687Y-86689633D01*
X113246742Y-86753399D01*
X113083315Y-86785907D01*
X112916685Y-86785907D01*
X112753258Y-86753399D01*
X112599313Y-86689633D01*
X112460766Y-86597059D01*
X112342941Y-86479234D01*
X112250367Y-86340687D01*
X112186601Y-86186742D01*
X112154093Y-86023315D01*
X112154093Y-85856685D01*
X112186601Y-85693258D01*
X112250367Y-85539313D01*
X112342941Y-85400766D01*
X112460766Y-85282941D01*
X112599313Y-85190367D01*
X112753258Y-85126601D01*
X112916685Y-85094093D01*
X113083315Y-85094093D01*
X113246742Y-85126601D01*
G37*
G36*
X188246742Y-82926601D02*
G01*
X188400687Y-82990367D01*
X188539234Y-83082941D01*
X188657059Y-83200766D01*
X188749633Y-83339313D01*
X188813399Y-83493258D01*
X188845907Y-83656685D01*
X188845907Y-83823315D01*
X188813399Y-83986742D01*
X188749633Y-84140687D01*
X188657059Y-84279234D01*
X188539234Y-84397059D01*
X188400687Y-84489633D01*
X188246742Y-84553399D01*
X188083315Y-84585907D01*
X187916685Y-84585907D01*
X187753258Y-84553399D01*
X187599313Y-84489633D01*
X187460766Y-84397059D01*
X187342941Y-84279234D01*
X187250367Y-84140687D01*
X187186601Y-83986742D01*
X187154093Y-83823315D01*
X187154093Y-83656685D01*
X187186601Y-83493258D01*
X187250367Y-83339313D01*
X187342941Y-83200766D01*
X187460766Y-83082941D01*
X187599313Y-82990367D01*
X187753258Y-82926601D01*
X187916685Y-82894093D01*
X188083315Y-82894093D01*
X188246742Y-82926601D01*
G37*
G36*
X113246742Y-82586601D02*
G01*
X113400687Y-82650367D01*
X113539234Y-82742941D01*
X113657059Y-82860766D01*
X113749633Y-82999313D01*
X113813399Y-83153258D01*
X113845907Y-83316685D01*
X113845907Y-83483315D01*
X113813399Y-83646742D01*
X113749633Y-83800687D01*
X113657059Y-83939234D01*
X113539234Y-84057059D01*
X113400687Y-84149633D01*
X113246742Y-84213399D01*
X113083315Y-84245907D01*
X112916685Y-84245907D01*
X112753258Y-84213399D01*
X112599313Y-84149633D01*
X112460766Y-84057059D01*
X112342941Y-83939234D01*
X112250367Y-83800687D01*
X112186601Y-83646742D01*
X112154093Y-83483315D01*
X112154093Y-83316685D01*
X112186601Y-83153258D01*
X112250367Y-82999313D01*
X112342941Y-82860766D01*
X112460766Y-82742941D01*
X112599313Y-82650367D01*
X112753258Y-82586601D01*
X112916685Y-82554093D01*
X113083315Y-82554093D01*
X113246742Y-82586601D01*
G37*
G36*
X188246742Y-80386601D02*
G01*
X188400687Y-80450367D01*
X188539234Y-80542941D01*
X188657059Y-80660766D01*
X188749633Y-80799313D01*
X188813399Y-80953258D01*
X188845907Y-81116685D01*
X188845907Y-81283315D01*
X188813399Y-81446742D01*
X188749633Y-81600687D01*
X188657059Y-81739234D01*
X188539234Y-81857059D01*
X188400687Y-81949633D01*
X188246742Y-82013399D01*
X188083315Y-82045907D01*
X187916685Y-82045907D01*
X187753258Y-82013399D01*
X187599313Y-81949633D01*
X187460766Y-81857059D01*
X187342941Y-81739234D01*
X187250367Y-81600687D01*
X187186601Y-81446742D01*
X187154093Y-81283315D01*
X187154093Y-81116685D01*
X187186601Y-80953258D01*
X187250367Y-80799313D01*
X187342941Y-80660766D01*
X187460766Y-80542941D01*
X187599313Y-80450367D01*
X187753258Y-80386601D01*
X187916685Y-80354093D01*
X188083315Y-80354093D01*
X188246742Y-80386601D01*
G37*
G36*
X113246742Y-80046601D02*
G01*
X113400687Y-80110367D01*
X113539234Y-80202941D01*
X113657059Y-80320766D01*
X113749633Y-80459313D01*
X113813399Y-80613258D01*
X113845907Y-80776685D01*
X113845907Y-80943315D01*
X113813399Y-81106742D01*
X113749633Y-81260687D01*
X113657059Y-81399234D01*
X113539234Y-81517059D01*
X113400687Y-81609633D01*
X113246742Y-81673399D01*
X113083315Y-81705907D01*
X112916685Y-81705907D01*
X112753258Y-81673399D01*
X112599313Y-81609633D01*
X112460766Y-81517059D01*
X112342941Y-81399234D01*
X112250367Y-81260687D01*
X112186601Y-81106742D01*
X112154093Y-80943315D01*
X112154093Y-80776685D01*
X112186601Y-80613258D01*
X112250367Y-80459313D01*
X112342941Y-80320766D01*
X112460766Y-80202941D01*
X112599313Y-80110367D01*
X112753258Y-80046601D01*
X112916685Y-80014093D01*
X113083315Y-80014093D01*
X113246742Y-80046601D01*
G37*
G36*
X188246742Y-77846601D02*
G01*
X188400687Y-77910367D01*
X188539234Y-78002941D01*
X188657059Y-78120766D01*
X188749633Y-78259313D01*
X188813399Y-78413258D01*
X188845907Y-78576685D01*
X188845907Y-78743315D01*
X188813399Y-78906742D01*
X188749633Y-79060687D01*
X188657059Y-79199234D01*
X188539234Y-79317059D01*
X188400687Y-79409633D01*
X188246742Y-79473399D01*
X188083315Y-79505907D01*
X187916685Y-79505907D01*
X187753258Y-79473399D01*
X187599313Y-79409633D01*
X187460766Y-79317059D01*
X187342941Y-79199234D01*
X187250367Y-79060687D01*
X187186601Y-78906742D01*
X187154093Y-78743315D01*
X187154093Y-78576685D01*
X187186601Y-78413258D01*
X187250367Y-78259313D01*
X187342941Y-78120766D01*
X187460766Y-78002941D01*
X187599313Y-77910367D01*
X187753258Y-77846601D01*
X187916685Y-77814093D01*
X188083315Y-77814093D01*
X188246742Y-77846601D01*
G37*
G36*
X113246742Y-77506601D02*
G01*
X113400687Y-77570367D01*
X113539234Y-77662941D01*
X113657059Y-77780766D01*
X113749633Y-77919313D01*
X113813399Y-78073258D01*
X113845907Y-78236685D01*
X113845907Y-78403315D01*
X113813399Y-78566742D01*
X113749633Y-78720687D01*
X113657059Y-78859234D01*
X113539234Y-78977059D01*
X113400687Y-79069633D01*
X113246742Y-79133399D01*
X113083315Y-79165907D01*
X112916685Y-79165907D01*
X112753258Y-79133399D01*
X112599313Y-79069633D01*
X112460766Y-78977059D01*
X112342941Y-78859234D01*
X112250367Y-78720687D01*
X112186601Y-78566742D01*
X112154093Y-78403315D01*
X112154093Y-78236685D01*
X112186601Y-78073258D01*
X112250367Y-77919313D01*
X112342941Y-77780766D01*
X112460766Y-77662941D01*
X112599313Y-77570367D01*
X112753258Y-77506601D01*
X112916685Y-77474093D01*
X113083315Y-77474093D01*
X113246742Y-77506601D01*
G37*
G36*
X188246742Y-75306601D02*
G01*
X188400687Y-75370367D01*
X188539234Y-75462941D01*
X188657059Y-75580766D01*
X188749633Y-75719313D01*
X188813399Y-75873258D01*
X188845907Y-76036685D01*
X188845907Y-76203315D01*
X188813399Y-76366742D01*
X188749633Y-76520687D01*
X188657059Y-76659234D01*
X188539234Y-76777059D01*
X188400687Y-76869633D01*
X188246742Y-76933399D01*
X188083315Y-76965907D01*
X187916685Y-76965907D01*
X187753258Y-76933399D01*
X187599313Y-76869633D01*
X187460766Y-76777059D01*
X187342941Y-76659234D01*
X187250367Y-76520687D01*
X187186601Y-76366742D01*
X187154093Y-76203315D01*
X187154093Y-76036685D01*
X187186601Y-75873258D01*
X187250367Y-75719313D01*
X187342941Y-75580766D01*
X187460766Y-75462941D01*
X187599313Y-75370367D01*
X187753258Y-75306601D01*
X187916685Y-75274093D01*
X188083315Y-75274093D01*
X188246742Y-75306601D01*
G37*
G36*
X113246742Y-74966601D02*
G01*
X113400687Y-75030367D01*
X113539234Y-75122941D01*
X113657059Y-75240766D01*
X113749633Y-75379313D01*
X113813399Y-75533258D01*
X113845907Y-75696685D01*
X113845907Y-75863315D01*
X113813399Y-76026742D01*
X113749633Y-76180687D01*
X113657059Y-76319234D01*
X113539234Y-76437059D01*
X113400687Y-76529633D01*
X113246742Y-76593399D01*
X113083315Y-76625907D01*
X112916685Y-76625907D01*
X112753258Y-76593399D01*
X112599313Y-76529633D01*
X112460766Y-76437059D01*
X112342941Y-76319234D01*
X112250367Y-76180687D01*
X112186601Y-76026742D01*
X112154093Y-75863315D01*
X112154093Y-75696685D01*
X112186601Y-75533258D01*
X112250367Y-75379313D01*
X112342941Y-75240766D01*
X112460766Y-75122941D01*
X112599313Y-75030367D01*
X112753258Y-74966601D01*
X112916685Y-74934093D01*
X113083315Y-74934093D01*
X113246742Y-74966601D01*
G37*
G36*
X188246742Y-72766601D02*
G01*
X188400687Y-72830367D01*
X188539234Y-72922941D01*
X188657059Y-73040766D01*
X188749633Y-73179313D01*
X188813399Y-73333258D01*
X188845907Y-73496685D01*
X188845907Y-73663315D01*
X188813399Y-73826742D01*
X188749633Y-73980687D01*
X188657059Y-74119234D01*
X188539234Y-74237059D01*
X188400687Y-74329633D01*
X188246742Y-74393399D01*
X188083315Y-74425907D01*
X187916685Y-74425907D01*
X187753258Y-74393399D01*
X187599313Y-74329633D01*
X187460766Y-74237059D01*
X187342941Y-74119234D01*
X187250367Y-73980687D01*
X187186601Y-73826742D01*
X187154093Y-73663315D01*
X187154093Y-73496685D01*
X187186601Y-73333258D01*
X187250367Y-73179313D01*
X187342941Y-73040766D01*
X187460766Y-72922941D01*
X187599313Y-72830367D01*
X187753258Y-72766601D01*
X187916685Y-72734093D01*
X188083315Y-72734093D01*
X188246742Y-72766601D01*
G37*
G36*
X113246742Y-72426601D02*
G01*
X113400687Y-72490367D01*
X113539234Y-72582941D01*
X113657059Y-72700766D01*
X113749633Y-72839313D01*
X113813399Y-72993258D01*
X113845907Y-73156685D01*
X113845907Y-73323315D01*
X113813399Y-73486742D01*
X113749633Y-73640687D01*
X113657059Y-73779234D01*
X113539234Y-73897059D01*
X113400687Y-73989633D01*
X113246742Y-74053399D01*
X113083315Y-74085907D01*
X112916685Y-74085907D01*
X112753258Y-74053399D01*
X112599313Y-73989633D01*
X112460766Y-73897059D01*
X112342941Y-73779234D01*
X112250367Y-73640687D01*
X112186601Y-73486742D01*
X112154093Y-73323315D01*
X112154093Y-73156685D01*
X112186601Y-72993258D01*
X112250367Y-72839313D01*
X112342941Y-72700766D01*
X112460766Y-72582941D01*
X112599313Y-72490367D01*
X112753258Y-72426601D01*
X112916685Y-72394093D01*
X113083315Y-72394093D01*
X113246742Y-72426601D01*
G37*
G36*
X188246742Y-70226601D02*
G01*
X188400687Y-70290367D01*
X188539234Y-70382941D01*
X188657059Y-70500766D01*
X188749633Y-70639313D01*
X188813399Y-70793258D01*
X188845907Y-70956685D01*
X188845907Y-71123315D01*
X188813399Y-71286742D01*
X188749633Y-71440687D01*
X188657059Y-71579234D01*
X188539234Y-71697059D01*
X188400687Y-71789633D01*
X188246742Y-71853399D01*
X188083315Y-71885907D01*
X187916685Y-71885907D01*
X187753258Y-71853399D01*
X187599313Y-71789633D01*
X187460766Y-71697059D01*
X187342941Y-71579234D01*
X187250367Y-71440687D01*
X187186601Y-71286742D01*
X187154093Y-71123315D01*
X187154093Y-70956685D01*
X187186601Y-70793258D01*
X187250367Y-70639313D01*
X187342941Y-70500766D01*
X187460766Y-70382941D01*
X187599313Y-70290367D01*
X187753258Y-70226601D01*
X187916685Y-70194093D01*
X188083315Y-70194093D01*
X188246742Y-70226601D01*
G37*
G36*
X113246742Y-69886601D02*
G01*
X113400687Y-69950367D01*
X113539234Y-70042941D01*
X113657059Y-70160766D01*
X113749633Y-70299313D01*
X113813399Y-70453258D01*
X113845907Y-70616685D01*
X113845907Y-70783315D01*
X113813399Y-70946742D01*
X113749633Y-71100687D01*
X113657059Y-71239234D01*
X113539234Y-71357059D01*
X113400687Y-71449633D01*
X113246742Y-71513399D01*
X113083315Y-71545907D01*
X112916685Y-71545907D01*
X112753258Y-71513399D01*
X112599313Y-71449633D01*
X112460766Y-71357059D01*
X112342941Y-71239234D01*
X112250367Y-71100687D01*
X112186601Y-70946742D01*
X112154093Y-70783315D01*
X112154093Y-70616685D01*
X112186601Y-70453258D01*
X112250367Y-70299313D01*
X112342941Y-70160766D01*
X112460766Y-70042941D01*
X112599313Y-69950367D01*
X112753258Y-69886601D01*
X112916685Y-69854093D01*
X113083315Y-69854093D01*
X113246742Y-69886601D01*
G37*
G36*
X188246742Y-67686601D02*
G01*
X188400687Y-67750367D01*
X188539234Y-67842941D01*
X188657059Y-67960766D01*
X188749633Y-68099313D01*
X188813399Y-68253258D01*
X188845907Y-68416685D01*
X188845907Y-68583315D01*
X188813399Y-68746742D01*
X188749633Y-68900687D01*
X188657059Y-69039234D01*
X188539234Y-69157059D01*
X188400687Y-69249633D01*
X188246742Y-69313399D01*
X188083315Y-69345907D01*
X187916685Y-69345907D01*
X187753258Y-69313399D01*
X187599313Y-69249633D01*
X187460766Y-69157059D01*
X187342941Y-69039234D01*
X187250367Y-68900687D01*
X187186601Y-68746742D01*
X187154093Y-68583315D01*
X187154093Y-68416685D01*
X187186601Y-68253258D01*
X187250367Y-68099313D01*
X187342941Y-67960766D01*
X187460766Y-67842941D01*
X187599313Y-67750367D01*
X187753258Y-67686601D01*
X187916685Y-67654093D01*
X188083315Y-67654093D01*
X188246742Y-67686601D01*
G37*
G36*
X113246742Y-67346601D02*
G01*
X113400687Y-67410367D01*
X113539234Y-67502941D01*
X113657059Y-67620766D01*
X113749633Y-67759313D01*
X113813399Y-67913258D01*
X113845907Y-68076685D01*
X113845907Y-68243315D01*
X113813399Y-68406742D01*
X113749633Y-68560687D01*
X113657059Y-68699234D01*
X113539234Y-68817059D01*
X113400687Y-68909633D01*
X113246742Y-68973399D01*
X113083315Y-69005907D01*
X112916685Y-69005907D01*
X112753258Y-68973399D01*
X112599313Y-68909633D01*
X112460766Y-68817059D01*
X112342941Y-68699234D01*
X112250367Y-68560687D01*
X112186601Y-68406742D01*
X112154093Y-68243315D01*
X112154093Y-68076685D01*
X112186601Y-67913258D01*
X112250367Y-67759313D01*
X112342941Y-67620766D01*
X112460766Y-67502941D01*
X112599313Y-67410367D01*
X112753258Y-67346601D01*
X112916685Y-67314093D01*
X113083315Y-67314093D01*
X113246742Y-67346601D01*
G37*
G36*
X188246742Y-65146601D02*
G01*
X188400687Y-65210367D01*
X188539234Y-65302941D01*
X188657059Y-65420766D01*
X188749633Y-65559313D01*
X188813399Y-65713258D01*
X188845907Y-65876685D01*
X188845907Y-66043315D01*
X188813399Y-66206742D01*
X188749633Y-66360687D01*
X188657059Y-66499234D01*
X188539234Y-66617059D01*
X188400687Y-66709633D01*
X188246742Y-66773399D01*
X188083315Y-66805907D01*
X187916685Y-66805907D01*
X187753258Y-66773399D01*
X187599313Y-66709633D01*
X187460766Y-66617059D01*
X187342941Y-66499234D01*
X187250367Y-66360687D01*
X187186601Y-66206742D01*
X187154093Y-66043315D01*
X187154093Y-65876685D01*
X187186601Y-65713258D01*
X187250367Y-65559313D01*
X187342941Y-65420766D01*
X187460766Y-65302941D01*
X187599313Y-65210367D01*
X187753258Y-65146601D01*
X187916685Y-65114093D01*
X188083315Y-65114093D01*
X188246742Y-65146601D01*
G37*
G36*
X113246742Y-64806601D02*
G01*
X113400687Y-64870367D01*
X113539234Y-64962941D01*
X113657059Y-65080766D01*
X113749633Y-65219313D01*
X113813399Y-65373258D01*
X113845907Y-65536685D01*
X113845907Y-65703315D01*
X113813399Y-65866742D01*
X113749633Y-66020687D01*
X113657059Y-66159234D01*
X113539234Y-66277059D01*
X113400687Y-66369633D01*
X113246742Y-66433399D01*
X113083315Y-66465907D01*
X112916685Y-66465907D01*
X112753258Y-66433399D01*
X112599313Y-66369633D01*
X112460766Y-66277059D01*
X112342941Y-66159234D01*
X112250367Y-66020687D01*
X112186601Y-65866742D01*
X112154093Y-65703315D01*
X112154093Y-65536685D01*
X112186601Y-65373258D01*
X112250367Y-65219313D01*
X112342941Y-65080766D01*
X112460766Y-64962941D01*
X112599313Y-64870367D01*
X112753258Y-64806601D01*
X112916685Y-64774093D01*
X113083315Y-64774093D01*
X113246742Y-64806601D01*
G37*
G36*
X188246742Y-62606601D02*
G01*
X188400687Y-62670367D01*
X188539234Y-62762941D01*
X188657059Y-62880766D01*
X188749633Y-63019313D01*
X188813399Y-63173258D01*
X188845907Y-63336685D01*
X188845907Y-63503315D01*
X188813399Y-63666742D01*
X188749633Y-63820687D01*
X188657059Y-63959234D01*
X188539234Y-64077059D01*
X188400687Y-64169633D01*
X188246742Y-64233399D01*
X188083315Y-64265907D01*
X187916685Y-64265907D01*
X187753258Y-64233399D01*
X187599313Y-64169633D01*
X187460766Y-64077059D01*
X187342941Y-63959234D01*
X187250367Y-63820687D01*
X187186601Y-63666742D01*
X187154093Y-63503315D01*
X187154093Y-63336685D01*
X187186601Y-63173258D01*
X187250367Y-63019313D01*
X187342941Y-62880766D01*
X187460766Y-62762941D01*
X187599313Y-62670367D01*
X187753258Y-62606601D01*
X187916685Y-62574093D01*
X188083315Y-62574093D01*
X188246742Y-62606601D01*
G37*
G36*
X113246742Y-62266601D02*
G01*
X113400687Y-62330367D01*
X113539234Y-62422941D01*
X113657059Y-62540766D01*
X113749633Y-62679313D01*
X113813399Y-62833258D01*
X113845907Y-62996685D01*
X113845907Y-63163315D01*
X113813399Y-63326742D01*
X113749633Y-63480687D01*
X113657059Y-63619234D01*
X113539234Y-63737059D01*
X113400687Y-63829633D01*
X113246742Y-63893399D01*
X113083315Y-63925907D01*
X112916685Y-63925907D01*
X112753258Y-63893399D01*
X112599313Y-63829633D01*
X112460766Y-63737059D01*
X112342941Y-63619234D01*
X112250367Y-63480687D01*
X112186601Y-63326742D01*
X112154093Y-63163315D01*
X112154093Y-62996685D01*
X112186601Y-62833258D01*
X112250367Y-62679313D01*
X112342941Y-62540766D01*
X112460766Y-62422941D01*
X112599313Y-62330367D01*
X112753258Y-62266601D01*
X112916685Y-62234093D01*
X113083315Y-62234093D01*
X113246742Y-62266601D01*
G37*
G36*
X188246742Y-60066601D02*
G01*
X188400687Y-60130367D01*
X188539234Y-60222941D01*
X188657059Y-60340766D01*
X188749633Y-60479313D01*
X188813399Y-60633258D01*
X188845907Y-60796685D01*
X188845907Y-60963315D01*
X188813399Y-61126742D01*
X188749633Y-61280687D01*
X188657059Y-61419234D01*
X188539234Y-61537059D01*
X188400687Y-61629633D01*
X188246742Y-61693399D01*
X188083315Y-61725907D01*
X187916685Y-61725907D01*
X187753258Y-61693399D01*
X187599313Y-61629633D01*
X187460766Y-61537059D01*
X187342941Y-61419234D01*
X187250367Y-61280687D01*
X187186601Y-61126742D01*
X187154093Y-60963315D01*
X187154093Y-60796685D01*
X187186601Y-60633258D01*
X187250367Y-60479313D01*
X187342941Y-60340766D01*
X187460766Y-60222941D01*
X187599313Y-60130367D01*
X187753258Y-60066601D01*
X187916685Y-60034093D01*
X188083315Y-60034093D01*
X188246742Y-60066601D01*
G37*
G36*
X113246742Y-59726601D02*
G01*
X113400687Y-59790367D01*
X113539234Y-59882941D01*
X113657059Y-60000766D01*
X113749633Y-60139313D01*
X113813399Y-60293258D01*
X113845907Y-60456685D01*
X113845907Y-60623315D01*
X113813399Y-60786742D01*
X113749633Y-60940687D01*
X113657059Y-61079234D01*
X113539234Y-61197059D01*
X113400687Y-61289633D01*
X113246742Y-61353399D01*
X113083315Y-61385907D01*
X112916685Y-61385907D01*
X112753258Y-61353399D01*
X112599313Y-61289633D01*
X112460766Y-61197059D01*
X112342941Y-61079234D01*
X112250367Y-60940687D01*
X112186601Y-60786742D01*
X112154093Y-60623315D01*
X112154093Y-60456685D01*
X112186601Y-60293258D01*
X112250367Y-60139313D01*
X112342941Y-60000766D01*
X112460766Y-59882941D01*
X112599313Y-59790367D01*
X112753258Y-59726601D01*
X112916685Y-59694093D01*
X113083315Y-59694093D01*
X113246742Y-59726601D01*
G37*
G36*
X188246742Y-57526601D02*
G01*
X188400687Y-57590367D01*
X188539234Y-57682941D01*
X188657059Y-57800766D01*
X188749633Y-57939313D01*
X188813399Y-58093258D01*
X188845907Y-58256685D01*
X188845907Y-58423315D01*
X188813399Y-58586742D01*
X188749633Y-58740687D01*
X188657059Y-58879234D01*
X188539234Y-58997059D01*
X188400687Y-59089633D01*
X188246742Y-59153399D01*
X188083315Y-59185907D01*
X187916685Y-59185907D01*
X187753258Y-59153399D01*
X187599313Y-59089633D01*
X187460766Y-58997059D01*
X187342941Y-58879234D01*
X187250367Y-58740687D01*
X187186601Y-58586742D01*
X187154093Y-58423315D01*
X187154093Y-58256685D01*
X187186601Y-58093258D01*
X187250367Y-57939313D01*
X187342941Y-57800766D01*
X187460766Y-57682941D01*
X187599313Y-57590367D01*
X187753258Y-57526601D01*
X187916685Y-57494093D01*
X188083315Y-57494093D01*
X188246742Y-57526601D01*
G37*
G36*
X113850000Y-58850000D02*
G01*
X112150000Y-58850000D01*
X112150000Y-57150000D01*
X113850000Y-57150000D01*
X113850000Y-58850000D01*
G37*
G36*
X188246742Y-54986601D02*
G01*
X188400687Y-55050367D01*
X188539234Y-55142941D01*
X188657059Y-55260766D01*
X188749633Y-55399313D01*
X188813399Y-55553258D01*
X188845907Y-55716685D01*
X188845907Y-55883315D01*
X188813399Y-56046742D01*
X188749633Y-56200687D01*
X188657059Y-56339234D01*
X188539234Y-56457059D01*
X188400687Y-56549633D01*
X188246742Y-56613399D01*
X188083315Y-56645907D01*
X187916685Y-56645907D01*
X187753258Y-56613399D01*
X187599313Y-56549633D01*
X187460766Y-56457059D01*
X187342941Y-56339234D01*
X187250367Y-56200687D01*
X187186601Y-56046742D01*
X187154093Y-55883315D01*
X187154093Y-55716685D01*
X187186601Y-55553258D01*
X187250367Y-55399313D01*
X187342941Y-55260766D01*
X187460766Y-55142941D01*
X187599313Y-55050367D01*
X187753258Y-54986601D01*
X187916685Y-54954093D01*
X188083315Y-54954093D01*
X188246742Y-54986601D01*
G37*
G36*
X113246742Y-54646601D02*
G01*
X113400687Y-54710367D01*
X113539234Y-54802941D01*
X113657059Y-54920766D01*
X113749633Y-55059313D01*
X113813399Y-55213258D01*
X113845907Y-55376685D01*
X113845907Y-55543315D01*
X113813399Y-55706742D01*
X113749633Y-55860687D01*
X113657059Y-55999234D01*
X113539234Y-56117059D01*
X113400687Y-56209633D01*
X113246742Y-56273399D01*
X113083315Y-56305907D01*
X112916685Y-56305907D01*
X112753258Y-56273399D01*
X112599313Y-56209633D01*
X112460766Y-56117059D01*
X112342941Y-55999234D01*
X112250367Y-55860687D01*
X112186601Y-55706742D01*
X112154093Y-55543315D01*
X112154093Y-55376685D01*
X112186601Y-55213258D01*
X112250367Y-55059313D01*
X112342941Y-54920766D01*
X112460766Y-54802941D01*
X112599313Y-54710367D01*
X112753258Y-54646601D01*
X112916685Y-54614093D01*
X113083315Y-54614093D01*
X113246742Y-54646601D01*
G37*
G36*
X119761256Y-41678754D02*
G01*
X119924257Y-41746271D01*
X120070954Y-41844291D01*
X120195709Y-41969046D01*
X120293729Y-42115743D01*
X120361246Y-42278744D01*
X120395666Y-42451785D01*
X120395666Y-42628215D01*
X120361246Y-42801256D01*
X120293729Y-42964257D01*
X120195709Y-43110954D01*
X120070954Y-43235709D01*
X119924257Y-43333729D01*
X119761256Y-43401246D01*
X119588215Y-43435666D01*
X119411785Y-43435666D01*
X119238744Y-43401246D01*
X119075743Y-43333729D01*
X118929046Y-43235709D01*
X118804291Y-43110954D01*
X118706271Y-42964257D01*
X118638754Y-42801256D01*
X118604334Y-42628215D01*
X118604334Y-42451785D01*
X118638754Y-42278744D01*
X118706271Y-42115743D01*
X118804291Y-41969046D01*
X118929046Y-41844291D01*
X119075743Y-41746271D01*
X119238744Y-41678754D01*
X119411785Y-41644334D01*
X119588215Y-41644334D01*
X119761256Y-41678754D01*
G37*
G36*
X127761256Y-41668754D02*
G01*
X127924257Y-41736271D01*
X128070954Y-41834291D01*
X128195709Y-41959046D01*
X128293729Y-42105743D01*
X128361246Y-42268744D01*
X128395666Y-42441785D01*
X128395666Y-42618215D01*
X128361246Y-42791256D01*
X128293729Y-42954257D01*
X128195709Y-43100954D01*
X128070954Y-43225709D01*
X127924257Y-43323729D01*
X127761256Y-43391246D01*
X127588215Y-43425666D01*
X127411785Y-43425666D01*
X127238744Y-43391246D01*
X127075743Y-43323729D01*
X126929046Y-43225709D01*
X126804291Y-43100954D01*
X126706271Y-42954257D01*
X126638754Y-42791256D01*
X126604334Y-42618215D01*
X126604334Y-42441785D01*
X126638754Y-42268744D01*
X126706271Y-42105743D01*
X126804291Y-41959046D01*
X126929046Y-41834291D01*
X127075743Y-41736271D01*
X127238744Y-41668754D01*
X127411785Y-41634334D01*
X127588215Y-41634334D01*
X127761256Y-41668754D01*
G37*
G36*
X135261256Y-41668754D02*
G01*
X135424257Y-41736271D01*
X135570954Y-41834291D01*
X135695709Y-41959046D01*
X135793729Y-42105743D01*
X135861246Y-42268744D01*
X135895666Y-42441785D01*
X135895666Y-42618215D01*
X135861246Y-42791256D01*
X135793729Y-42954257D01*
X135695709Y-43100954D01*
X135570954Y-43225709D01*
X135424257Y-43323729D01*
X135261256Y-43391246D01*
X135088215Y-43425666D01*
X134911785Y-43425666D01*
X134738744Y-43391246D01*
X134575743Y-43323729D01*
X134429046Y-43225709D01*
X134304291Y-43100954D01*
X134206271Y-42954257D01*
X134138754Y-42791256D01*
X134104334Y-42618215D01*
X134104334Y-42441785D01*
X134138754Y-42268744D01*
X134206271Y-42105743D01*
X134304291Y-41959046D01*
X134429046Y-41834291D01*
X134575743Y-41736271D01*
X134738744Y-41668754D01*
X134911785Y-41634334D01*
X135088215Y-41634334D01*
X135261256Y-41668754D01*
G37*
G36*
X120400000Y-40900000D02*
G01*
X118600000Y-40900000D01*
X118600000Y-39100000D01*
X120400000Y-39100000D01*
X120400000Y-40900000D01*
G37*
G36*
X128400000Y-40890000D02*
G01*
X126600000Y-40890000D01*
X126600000Y-39090000D01*
X128400000Y-39090000D01*
X128400000Y-40890000D01*
G37*
G36*
X135900000Y-40890000D02*
G01*
X134100000Y-40890000D01*
X134100000Y-39090000D01*
X135900000Y-39090000D01*
X135900000Y-40890000D01*
G37*
M02*
