M48
; DRILL file KiCad 10.0.0 date 2026-09-01T17:37:32
; FORMAT={-:-/ absolute / metric / decimal}
; #@! TF.CreationDate,2026-09-01T17:37:32-04:00
; #@! TF.GenerationSoftware,Kicad,Pcbnew,10.0.0
; #@! TF.FileFunction,Plated,1,2,PTH
FMAT,2
METRIC
; #@! TA.AperFunction,Plated,PTH,ViaDrill
T1C0.300
; #@! TA.AperFunction,Plated,PTH,ComponentDrill
T2C0.300
; #@! TA.AperFunction,Plated,PTH,ViaDrill
T3C0.330
; #@! TA.AperFunction,Plated,PTH,ComponentDrill
T4C0.600
; #@! TA.AperFunction,Plated,PTH,ComponentDrill
T5C0.900
; #@! TA.AperFunction,Plated,PTH,ComponentDrill
T6C1.000
; #@! TA.AperFunction,Plated,PTH,ComponentDrill
T7C1.100
%
G90
G05
T1
X122.0Y-54.5
X122.0Y-94.75
X123.845Y-94.655
X124.5Y-52.0
X124.75Y-94.75
X125.403Y-80.2
X126.5Y-57.5
X132.8Y-79.3
X136.0Y-53.0
X137.0Y-55.0
X138.2Y-66.9
X139.5Y-61.5
X143.0Y-67.946
X149.5Y-97.5
X157.0Y-80.5
X168.5Y-102.0
X170.0Y-75.5
X174.5Y-102.0
T2
X162.85Y-61.71
X162.85Y-63.11
X163.55Y-61.01
X163.55Y-62.41
X163.55Y-63.81
X164.25Y-61.71
X164.25Y-63.11
X164.95Y-61.01
X164.95Y-62.41
X164.95Y-63.81
X165.65Y-61.71
X165.65Y-63.11
T3
X123.5Y-67.5
X125.0Y-70.0
X126.0Y-94.655
X126.5Y-72.0
X127.145Y-94.75
X127.5Y-84.5
X136.5Y-60.5
X147.0Y-66.0
X150.0Y-88.5
X150.031Y-60.531
X151.5Y-89.5
X151.5Y-106.5
X152.0Y-91.0
X152.0Y-92.0
X154.0Y-76.0
X156.5Y-105.5
X160.5Y-85.5
X161.5Y-85.5
X162.575Y-87.075
X164.0Y-87.5
X180.5Y-71.5
T5
X119.5Y-40.0
X119.5Y-42.54
X127.5Y-39.99
X127.5Y-42.53
X135.0Y-39.99
X135.0Y-42.53
T6
X113.0Y-55.46
X113.0Y-58.0
X113.0Y-60.54
X113.0Y-63.08
X113.0Y-65.62
X113.0Y-68.16
X113.0Y-70.7
X113.0Y-73.24
X113.0Y-75.78
X113.0Y-78.32
X113.0Y-80.86
X113.0Y-83.4
X113.0Y-85.94
X113.0Y-88.48
X113.0Y-91.02
X113.0Y-93.56
X188.0Y-55.8
X188.0Y-58.34
X188.0Y-60.88
X188.0Y-63.42
X188.0Y-65.96
X188.0Y-68.5
X188.0Y-71.04
X188.0Y-73.58
X188.0Y-76.12
X188.0Y-78.66
X188.0Y-81.2
X188.0Y-83.74
X188.0Y-86.28
X188.0Y-88.82
X188.0Y-91.36
X188.0Y-93.9
T7
X168.75Y-107.0
X168.75Y-111.5
X175.25Y-107.0
X175.25Y-111.5
X179.25Y-107.0
X179.25Y-111.5
X185.75Y-107.0
X185.75Y-111.5
T4
G00X149.18Y-107.95
M15
G01X149.18Y-109.05
M16
G05
G00X149.18Y-112.28
M15
G01X149.18Y-113.08
M16
G05
G00X157.82Y-107.95
M15
G01X157.82Y-109.05
M16
G05
G00X157.82Y-112.28
M15
G01X157.82Y-113.08
M16
G05
M30
